{
.appVersion = "1139";
DisplayStrings = (
"OHUSI/Germandbls/Placeholder SNEHHO/Placeholder O|/Placeholder |\012HHH/Placeholder/Placeholder/Placeholder HHH/Placeholder H\012OOOO/Placeholder/Placeholder/Placeholder/Placeholder/Placeholder OOOO\012HHHH/Placeholder/Placeholder/Placeholder/Placeholder OOOO\012IIIIII/Placeholder/Placeholder/Placeholder/Placeholder IIIIII",
"nojn/eng ðn|/Placeholder |na/Placeholder ol\012nnnn/Placeholder/Placeholder/Placeholder/Placeholder nnnn\012oooo/Placeholder/Placeholder/Placeholder/Placeholder oooo\012oooo/Placeholder/Placeholder/Placeholder/Placeholder nnnn\012llllll/Placeholder/Placeholder/Placeholder/Placeholder llllll|/Placeholder |"
);
copyright = "Copyright (c) 2010, Sebastian Kosch (sebastian@aldusleaf.org),\012with Reserved Font Name \"Crimson Text\".\012This Font Software is licensed under the SIL Open Font License, Version 1.1.\012This license is available with a FAQ at: http://scripts.sil.org/OFL";
customParameters = (
{
name = licenseURL;
value = "http://scripts.sil.org/OFL";
},
{
name = vendorID;
value = PfEd;
},
{
name = glyphOrder;
value = (
A,
AE,
B,
C,
D,
E,
F,
G,
H,
I,
I_J.loclNLD,
J,
K,
L,
M,
N,
Eng,
O,
Oslash,
Ohorn,
OE,
P,
Thorn,
Q,
R,
S,
Germandbls,
T,
U,
Uhorn,
V,
W,
X,
Y,
Z,
a,
ae,
b,
c,
d,
eth,
e,
f,
g,
h,
i,
idotless,
i_j.loclNLD,
j,
jdotless,
k,
kgreenlandic,
l,
m,
n,
eng,
o,
oslash,
ohorn,
oe,
p,
thorn,
q,
r,
s,
germandbls,
t,
u,
uhorn,
v,
w,
x,
y,
z
);
},
{
name = note;
value = "1F6F9";
}
);
date = "2018-04-25 13:40:33 +0000";
disablesNiceNames = 1;
familyName = "Crimson Text New";
featurePrefixes = (
{
automatic = 1;
code = "languagesystem DFLT dflt;\012languagesystem latn dflt;\012languagesystem latn NLD;\012languagesystem latn CAT;\012languagesystem latn ROM;\012languagesystem latn MOL;\012";
name = Languagesystems;
}
);
features = (
{
automatic = 1;

glyphs = (
{
color = 4;
glyphname = A;
lastChange = "2018-05-01 14:46:29 +0000";
layers = (
{
background = {
paths = (
{
closed = 1;
nodes = (
"1086 631 LINE",
"937 249 LINE",
"858 51 LINE",
"844 46 OFFCURVE",
"824 40 OFFCURVE",
"803 39 CURVE",
"805 -3 LINE",
"836 0 OFFCURVE",
"873 1 OFFCURVE",
"894 1 CURVE SMOOTH",
"920 1 OFFCURVE",
"952 0 OFFCURVE",
"987 -3 CURVE",
"989 39 LINE",
"963 40 OFFCURVE",
"932 48 OFFCURVE",
"920 51 CURVE",
"984 220 LINE",
"996 254 LINE",
"1122 595 LINE",
"1092 573 LINE",
"1216 258 LINE",
"1229 225 LINE",
"1297 53 LINE",
"1290 50 OFFCURVE",
"1255 40 OFFCURVE",
"1229 39 CURVE",
"1231 -3 LINE",
"1266 0 OFFCURVE",
"1299 1 OFFCURVE",
"1329 1 CURVE SMOOTH",
"1367 1 OFFCURVE",
"1417 0 OFFCURVE",
"1447 -3 CURVE",
"1449 39 LINE",
"1426 41 OFFCURVE",
"1408 47 OFFCURVE",
"1394 53 CURVE",
"1150 674 LINE"
);
},
{
closed = 1;
nodes = (
"999 216 OFFCURVE",
"1049 217 OFFCURVE",
"1122 217 CURVE SMOOTH",
"1195 217 OFFCURVE",
"1243 216 OFFCURVE",
"1275 213 CURVE",
"1275 267 LINE",
"1247 265 OFFCURVE",
"1195 264 OFFCURVE",
"1122 264 CURVE SMOOTH",
"1049 264 OFFCURVE",
"995 265 OFFCURVE",
"967 267 CURVE",
"967 213 LINE"
);
},
{
closed = 1;
nodes = (
"289 639 LINE",
"137 249 LINE",
"58 51 LINE",
"44 46 OFFCURVE",
"24 40 OFFCURVE",
"3 39 CURVE",
"5 -3 LINE",
"36 0 OFFCURVE",
"73 1 OFFCURVE",
"94 1 CURVE SMOOTH",
"120 1 OFFCURVE",
"153 0 OFFCURVE",
"188 -3 CURVE",
"190 39 LINE",
"164 40 OFFCURVE",
"133 48 OFFCURVE",
"121 51 CURVE",
"320 595 LINE",
"292 573 LINE",
"416 258 LINE",
"429 225 LINE",
"497 53 LINE",
"490 50 OFFCURVE",
"455 40 OFFCURVE",
"429 39 CURVE",
"431 -3 LINE",
"466 0 OFFCURVE",
"504 1 OFFCURVE",
"539 1 CURVE SMOOTH",
"574 1 OFFCURVE",
"616 0 OFFCURVE",
"646 -3 CURVE",
"648 39 LINE",
"625 41 OFFCURVE",
"607 47 OFFCURVE",
"593 53 CURVE",
"349 674 LINE"
);
},
{
closed = 1;
nodes = (
"199 215 OFFCURVE",
"249 216 OFFCURVE",
"322 216 CURVE SMOOTH",
"395 216 OFFCURVE",
"443 215 OFFCURVE",
"475 212 CURVE",
"475 268 LINE",
"447 266 OFFCURVE",
"395 265 OFFCURVE",
"322 265 CURVE SMOOTH",
"249 265 OFFCURVE",
"195 266 OFFCURVE",
"167 268 CURVE",
"167 212 LINE"
);
}
);
};
color = -1;
layerId = "D75C065C-4EF6-4055-9CF2-70010DBCD897";
paths = (
{
closed = 1;
nodes = (
"36 0 OFFCURVE",
"68 1 OFFCURVE",
"94 1 CURVE SMOOTH",
"120 1 OFFCURVE",
"153 0 OFFCURVE",
"188 -3 CURVE",
"190 39 LINE",
"164 40 OFFCURVE",
"133 48 OFFCURVE",
"121 51 CURVE",
"184 225 LINE",
"196 259 LINE",
"320 600 LINE",
"292 578 LINE",
"416 260 LINE",
"429 227 LINE",
"497 53 LINE",
"490 50 OFFCURVE",
"455 40 OFFCURVE",
"429 39 CURVE",
"431 -3 LINE",
"466 0 OFFCURVE",
"504 1 OFFCURVE",
"539 1 CURVE SMOOTH",
"574 1 OFFCURVE",
"616 0 OFFCURVE",
"646 -3 CURVE",
"648 39 LINE",
"625 41 OFFCURVE",
"607 47 OFFCURVE",
"593 53 CURVE",
"349 680 LINE",
"289 645 LINE",
"58 51 LINE",
"44 46 OFFCURVE",
"24 40 OFFCURVE",
"3 39 CURVE",
"5 -3 LINE"
);
},
{
closed = 1;
nodes = (
"190 215 OFFCURVE",
"240 216 OFFCURVE",
"313 216 CURVE SMOOTH",
"386 216 OFFCURVE",
"434 215 OFFCURVE",
"466 212 CURVE",
"466 268 LINE",
"438 266 OFFCURVE",
"386 265 OFFCURVE",
"313 265 CURVE SMOOTH",
"240 265 OFFCURVE",
"186 266 OFFCURVE",
"158 268 CURVE",
"158 213 LINE"
);
}
);
width = 653;
},
{
background = {
paths = (
{
closed = 1;
nodes = (
"31 0 OFFCURVE",
"72 0 OFFCURVE",
"102 0 CURVE SMOOTH",
"132 0 OFFCURVE",
"173 0 OFFCURVE",
"206 -3 CURVE",
"209 52 LINE",
"181 55 OFFCURVE",
"150 61 OFFCURVE",
"136 64 CURVE",
"307 534 LINE",
"273 534 LINE",
"388 256 LINE",
"401 219 LINE",
"464 64 LINE",
"445 60 OFFCURVE",
"420 55 OFFCURVE",
"392 52 CURVE",
"395 -3 LINE",
"429 0 OFFCURVE",
"497 2 OFFCURVE",
"537 2 CURVE SMOOTH",
"577 2 OFFCURVE",
"646 0 OFFCURVE",
"679 -3 CURVE",
"682 52 LINE",
"659 56 OFFCURVE",
"638 59 OFFCURVE",
"625 64 CURVE",
"367 674 LINE",
"277 615 LINE",
"51 64 LINE",
"39 59 OFFCURVE",
"23 55 OFFCURVE",
"-6 52 CURVE",
"-3 -3 LINE"
);
},
{
closed = 1;
nodes = (
"199 204 OFFCURVE",
"238 206 OFFCURVE",
"300 206 CURVE SMOOTH",
"361 206 OFFCURVE",
"400 204 OFFCURVE",
"428 202 CURVE",
"428 268 LINE",
"400 266 OFFCURVE",
"361 264 OFFCURVE",
"300 264 CURVE SMOOTH",
"238 264 OFFCURVE",
"199 266 OFFCURVE",
"171 268 CURVE",
"171 202 LINE"
);
}
);
};
color = -1;
layerId = "6D340022-02C4-426D-A0D8-A7BFACBEB22E";
paths = (
{
closed = 1;
nodes = (
"31 0 OFFCURVE",
"72 0 OFFCURVE",
"102 0 CURVE SMOOTH",
"132 0 OFFCURVE",
"174 0 OFFCURVE",
"207 -3 CURVE",
"210 52 LINE",
"182 55 OFFCURVE",
"151 61 OFFCURVE",
"137 64 CURVE",
"194 226 LINE",
"206 260 LINE",
"306 539 LINE",
"273 539 LINE",
"388 258 LINE",
"401 221 LINE",
"464 64 LINE",
"445 60 OFFCURVE",
"420 55 OFFCURVE",
"392 52 CURVE",
"395 -3 LINE",
"429 0 OFFCURVE",
"497 2 OFFCURVE",
"537 2 CURVE SMOOTH",
"577 2 OFFCURVE",
"646 0 OFFCURVE",
"679 -3 CURVE",
"682 52 LINE",
"659 56 OFFCURVE",
"638 59 OFFCURVE",
"625 64 CURVE",
"367 680 LINE",
"281 632 LINE",
"51 64 LINE",
"39 59 OFFCURVE",
"23 55 OFFCURVE",
"-6 52 CURVE",
"-3 -3 LINE"
);
},
{
closed = 1;
nodes = (
"199 199 OFFCURVE",
"238 201 OFFCURVE",
"300 201 CURVE SMOOTH",
"361 201 OFFCURVE",
"400 199 OFFCURVE",
"428 197 CURVE",
"428 268 LINE",
"400 266 OFFCURVE",
"361 264 OFFCURVE",
"300 264 CURVE SMOOTH",
"238 264 OFFCURVE",
"199 266 OFFCURVE",
"171 268 CURVE",
"171 197 LINE"
);
}
);
width = 673;
}
);
leftKerningGroup = A;
note = A;
rightKerningGroup = A;
unicode = 0041;
},
{
color = 4;
glyphname = AE;
lastChange = "2018-05-01 14:46:29 +0000";
layers = (
{
background = {
paths = (
{
closed = 1;
nodes = (
"863 153 LINE",
"815 163 LINE",
"790 109 OFFCURVE",
"770 71 OFFCURVE",
"758 54 CURVE",
"747 52 OFFCURVE",
"728 50 OFFCURVE",
"677 50 CURVE SMOOTH",
"574 50 LINE SMOOTH",
"543 50 OFFCURVE",
"524 52 OFFCURVE",
"507 54 CURVE",
"506 63 OFFCURVE",
"504 115 OFFCURVE",
"504 158 CURVE SMOOTH",
"504 482 LINE SMOOTH",
"504 526 OFFCURVE",
"506 599 OFFCURVE",
"507 608 CURVE",
"524 610 OFFCURVE",
"543 612 OFFCURVE",
"574 612 CURVE SMOOTH",
"698 612 LINE SMOOTH",
"711 612 OFFCURVE",
"727 611 OFFCURVE",
"738 609 CURVE",
"752 584 OFFCURVE",
"765 550 OFFCURVE",
"776 514 CURVE",
"824 521 LINE",
"803 664 LINE",
"767 661 OFFCURVE",
"735 660 OFFCURVE",
"701 660 CURVE SMOOTH",
"462 660 LINE SMOOTH",
"429 660 OFFCURVE",
"379 659 OFFCURVE",
"344 661 CURVE",
"342 619 LINE",
"368 617 OFFCURVE",
"406 609 OFFCURVE",
"418 605 CURVE",
"418 167 LINE SMOOTH",
"418 87 OFFCURVE",
"414 61 OFFCURVE",
"410 54 CURVE",
"403 50 OFFCURVE",
"368 40 OFFCURVE",
"342 39 CURVE",
"344 -3 LINE",
"379 0 OFFCURVE",
"429 0 OFFCURVE",
"462 0 CURVE SMOOTH",
"723 0 LINE SMOOTH",
"758 0 OFFCURVE",
"786 -1 OFFCURVE",
"820 -5 CURVE"
);
},
{
closed = 1;
nodes = (
"744 232 LINE",
"742 268 OFFCURVE",
"741 308 OFFCURVE",
"741 340 CURVE SMOOTH",
"741 372 OFFCURVE",
"742 411 OFFCURVE",
"744 447 CURVE",
"698 447 LINE",
"695 424 OFFCURVE",
"690 390 OFFCURVE",
"684 369 CURVE",
"675 366 OFFCURVE",
"657 365 OFFCURVE",
"635 365 CURVE SMOOTH",
"554 365 LINE SMOOTH",
"535 365 OFFCURVE",
"514 366 OFFCURVE",
"487 367 CURVE",
"487 312 LINE",
"514 313 OFFCURVE",
"535 314 OFFCURVE",
"554 314 CURVE SMOOTH",
"635 314 LINE SMOOTH",
"657 314 OFFCURVE",
"675 313 OFFCURVE",
"684 310 CURVE",
"690 289 OFFCURVE",
"695 255 OFFCURVE",
"698 232 CURVE"
);
},
{
closed = 1;
nodes = (
"413 639 LINE",
"39 51 LINE",
"25 46 OFFCURVE",
"5 40 OFFCURVE",
"-16 39 CURVE",
"-14 -3 LINE",
"17 0 OFFCURVE",
"54 1 OFFCURVE",
"80 1 CURVE SMOOTH",
"106 1 OFFCURVE",
"139 0 OFFCURVE",
"174 -3 CURVE",
"176 39 LINE",
"150 40 OFFCURVE",
"119 48 OFFCURVE",
"107 51 CURVE",
"451 609 LINE"
);
},
{
closed = 1;
nodes = (
"233 214 OFFCURVE",
"273 215 OFFCURVE",
"332 215 CURVE SMOOTH",
"391 215 OFFCURVE",
"430 214 OFFCURVE",
"456 211 CURVE",
"456 266 LINE",
"433 264 OFFCURVE",
"391 263 OFFCURVE",
"332 263 CURVE SMOOTH",
"273 263 OFFCURVE",
"230 264 OFFCURVE",
"207 266 CURVE",
"197 212 LINE"
);
}
);
};
color = -1;
layerId = "D75C065C-4EF6-4055-9CF2-70010DBCD897";
paths = (
{
closed = 1;
nodes = (
"744 232 LINE",
"742 268 OFFCURVE",
"741 308 OFFCURVE",
"741 340 CURVE SMOOTH",
"741 372 OFFCURVE",
"742 411 OFFCURVE",
"744 447 CURVE",
"698 447 LINE",
"695 424 OFFCURVE",
"690 390 OFFCURVE",
"684 369 CURVE",
"675 366 OFFCURVE",
"657 365 OFFCURVE",
"635 365 CURVE SMOOTH",
"554 365 LINE SMOOTH",
"535 365 OFFCURVE",
"514 366 OFFCURVE",
"487 367 CURVE",
"487 312 LINE",
"514 313 OFFCURVE",
"535 314 OFFCURVE",
"554 314 CURVE SMOOTH",
"635 314 LINE SMOOTH",
"657 314 OFFCURVE",
"675 313 OFFCURVE",
"684 310 CURVE",
"690 289 OFFCURVE",
"695 255 OFFCURVE",
"698 232 CURVE"
);
},
{
closed = 1;
nodes = (
"224 211 OFFCURVE",
"266 212 OFFCURVE",
"325 212 CURVE SMOOTH",
"384 212 OFFCURVE",
"423 211 OFFCURVE",
"449 208 CURVE",
"449 264 LINE",
"426 262 OFFCURVE",
"384 261 OFFCURVE",
"325 261 CURVE SMOOTH",
"266 261 OFFCURVE",
"223 262 OFFCURVE",
"200 264 CURVE",
"188 209 LINE"
);
},
{
closed = 1;
nodes = (
"790 109 OFFCURVE",
"770 71 OFFCURVE",
"758 54 CURVE",
"747 52 OFFCURVE",
"728 50 OFFCURVE",
"677 50 CURVE SMOOTH",
"574 50 LINE SMOOTH",
"543 50 OFFCURVE",
"524 52 OFFCURVE",
"507 54 CURVE",
"506 63 OFFCURVE",
"504 115 OFFCURVE",
"504 158 CURVE SMOOTH",
"504 482 LINE SMOOTH",
"504 526 OFFCURVE",
"506 599 OFFCURVE",
"507 608 CURVE",
"524 610 OFFCURVE",
"543 612 OFFCURVE",
"574 612 CURVE SMOOTH",
"698 612 LINE SMOOTH",
"711 612 OFFCURVE",
"727 611 OFFCURVE",
"738 609 CURVE",
"752 584 OFFCURVE",
"765 550 OFFCURVE",
"776 514 CURVE",
"824 521 LINE",
"803 664 LINE",
"767 661 OFFCURVE",
"735 660 OFFCURVE",
"701 660 CURVE SMOOTH",
"462 660 LINE SMOOTH",
"429 660 OFFCURVE",
"370 659 OFFCURVE",
"328 661 CURVE",
"326 619 LINE",
"358 617 OFFCURVE",
"401 609 OFFCURVE",
"413 605 CURVE",
"413 644 LINE",
"39 51 LINE",
"25 46 OFFCURVE",
"5 40 OFFCURVE",
"-16 39 CURVE",
"-14 -3 LINE",
"17 0 OFFCURVE",
"59 1 OFFCURVE",
"85 1 CURVE SMOOTH",
"111 1 OFFCURVE",
"144 0 OFFCURVE",
"179 -3 CURVE",
"181 39 LINE",
"155 40 OFFCURVE",
"124 48 OFFCURVE",
"112 51 CURVE",
"449 614 LINE",
"418 590 LINE",
"418 147 LINE SMOOTH",
"418 87 OFFCURVE",
"416 61 OFFCURVE",
"413 54 CURVE",
"405 50 OFFCURVE",
"371 40 OFFCURVE",
"345 39 CURVE",
"347 -3 LINE",
"382 0 OFFCURVE",
"429 0 OFFCURVE",
"462 0 CURVE SMOOTH",
"723 0 LINE SMOOTH",
"758 0 OFFCURVE",
"786 -1 OFFCURVE",
"820 -5 CURVE",
"863 153 LINE",
"815 163 LINE"
);
}
);
width = 897;
},
{
background = {
paths = (
{
closed = 1;
nodes = (
"905 169 LINE",
"845 181 LINE",
"822 134 OFFCURVE",
"803 95 OFFCURVE",
"784 66 CURVE",
"765 63 OFFCURVE",
"752 62 OFFCURVE",
"704 62 CURVE SMOOTH",
"642 62 LINE SMOOTH",
"600 62 OFFCURVE",
"576 64 OFFCURVE",
"551 67 CURVE",
"549 83 OFFCURVE",
"548 133 OFFCURVE",
"548 199 CURVE SMOOTH",
"548 461 LINE SMOOTH",
"548 527 OFFCURVE",
"549 583 OFFCURVE",
"551 598 CURVE",
"570 601 OFFCURVE",
"598 602 OFFCURVE",
"623 602 CURVE SMOOTH",
"708 602 LINE SMOOTH",
"725 602 OFFCURVE",
"739 601 OFFCURVE",
"757 598 CURVE",
"772 569 OFFCURVE",
"782 538 OFFCURVE",
"798 497 CURVE",
"860 505 LINE",
"831 665 LINE",
"793 663 OFFCURVE",
"719 660 OFFCURVE",
"675 660 CURVE SMOOTH",
"480 660 LINE SMOOTH",
"435 660 OFFCURVE",
"355 661 OFFCURVE",
"321 663 CURVE",
"318 607 LINE",
"346 606 OFFCURVE",
"392 599 OFFCURVE",
"403 591 CURVE",
"407 603 OFFCURVE",
"411 527 OFFCURVE",
"411 421 CURVE SMOOTH",
"411 239 LINE SMOOTH",
"411 133 OFFCURVE",
"407 77 OFFCURVE",
"403 69 CURVE",
"392 61 OFFCURVE",
"360 54 OFFCURVE",
"332 51 CURVE",
"335 -5 LINE",
"369 -1 OFFCURVE",
"435 0 OFFCURVE",
"480 0 CURVE SMOOTH",
"713 0 LINE SMOOTH",
"757 0 OFFCURVE",
"818 -3 OFFCURVE",
"856 -6 CURVE"
);
},
{
closed = 1;
nodes = (
"777 226 LINE",
"776 263 OFFCURVE",
"774 304 OFFCURVE",
"774 339 CURVE SMOOTH",
"774 374 OFFCURVE",
"776 412 OFFCURVE",
"777 449 CURVE",
"718 449 LINE",
"715 426 OFFCURVE",
"709 387 OFFCURVE",
"705 374 CURVE",
"696 373 OFFCURVE",
"673 371 OFFCURVE",
"645 371 CURVE SMOOTH",
"589 371 LINE SMOOTH",
"564 371 OFFCURVE",
"541 373 OFFCURVE",
"525 374 CURVE",
"525 303 LINE",
"541 304 OFFCURVE",
"564 306 OFFCURVE",
"589 306 CURVE SMOOTH",
"645 306 LINE SMOOTH",
"673 306 OFFCURVE",
"696 304 OFFCURVE",
"705 303 CURVE",
"709 290 OFFCURVE",
"715 249 OFFCURVE",
"718 226 CURVE"
);
},
{
closed = 1;
nodes = (
"12 0 OFFCURVE",
"54 0 OFFCURVE",
"84 0 CURVE SMOOTH",
"114 0 OFFCURVE",
"156 0 OFFCURVE",
"189 -3 CURVE",
"192 52 LINE",
"164 55 OFFCURVE",
"133 61 OFFCURVE",
"119 64 CURVE",
"448 589 LINE",
"408 634 LINE",
"32 64 LINE",
"20 59 OFFCURVE",
"4 55 OFFCURVE",
"-25 52 CURVE",
"-22 -3 LINE"
);
},
{
closed = 1;
nodes = (
"221 199 OFFCURVE",
"260 201 OFFCURVE",
"322 201 CURVE SMOOTH",
"383 201 OFFCURVE",
"422 199 OFFCURVE",
"450 197 CURVE",
"450 268 LINE",
"422 266 OFFCURVE",
"383 264 OFFCURVE",
"322 264 CURVE SMOOTH",
"260 264 OFFCURVE",
"221 266 OFFCURVE",
"193 268 CURVE",
"193 197 LINE"
);
}
);
};
color = -1;
layerId = "6D340022-02C4-426D-A0D8-A7BFACBEB22E";
paths = (
{
closed = 1;
nodes = (
"777 226 LINE",
"776 263 OFFCURVE",
"774 304 OFFCURVE",
"774 339 CURVE SMOOTH",
"774 374 OFFCURVE",
"776 412 OFFCURVE",
"777 449 CURVE",
"718 449 LINE",
"715 426 OFFCURVE",
"709 387 OFFCURVE",
"705 374 CURVE",
"696 373 OFFCURVE",
"673 371 OFFCURVE",
"645 371 CURVE SMOOTH",
"589 371 LINE SMOOTH",
"564 371 OFFCURVE",
"541 373 OFFCURVE",
"525 374 CURVE",
"525 303 LINE",
"541 304 OFFCURVE",
"564 306 OFFCURVE",
"589 306 CURVE SMOOTH",
"645 306 LINE SMOOTH",
"673 306 OFFCURVE",
"696 304 OFFCURVE",
"705 303 CURVE",
"709 290 OFFCURVE",
"715 249 OFFCURVE",
"718 226 CURVE"
);
},
{
closed = 1;
nodes = (
"201 192 OFFCURVE",
"240 194 OFFCURVE",
"302 194 CURVE SMOOTH",
"363 194 OFFCURVE",
"402 192 OFFCURVE",
"430 190 CURVE",
"430 260 LINE",
"402 258 OFFCURVE",
"363 256 OFFCURVE",
"302 256 CURVE SMOOTH",
"240 256 OFFCURVE",
"221 258 OFFCURVE",
"193 260 CURVE",
"173 190 LINE"
);
},
{
closed = 1;
nodes = (
"822 134 OFFCURVE",
"803 95 OFFCURVE",
"784 66 CURVE",
"765 63 OFFCURVE",
"752 62 OFFCURVE",
"704 62 CURVE SMOOTH",
"642 62 LINE SMOOTH",
"600 62 OFFCURVE",
"576 64 OFFCURVE",
"551 67 CURVE",
"549 83 OFFCURVE",
"548 133 OFFCURVE",
"548 199 CURVE SMOOTH",
"548 461 LINE SMOOTH",
"548 527 OFFCURVE",
"549 583 OFFCURVE",
"551 598 CURVE",
"570 601 OFFCURVE",
"598 602 OFFCURVE",
"623 602 CURVE SMOOTH",
"708 602 LINE SMOOTH",
"725 602 OFFCURVE",
"739 601 OFFCURVE",
"757 598 CURVE",
"772 569 OFFCURVE",
"782 538 OFFCURVE",
"798 497 CURVE",
"860 505 LINE",
"831 665 LINE",
"793 663 OFFCURVE",
"719 660 OFFCURVE",
"675 660 CURVE SMOOTH",
"480 660 LINE SMOOTH",
"435 660 OFFCURVE",
"349 661 OFFCURVE",
"315 663 CURVE",
"312 607 LINE",
"340 606 OFFCURVE",
"386 599 OFFCURVE",
"397 591 CURVE",
"405 633 LINE",
"30 64 LINE",
"18 59 OFFCURVE",
"5 55 OFFCURVE",
"-24 52 CURVE",
"-21 -3 LINE",
"13 0 OFFCURVE",
"52 0 OFFCURVE",
"82 0 CURVE SMOOTH",
"112 0 OFFCURVE",
"153 0 OFFCURVE",
"186 -3 CURVE",
"189 52 LINE",
"161 55 OFFCURVE",
"131 61 OFFCURVE",
"117 64 CURVE",
"448 588 LINE",
"411 572 LINE",
"411 239 LINE",
"411 133 OFFCURVE",
"411 77 OFFCURVE",
"409 69 CURVE",
"396 61 OFFCURVE",
"363 54 OFFCURVE",
"335 51 CURVE",
"338 -5 LINE",
"372 -1 OFFCURVE",
"435 0 OFFCURVE",
"480 0 CURVE SMOOTH",
"713 0 LINE SMOOTH",
"757 0 OFFCURVE",
"818 -3 OFFCURVE",
"856 -6 CURVE",
"905 169 LINE",
"845 181 LINE"
);
}
);
width = 921;
}
);
note = AE;
unicode = 00C6;
},
{
color = 4;
glyphname = B;
lastChange = "2018-05-01 14:46:29 +0000";
layers = (
{
background = {
paths = (
{
closed = 1;
nodes = (
"107 50 OFFCURVE",
"72 40 OFFCURVE",
"46 39 CURVE",
"48 -3 LINE",
"68 -1 OFFCURVE",
"125 2 OFFCURVE",
"179 2 CURVE SMOOTH",
"214 2 OFFCURVE",
"247 -1 OFFCURVE",
"284 -1 CURVE SMOOTH",
"463 -1 OFFCURVE",
"550 82 OFFCURVE",
"550 189 CURVE SMOOTH",
"550 289 OFFCURVE",
"473 352 OFFCURVE",
"339 355 CURVE",
"354 348 LINE",
"461 357 OFFCURVE",
"517 428 OFFCURVE",
"517 503 CURVE SMOOTH",
"517 604 OFFCURVE",
"441 662 OFFCURVE",
"297 662 CURVE SMOOTH",
"237 662 OFFCURVE",
"186 659 OFFCURVE",
"150 659 CURVE SMOOTH",
"115 659 OFFCURVE",
"83 659 OFFCURVE",
"48 660 CURVE",
"46 618 LINE",
"72 619 OFFCURVE",
"107 612 OFFCURVE",
"114 608 CURVE",
"118 601 OFFCURVE",
"122 572 OFFCURVE",
"122 442 CURVE SMOOTH",
"122 217 LINE SMOOTH",
"122 87 OFFCURVE",
"117 60 OFFCURVE",
"114 54 CURVE"
);
},
{
closed = 1;
nodes = (
"210 465 LINE SMOOTH",
"210 558 OFFCURVE",
"210 602 OFFCURVE",
"212 610 CURVE",
"226 614 OFFCURVE",
"252 617 OFFCURVE",
"281 617 CURVE SMOOTH",
"369 617 OFFCURVE",
"423 577 OFFCURVE",
"423 492 CURVE SMOOTH",
"423 415 OFFCURVE",
"373 363 OFFCURVE",
"270 363 CURVE SMOOTH",
"247 363 OFFCURVE",
"219 363 OFFCURVE",
"193 366 CURVE",
"193 313 LINE",
"219 315 OFFCURVE",
"246 316 OFFCURVE",
"292 316 CURVE SMOOTH",
"394 316 OFFCURVE",
"456 271 OFFCURVE",
"456 179 CURVE SMOOTH",
"456 93 OFFCURVE",
"404 46 OFFCURVE",
"298 46 CURVE SMOOTH",
"261 46 OFFCURVE",
"225 51 OFFCURVE",
"212 54 CURVE",
"211 64 OFFCURVE",
"210 123 OFFCURVE",
"210 199 CURVE SMOOTH"
);
}
);
};
color = -1;
layerId = "D75C065C-4EF6-4055-9CF2-70010DBCD897";
paths = (
{
closed = 1;
nodes = (
"107 50 OFFCURVE",
"72 40 OFFCURVE",
"46 39 CURVE",
"48 -3 LINE",
"68 -1 OFFCURVE",
"125 2 OFFCURVE",
"179 2 CURVE SMOOTH",
"214 2 OFFCURVE",
"247 -1 OFFCURVE",
"284 -1 CURVE SMOOTH",
"463 -1 OFFCURVE",
"550 82 OFFCURVE",
"550 189 CURVE SMOOTH",
"550 289 OFFCURVE",
"473 352 OFFCURVE",
"339 355 CURVE",
"354 348 LINE",
"461 357 OFFCURVE",
"517 428 OFFCURVE",
"517 503 CURVE SMOOTH",
"517 604 OFFCURVE",
"441 662 OFFCURVE",
"297 662 CURVE SMOOTH",
"237 662 OFFCURVE",
"186 659 OFFCURVE",
"150 659 CURVE SMOOTH",
"115 659 OFFCURVE",
"83 659 OFFCURVE",
"48 660 CURVE",
"46 618 LINE",
"72 619 OFFCURVE",
"107 612 OFFCURVE",
"114 608 CURVE",
"118 601 OFFCURVE",
"122 572 OFFCURVE",
"122 442 CURVE SMOOTH",
"122 217 LINE SMOOTH",
"122 87 OFFCURVE",
"117 60 OFFCURVE",
"114 54 CURVE"
);
},
{
closed = 1;
nodes = (
"208 465 LINE SMOOTH",
"208 558 OFFCURVE",
"208 602 OFFCURVE",
"210 610 CURVE",
"224 614 OFFCURVE",
"254 617 OFFCURVE",
"283 617 CURVE SMOOTH",
"371 617 OFFCURVE",
"425 577 OFFCURVE",
"425 492 CURVE SMOOTH",
"425 415 OFFCURVE",
"375 363 OFFCURVE",
"272 363 CURVE SMOOTH",
"247 363 OFFCURVE",
"217 363 OFFCURVE",
"191 366 CURVE",
"191 313 LINE",
"217 315 OFFCURVE",
"246 316 OFFCURVE",
"294 316 CURVE SMOOTH",
"396 316 OFFCURVE",
"458 271 OFFCURVE",
"458 179 CURVE SMOOTH",
"458 93 OFFCURVE",
"406 47 OFFCURVE",
"300 47 CURVE SMOOTH",
"263 47 OFFCURVE",
"223 52 OFFCURVE",
"210 55 CURVE",
"209 65 OFFCURVE",
"208 123 OFFCURVE",
"208 199 CURVE SMOOTH"
);
}
);
width = 603;
},
{
background = {
paths = (
{
closed = 1;
nodes = (
"91 61 OFFCURVE",
"59 54 OFFCURVE",
"31 51 CURVE",
"34 -5 LINE",
"68 -1 OFFCURVE",
"155 2 OFFCURVE",
"209 2 CURVE SMOOTH",
"243 2 OFFCURVE",
"281 -2 OFFCURVE",
"317 -2 CURVE SMOOTH",
"503 -2 OFFCURVE",
"604 79 OFFCURVE",
"604 194 CURVE SMOOTH",
"604 286 OFFCURVE",
"544 351 OFFCURVE",
"387 358 CURVE",
"384 350 LINE",
"507 358 OFFCURVE",
"570 428 OFFCURVE",
"570 503 CURVE SMOOTH",
"570 604 OFFCURVE",
"498 662 OFFCURVE",
"339 662 CURVE SMOOTH",
"274 662 OFFCURVE",
"215 659 OFFCURVE",
"179 659 CURVE SMOOTH",
"134 659 OFFCURVE",
"87 659 OFFCURVE",
"34 661 CURVE",
"31 605 LINE",
"59 605 OFFCURVE",
"91 599 OFFCURVE",
"102 591 CURVE",
"106 583 OFFCURVE",
"110 527 OFFCURVE",
"110 421 CURVE SMOOTH",
"110 239 LINE SMOOTH",
"110 133 OFFCURVE",
"106 77 OFFCURVE",
"102 69 CURVE"
);
},
{
closed = 1;
nodes = (
"249 461 LINE SMOOTH",
"249 547 OFFCURVE",
"250 592 OFFCURVE",
"252 600 CURVE",
"262 603 OFFCURVE",
"284 606 OFFCURVE",
"306 606 CURVE SMOOTH",
"373 606 OFFCURVE",
"423 568 OFFCURVE",
"423 489 CURVE SMOOTH",
"423 415 OFFCURVE",
"381 367 OFFCURVE",
"302 367 CURVE SMOOTH",
"280 367 OFFCURVE",
"260 367 OFFCURVE",
"237 369 CURVE",
"237 306 LINE",
"260 308 OFFCURVE",
"280 309 OFFCURVE",
"306 309 CURVE SMOOTH",
"408 309 OFFCURVE",
"456 264 OFFCURVE",
"456 184 CURVE SMOOTH",
"456 102 OFFCURVE",
"409 60 OFFCURVE",
"326 60 CURVE SMOOTH",
"293 60 OFFCURVE",
"263 66 OFFCURVE",
"252 69 CURVE",
"251 79 OFFCURVE",
"249 123 OFFCURVE",
"249 199 CURVE SMOOTH"
);
}
);
};
color = -1;
layerId = "6D340022-02C4-426D-A0D8-A7BFACBEB22E";
paths = (
{
closed = 1;
nodes = (
"91 61 OFFCURVE",
"59 54 OFFCURVE",
"31 51 CURVE",
"34 -5 LINE",
"68 -1 OFFCURVE",
"155 2 OFFCURVE",
"209 2 CURVE SMOOTH",
"243 2 OFFCURVE",
"281 -2 OFFCURVE",
"317 -2 CURVE SMOOTH",
"503 -2 OFFCURVE",
"604 79 OFFCURVE",
"604 194 CURVE SMOOTH",
"604 286 OFFCURVE",
"544 351 OFFCURVE",
"387 358 CURVE",
"384 350 LINE",
"507 358 OFFCURVE",
"570 428 OFFCURVE",
"570 503 CURVE SMOOTH",
"570 605 OFFCURVE",
"498 663 OFFCURVE",
"339 663 CURVE SMOOTH",
"274 663 OFFCURVE",
"215 660 OFFCURVE",
"179 660 CURVE SMOOTH",
"134 660 OFFCURVE",
"87 659 OFFCURVE",
"34 661 CURVE",
"31 605 LINE",
"59 605 OFFCURVE",
"91 599 OFFCURVE",
"102 591 CURVE",
"106 583 OFFCURVE",
"110 527 OFFCURVE",
"110 421 CURVE SMOOTH",
"110 239 LINE SMOOTH",
"110 133 OFFCURVE",
"106 77 OFFCURVE",
"102 69 CURVE"
);
},
{
closed = 1;
nodes = (
"249 461 LINE SMOOTH",
"249 548 OFFCURVE",
"250 592 OFFCURVE",
"252 600 CURVE",
"262 603 OFFCURVE",
"284 606 OFFCURVE",
"306 606 CURVE SMOOTH",
"373 606 OFFCURVE",
"423 568 OFFCURVE",
"423 489 CURVE SMOOTH",
"423 415 OFFCURVE",
"381 369 OFFCURVE",
"302 369 CURVE SMOOTH",
"280 369 OFFCURVE",
"260 369 OFFCURVE",
"237 371 CURVE",
"237 303 LINE",
"260 305 OFFCURVE",
"280 306 OFFCURVE",
"306 306 CURVE SMOOTH",
"408 306 OFFCURVE",
"456 263 OFFCURVE",
"456 184 CURVE SMOOTH",
"456 102 OFFCURVE",
"409 60 OFFCURVE",
"326 60 CURVE SMOOTH",
"293 60 OFFCURVE",
"263 66 OFFCURVE",
"252 69 CURVE",
"251 79 OFFCURVE",
"249 123 OFFCURVE",
"249 199 CURVE SMOOTH"
);
}
);
width = 652;
}
);
leftKerningGroup = B;
note = B;
rightKerningGroup = B;
unicode = 0042;
},
{
color = 4;
glyphname = C;
lastChange = "2018-05-03 20:40:35 +0000";
layers = (
{
anchors = (
{
name = bottom;
position = "{361, 0}";
},
{
name = top;
position = "{361, 660}";
}
);
background = {
paths = (
{
closed = 1;
nodes = (
"487 -10 OFFCURVE",
"560 10 OFFCURVE",
"611 37 CURVE",
"623 81 OFFCURVE",
"634 130 OFFCURVE",
"642 176 CURVE",
"594 181 LINE",
"575 135 OFFCURVE",
"561 106 OFFCURVE",
"543 74 CURVE",
"507 54 OFFCURVE",
"470 44 OFFCURVE",
"420 44 CURVE SMOOTH",
"281 44 OFFCURVE",
"169 147 OFFCURVE",
"169 341 CURVE SMOOTH",
"169 488 OFFCURVE",
"240 618 OFFCURVE",
"415 618 CURVE SMOOTH",
"458 618 OFFCURVE",
"514 607 OFFCURVE",
"542 586 CURVE",
"556 553 OFFCURVE",
"566 518 OFFCURVE",
"575 483 CURVE",
"622 487 LINE",
"614 636 LINE",
"561 658 OFFCURVE",
"484 670 OFFCURVE",
"425 670 CURVE SMOOTH",
"190 670 OFFCURVE",
"60 505 OFFCURVE",
"60 326 CURVE SMOOTH",
"60 101 OFFCURVE",
"221 -10 OFFCURVE",
"412 -10 CURVE SMOOTH"
);
}
);
};
color = -1;
layerId = "D75C065C-4EF6-4055-9CF2-70010DBCD897";
paths = (
{
closed = 1;
nodes = (
"487 -10 OFFCURVE",
"558 10 OFFCURVE",
"611 37 CURVE",
"623 81 OFFCURVE",
"634 130 OFFCURVE",
"642 176 CURVE",
"594 181 LINE",
"575 135 OFFCURVE",
"561 106 OFFCURVE",
"543 74 CURVE",
"507 54 OFFCURVE",
"470 44 OFFCURVE",
"420 44 CURVE SMOOTH",
"280 44 OFFCURVE",
"167 147 OFFCURVE",
"167 341 CURVE SMOOTH",
"167 488 OFFCURVE",
"239 618 OFFCURVE",
"415 618 CURVE SMOOTH",
"458 618 OFFCURVE",
"514 607 OFFCURVE",
"542 586 CURVE",
"556 553 OFFCURVE",
"566 518 OFFCURVE",
"575 483 CURVE",
"622 487 LINE",
"614 636 LINE",
"560 658 OFFCURVE",
"484 670 OFFCURVE",
"424 670 CURVE SMOOTH",
"190 670 OFFCURVE",
"60 505 OFFCURVE",
"60 326 CURVE SMOOTH",
"60 101 OFFCURVE",
"221 -10 OFFCURVE",
"412 -10 CURVE SMOOTH"
);
}
);
width = 675;
},
{
anchors = (
{
name = bottom;
position = "{365, 0}";
},
{
name = top;
position = "{365, 660}";
}
);
background = {
paths = (
{
closed = 1;
nodes = (
"502 -10 OFFCURVE",
"585 15 OFFCURVE",
"630 44 CURVE",
"643 93 OFFCURVE",
"653 142 OFFCURVE",
"661 191 CURVE",
"596 200 LINE",
"584 165 OFFCURVE",
"572 131 OFFCURVE",
"555 96 CURVE",
"527 73 OFFCURVE",
"482 61 OFFCURVE",
"442 61 CURVE SMOOTH",
"318 61 OFFCURVE",
"219 165 OFFCURVE",
"219 354 CURVE SMOOTH",
"219 494 OFFCURVE",
"291 602 OFFCURVE",
"431 602 CURVE SMOOTH",
"461 602 OFFCURVE",
"503 595 OFFCURVE",
"535 577 CURVE",
"550 540 OFFCURVE",
"562 501 OFFCURVE",
"574 463 CURVE",
"633 466 LINE",
"625 633 LINE",
"580 655 OFFCURVE",
"507 670 OFFCURVE",
"443 670 CURVE SMOOTH",
"213 670 OFFCURVE",
"55 527 OFFCURVE",
"55 320 CURVE SMOOTH",
"55 107 OFFCURVE",
"207 -10 OFFCURVE",
"419 -10 CURVE SMOOTH"
);
}
);
};
color = -1;
layerId = "6D340022-02C4-426D-A0D8-A7BFACBEB22E";
paths = (
{
closed = 1;
nodes = (
"503 -10 OFFCURVE",
"588 15 OFFCURVE",
"635 44 CURVE",
"648 93 OFFCURVE",
"658 142 OFFCURVE",
"667 191 CURVE",
"596 198 LINE",
"583 165 OFFCURVE",
"571 131 OFFCURVE",
"554 96 CURVE",
"528 73 OFFCURVE",
"481 61 OFFCURVE",
"442 61 CURVE SMOOTH",
"318 61 OFFCURVE",
"219 165 OFFCURVE",
"219 354 CURVE SMOOTH",
"219 494 OFFCURVE",
"291 602 OFFCURVE",
"431 602 CURVE SMOOTH",
"469 602 OFFCURVE",
"508 593 OFFCURVE",
"536 577 CURVE",
"551 540 OFFCURVE",
"563 501 OFFCURVE",
"575 463 CURVE",
"639 467 LINE",
"631 633 LINE",
"583 655 OFFCURVE",
"508 670 OFFCURVE",
"443 670 CURVE SMOOTH",
"212 670 OFFCURVE",
"54 527 OFFCURVE",
"54 320 CURVE SMOOTH",
"54 107 OFFCURVE",
"206 -10 OFFCURVE",
"419 -10 CURVE SMOOTH"
);
}
);
width = 689;
}
);
leftKerningGroup = C;
note = C;
rightKerningGroup = C;
unicode = 0043;
},
{
color = 4;
glyphname = D;
lastChange = "2018-05-01 14:46:29 +0000";
layers = (
{
background = {
paths = (
{
closed = 1;
nodes = (
"45 618 LINE",
"71 619 OFFCURVE",
"106 612 OFFCURVE",
"113 608 CURVE",
"117 601 OFFCURVE",
"121 572 OFFCURVE",
"121 442 CURVE SMOOTH",
"121 217 LINE SMOOTH",
"121 87 OFFCURVE",
"116 60 OFFCURVE",
"113 54 CURVE",
"106 50 OFFCURVE",
"71 40 OFFCURVE",
"45 39 CURVE",
"47 -3 LINE",
"67 -1 OFFCURVE",
"150 2 OFFCURVE",
"188 2 CURVE SMOOTH",
"229 2 OFFCURVE",
"285 -1 OFFCURVE",
"328 -1 CURVE SMOOTH",
"527 -1 OFFCURVE",
"691 124 OFFCURVE",
"691 333 CURVE SMOOTH",
"691 532 OFFCURVE",
"557 661 OFFCURVE",
"313 661 CURVE SMOOTH",
"254 661 OFFCURVE",
"197 658 OFFCURVE",
"155 658 CURVE SMOOTH",
"122 658 OFFCURVE",
"82 659 OFFCURVE",
"47 660 CURVE"
);
},
{
closed = 1;
nodes = (
"237 611 OFFCURVE",
"269 614 OFFCURVE",
"301 614 CURVE SMOOTH",
"493 614 OFFCURVE",
"587 493 OFFCURVE",
"587 308 CURVE SMOOTH",
"587 142 OFFCURVE",
"495 50 OFFCURVE",
"335 50 CURVE SMOOTH",
"285 50 OFFCURVE",
"251 53 OFFCURVE",
"217 60 CURVE",
"212 79 OFFCURVE",
"209 111 OFFCURVE",
"209 217 CURVE SMOOTH",
"209 442 LINE SMOOTH",
"209 553 OFFCURVE",
"210 581 OFFCURVE",
"213 604 CURVE"
);
}
);
};
color = -1;
layerId = "D75C065C-4EF6-4055-9CF2-70010DBCD897";
paths = (
{
closed = 1;
nodes = (
"45 618 LINE",
"71 619 OFFCURVE",
"106 612 OFFCURVE",
"113 608 CURVE",
"117 601 OFFCURVE",
"121 572 OFFCURVE",
"121 442 CURVE SMOOTH",
"121 217 LINE SMOOTH",
"121 87 OFFCURVE",
"116 60 OFFCURVE",
"113 54 CURVE",
"106 50 OFFCURVE",
"71 40 OFFCURVE",
"45 39 CURVE",
"47 -3 LINE",
"67 -1 OFFCURVE",
"150 2 OFFCURVE",
"188 2 CURVE SMOOTH",
"229 2 OFFCURVE",
"285 -1 OFFCURVE",
"328 -1 CURVE SMOOTH",
"527 -1 OFFCURVE",
"691 124 OFFCURVE",
"691 333 CURVE SMOOTH",
"691 533 OFFCURVE",
"557 661 OFFCURVE",
"313 661 CURVE SMOOTH",
"254 661 OFFCURVE",
"197 658 OFFCURVE",
"155 658 CURVE SMOOTH",
"122 658 OFFCURVE",
"82 659 OFFCURVE",
"47 660 CURVE"
);
},
{
closed = 1;
nodes = (
"235 611 OFFCURVE",
"269 614 OFFCURVE",
"301 614 CURVE SMOOTH",
"493 614 OFFCURVE",
"587 493 OFFCURVE",
"587 308 CURVE SMOOTH",
"587 142 OFFCURVE",
"495 51 OFFCURVE",
"335 51 CURVE SMOOTH",
"285 51 OFFCURVE",
"249 54 OFFCURVE",
"215 61 CURVE",
"210 80 OFFCURVE",
"207 112 OFFCURVE",
"207 217 CURVE SMOOTH",
"207 442 LINE SMOOTH",
"207 553 OFFCURVE",
"208 581 OFFCURVE",
"211 604 CURVE"
);
}
);
width = 750;
},
{
background = {
paths = (
{
closed = 1;
nodes = (
"30 605 LINE",
"58 604 OFFCURVE",
"90 599 OFFCURVE",
"101 591 CURVE",
"105 583 OFFCURVE",
"109 527 OFFCURVE",
"109 421 CURVE SMOOTH",
"109 239 LINE SMOOTH",
"109 133 OFFCURVE",
"105 77 OFFCURVE",
"101 69 CURVE",
"90 61 OFFCURVE",
"58 54 OFFCURVE",
"30 51 CURVE",
"33 -5 LINE",
"67 -1 OFFCURVE",
"140 2 OFFCURVE",
"216 2 CURVE SMOOTH",
"262 2 OFFCURVE",
"307 -1 OFFCURVE",
"355 -1 CURVE SMOOTH",
"543 -1 OFFCURVE",
"718 122 OFFCURVE",
"718 339 CURVE SMOOTH",
"718 538 OFFCURVE",
"575 661 OFFCURVE",
"343 661 CURVE SMOOTH",
"288 661 OFFCURVE",
"220 659 OFFCURVE",
"172 659 CURVE SMOOTH",
"127 659 OFFCURVE",
"67 659 OFFCURVE",
"33 661 CURVE"
);
},
{
closed = 1;
nodes = (
"271 595 OFFCURVE",
"295 598 OFFCURVE",
"328 598 CURVE SMOOTH",
"457 598 OFFCURVE",
"562 499 OFFCURVE",
"562 297 CURVE SMOOTH",
"562 139 OFFCURVE",
"489 66 OFFCURVE",
"361 66 CURVE SMOOTH",
"328 66 OFFCURVE",
"284 71 OFFCURVE",
"255 76 CURVE",
"252 90 OFFCURVE",
"247 143 OFFCURVE",
"247 239 CURVE SMOOTH",
"247 421 LINE SMOOTH",
"247 524 OFFCURVE",
"250 573 OFFCURVE",
"252 590 CURVE"
);
}
);
};
color = -1;
layerId = "6D340022-02C4-426D-A0D8-A7BFACBEB22E";
paths = (
{
closed = 1;
nodes = (
"30 605 LINE",
"58 604 OFFCURVE",
"90 599 OFFCURVE",
"101 591 CURVE",
"105 583 OFFCURVE",
"109 527 OFFCURVE",
"109 421 CURVE SMOOTH",
"109 239 LINE SMOOTH",
"109 133 OFFCURVE",
"105 77 OFFCURVE",
"101 69 CURVE",
"90 61 OFFCURVE",
"58 54 OFFCURVE",
"30 51 CURVE",
"33 -5 LINE",
"67 -1 OFFCURVE",
"140 2 OFFCURVE",
"216 2 CURVE SMOOTH",
"262 2 OFFCURVE",
"307 -1 OFFCURVE",
"355 -1 CURVE SMOOTH",
"543 -1 OFFCURVE",
"718 122 OFFCURVE",
"718 339 CURVE SMOOTH",
"718 538 OFFCURVE",
"575 661 OFFCURVE",
"343 661 CURVE SMOOTH",
"288 661 OFFCURVE",
"220 659 OFFCURVE",
"172 659 CURVE SMOOTH",
"127 659 OFFCURVE",
"67 659 OFFCURVE",
"33 661 CURVE"
);
},
{
closed = 1;
nodes = (
"271 595 OFFCURVE",
"295 598 OFFCURVE",
"328 598 CURVE SMOOTH",
"457 598 OFFCURVE",
"562 499 OFFCURVE",
"562 297 CURVE SMOOTH",
"562 139 OFFCURVE",
"489 68 OFFCURVE",
"361 68 CURVE SMOOTH",
"328 68 OFFCURVE",
"284 73 OFFCURVE",
"255 78 CURVE",
"252 92 OFFCURVE",
"247 145 OFFCURVE",
"247 239 CURVE SMOOTH",
"247 421 LINE SMOOTH",
"247 524 OFFCURVE",
"250 573 OFFCURVE",
"252 590 CURVE"
);
}
);
width = 771;
}
);
leftKerningGroup = B;
note = D;
rightKerningGroup = D;
unicode = 0044;
},
{
color = 4;
glyphname = E;
lastChange = "2018-05-01 14:46:29 +0000";
layers = (
{
background = {
paths = (
{
closed = 1;
nodes = (
"577 153 LINE",
"529 163 LINE",
"504 109 OFFCURVE",
"484 71 OFFCURVE",
"472 54 CURVE",
"461 52 OFFCURVE",
"442 50 OFFCURVE",
"391 50 CURVE SMOOTH",
"279 50 LINE SMOOTH",
"248 50 OFFCURVE",
"229 52 OFFCURVE",
"212 54 CURVE",
"211 63 OFFCURVE",
"209 115 OFFCURVE",
"209 158 CURVE SMOOTH",
"209 482 LINE SMOOTH",
"209 526 OFFCURVE",
"211 599 OFFCURVE",
"212 608 CURVE",
"229 610 OFFCURVE",
"248 612 OFFCURVE",
"279 612 CURVE SMOOTH",
"412 612 LINE SMOOTH",
"425 612 OFFCURVE",
"441 611 OFFCURVE",
"452 609 CURVE",
"466 584 OFFCURVE",
"479 550 OFFCURVE",
"490 514 CURVE",
"538 521 LINE",
"517 664 LINE",
"481 661 OFFCURVE",
"449 660 OFFCURVE",
"415 660 CURVE SMOOTH",
"165 660 LINE SMOOTH",
"132 660 OFFCURVE",
"82 659 OFFCURVE",
"47 661 CURVE",
"45 619 LINE",
"71 617 OFFCURVE",
"106 609 OFFCURVE",
"113 605 CURVE",
"117 598 OFFCURVE",
"121 572 OFFCURVE",
"121 442 CURVE SMOOTH",
"121 217 LINE SMOOTH",
"121 87 OFFCURVE",
"117 61 OFFCURVE",
"113 54 CURVE",
"106 50 OFFCURVE",
"71 40 OFFCURVE",
"45 39 CURVE",
"47 -3 LINE",
"82 0 OFFCURVE",
"132 0 OFFCURVE",
"165 0 CURVE SMOOTH",
"437 0 LINE SMOOTH",
"472 0 OFFCURVE",
"500 -1 OFFCURVE",
"534 -5 CURVE"
);
},
{
closed = 1;
nodes = (
"458 232 LINE",
"456 268 OFFCURVE",
"455 308 OFFCURVE",
"455 340 CURVE SMOOTH",
"455 372 OFFCURVE",
"456 411 OFFCURVE",
"458 447 CURVE",
"412 447 LINE",
"409 424 OFFCURVE",
"404 390 OFFCURVE",
"398 369 CURVE",
"389 366 OFFCURVE",
"371 365 OFFCURVE",
"349 365 CURVE SMOOTH",
"259 365 LINE SMOOTH",
"240 365 OFFCURVE",
"219 366 OFFCURVE",
"202 367 CURVE",
"202 312 LINE",
"219 313 OFFCURVE",
"240 314 OFFCURVE",
"259 314 CURVE SMOOTH",
"349 314 LINE SMOOTH",
"371 314 OFFCURVE",
"389 313 OFFCURVE",
"398 310 CURVE",
"404 289 OFFCURVE",
"409 255 OFFCURVE",
"412 232 CURVE"
);
}
);
};
color = -1;
layerId = "D75C065C-4EF6-4055-9CF2-70010DBCD897";
paths = (
{
closed = 1;
nodes = (
"576 153 LINE",
"528 163 LINE",
"503 109 OFFCURVE",
"483 71 OFFCURVE",
"471 54 CURVE",
"460 52 OFFCURVE",
"441 50 OFFCURVE",
"390 50 CURVE SMOOTH",
"277 50 LINE SMOOTH",
"246 50 OFFCURVE",
"227 52 OFFCURVE",
"210 54 CURVE",
"209 63 OFFCURVE",
"207 115 OFFCURVE",
"207 158 CURVE SMOOTH",
"207 482 LINE SMOOTH",
"207 526 OFFCURVE",
"209 599 OFFCURVE",
"210 608 CURVE",
"227 610 OFFCURVE",
"246 612 OFFCURVE",
"277 612 CURVE SMOOTH",
"411 612 LINE SMOOTH",
"424 612 OFFCURVE",
"440 611 OFFCURVE",
"451 609 CURVE",
"465 584 OFFCURVE",
"478 550 OFFCURVE",
"489 514 CURVE",
"537 521 LINE",
"516 664 LINE",
"480 661 OFFCURVE",
"448 660 OFFCURVE",
"414 660 CURVE SMOOTH",
"165 660 LINE SMOOTH",
"132 660 OFFCURVE",
"82 659 OFFCURVE",
"47 661 CURVE",
"45 619 LINE",
"71 617 OFFCURVE",
"106 609 OFFCURVE",
"113 605 CURVE",
"117 598 OFFCURVE",
"121 572 OFFCURVE",
"121 442 CURVE SMOOTH",
"121 217 LINE SMOOTH",
"121 87 OFFCURVE",
"117 61 OFFCURVE",
"113 54 CURVE",
"106 50 OFFCURVE",
"71 40 OFFCURVE",
"45 39 CURVE",
"47 -3 LINE",
"82 0 OFFCURVE",
"132 0 OFFCURVE",
"165 0 CURVE SMOOTH",
"436 0 LINE SMOOTH",
"471 0 OFFCURVE",
"499 -1 OFFCURVE",
"533 -5 CURVE"
);
},
{
closed = 1;
nodes = (
"457 232 LINE",
"455 268 OFFCURVE",
"454 308 OFFCURVE",
"454 340 CURVE SMOOTH",
"454 372 OFFCURVE",
"455 411 OFFCURVE",
"457 447 CURVE",
"411 447 LINE",
"408 424 OFFCURVE",
"403 390 OFFCURVE",
"397 369 CURVE",
"388 366 OFFCURVE",
"370 365 OFFCURVE",
"348 365 CURVE SMOOTH",
"257 365 LINE SMOOTH",
"238 365 OFFCURVE",
"217 366 OFFCURVE",
"190 367 CURVE",
"190 312 LINE",
"217 313 OFFCURVE",
"238 314 OFFCURVE",
"257 314 CURVE SMOOTH",
"348 314 LINE SMOOTH",
"370 314 OFFCURVE",
"388 313 OFFCURVE",
"397 310 CURVE",
"403 289 OFFCURVE",
"408 255 OFFCURVE",
"411 232 CURVE"
);
}
);
width = 610;
},
{
background = {
paths = (
{
closed = 1;
nodes = (
"613 169 LINE",
"553 181 LINE",
"530 134 OFFCURVE",
"511 95 OFFCURVE",
"492 66 CURVE",
"473 63 OFFCURVE",
"460 62 OFFCURVE",
"412 62 CURVE SMOOTH",
"340 62 LINE SMOOTH",
"298 62 OFFCURVE",
"274 64 OFFCURVE",
"249 67 CURVE",
"247 83 OFFCURVE",
"246 133 OFFCURVE",
"246 199 CURVE SMOOTH",
"246 461 LINE SMOOTH",
"246 527 OFFCURVE",
"247 583 OFFCURVE",
"249 598 CURVE",
"268 601 OFFCURVE",
"296 602 OFFCURVE",
"321 602 CURVE SMOOTH",
"416 602 LINE SMOOTH",
"433 602 OFFCURVE",
"447 601 OFFCURVE",
"465 598 CURVE",
"480 569 OFFCURVE",
"490 538 OFFCURVE",
"506 497 CURVE",
"568 505 LINE",
"539 665 LINE",
"501 663 OFFCURVE",
"427 660 OFFCURVE",
"383 660 CURVE SMOOTH",
"178 660 LINE SMOOTH",
"133 660 OFFCURVE",
"67 661 OFFCURVE",
"33 663 CURVE",
"30 607 LINE",
"58 606 OFFCURVE",
"90 599 OFFCURVE",
"101 591 CURVE",
"105 583 OFFCURVE",
"109 527 OFFCURVE",
"109 421 CURVE SMOOTH",
"109 239 LINE SMOOTH",
"109 133 OFFCURVE",
"105 77 OFFCURVE",
"101 69 CURVE",
"90 61 OFFCURVE",
"58 54 OFFCURVE",
"30 51 CURVE",
"33 -5 LINE",
"67 -1 OFFCURVE",
"133 0 OFFCURVE",
"178 0 CURVE SMOOTH",
"421 0 LINE SMOOTH",
"465 0 OFFCURVE",
"526 -3 OFFCURVE",
"564 -6 CURVE"
);
},
{
closed = 1;
nodes = (
"485 226 LINE",
"484 263 OFFCURVE",
"482 304 OFFCURVE",
"482 339 CURVE SMOOTH",
"482 374 OFFCURVE",
"484 412 OFFCURVE",
"485 449 CURVE",
"426 449 LINE",
"423 426 OFFCURVE",
"417 387 OFFCURVE",
"413 374 CURVE",
"404 373 OFFCURVE",
"381 371 OFFCURVE",
"353 371 CURVE SMOOTH",
"287 371 LINE SMOOTH",
"262 371 OFFCURVE",
"239 373 OFFCURVE",
"223 374 CURVE",
"223 303 LINE",
"239 304 OFFCURVE",
"262 306 OFFCURVE",
"287 306 CURVE SMOOTH",
"353 306 LINE SMOOTH",
"381 306 OFFCURVE",
"404 304 OFFCURVE",
"413 303 CURVE",
"417 290 OFFCURVE",
"423 249 OFFCURVE",
"426 226 CURVE"
);
}
);
};
color = -1;
layerId = "6D340022-02C4-426D-A0D8-A7BFACBEB22E";
paths = (
{
closed = 1;
nodes = (
"613 169 LINE",
"553 181 LINE",
"530 134 OFFCURVE",
"511 95 OFFCURVE",
"492 66 CURVE",
"473 63 OFFCURVE",
"460 62 OFFCURVE",
"412 62 CURVE SMOOTH",
"340 62 LINE SMOOTH",
"298 62 OFFCURVE",
"274 64 OFFCURVE",
"249 67 CURVE",
"247 83 OFFCURVE",
"246 133 OFFCURVE",
"246 199 CURVE SMOOTH",
"246 461 LINE SMOOTH",
"246 527 OFFCURVE",
"247 583 OFFCURVE",
"249 598 CURVE",
"268 601 OFFCURVE",
"296 602 OFFCURVE",
"321 602 CURVE SMOOTH",
"416 602 LINE SMOOTH",
"433 602 OFFCURVE",
"447 601 OFFCURVE",
"465 598 CURVE",
"480 569 OFFCURVE",
"490 538 OFFCURVE",
"506 497 CURVE",
"568 505 LINE",
"539 665 LINE",
"501 663 OFFCURVE",
"427 660 OFFCURVE",
"383 660 CURVE SMOOTH",
"178 660 LINE SMOOTH",
"133 660 OFFCURVE",
"67 661 OFFCURVE",
"33 663 CURVE",
"30 607 LINE",
"58 606 OFFCURVE",
"90 599 OFFCURVE",
"101 591 CURVE",
"105 583 OFFCURVE",
"109 527 OFFCURVE",
"109 421 CURVE SMOOTH",
"109 239 LINE SMOOTH",
"109 133 OFFCURVE",
"105 77 OFFCURVE",
"101 69 CURVE",
"90 61 OFFCURVE",
"58 54 OFFCURVE",
"30 51 CURVE",
"33 -5 LINE",
"67 -1 OFFCURVE",
"133 0 OFFCURVE",
"178 0 CURVE SMOOTH",
"421 0 LINE SMOOTH",
"465 0 OFFCURVE",
"526 -3 OFFCURVE",
"564 -6 CURVE"
);
},
{
closed = 1;
nodes = (
"485 226 LINE",
"484 263 OFFCURVE",
"482 304 OFFCURVE",
"482 339 CURVE SMOOTH",
"482 374 OFFCURVE",
"484 412 OFFCURVE",
"485 449 CURVE",
"426 449 LINE",
"423 426 OFFCURVE",
"417 387 OFFCURVE",
"413 374 CURVE",
"404 373 OFFCURVE",
"381 371 OFFCURVE",
"353 371 CURVE SMOOTH",
"287 371 LINE SMOOTH",
"262 371 OFFCURVE",
"239 373 OFFCURVE",
"223 374 CURVE",
"223 303 LINE",
"239 304 OFFCURVE",
"262 306 OFFCURVE",
"287 306 CURVE SMOOTH",
"353 306 LINE SMOOTH",
"381 306 OFFCURVE",
"404 304 OFFCURVE",
"413 303 CURVE",
"417 290 OFFCURVE",
"423 249 OFFCURVE",
"426 226 CURVE"
);
}
);
width = 629;
}
);
leftKerningGroup = B;
note = E;
rightKerningGroup = E;
unicode = 0045;
},
{
color = 4;
glyphname = F;
lastChange = "2018-05-01 14:46:29 +0000";
layers = (
{
background = {
paths = (
{
closed = 1;
nodes = (
"85 0 OFFCURVE",
"143 2 OFFCURVE",
"176 2 CURVE SMOOTH",
"209 2 OFFCURVE",
"268 0 OFFCURVE",
"303 -3 CURVE",
"305 41 LINE",
"277 44 OFFCURVE",
"226 53 OFFCURVE",
"217 54 CURVE",
"213 61 OFFCURVE",
"209 87 OFFCURVE",
"209 217 CURVE SMOOTH",
"209 482 LINE SMOOTH",
"209 526 OFFCURVE",
"211 599 OFFCURVE",
"212 608 CURVE",
"228 610 OFFCURVE",
"259 612 OFFCURVE",
"280 612 CURVE SMOOTH",
"395 612 LINE SMOOTH",
"408 612 OFFCURVE",
"424 611 OFFCURVE",
"435 609 CURVE",
"449 584 OFFCURVE",
"462 550 OFFCURVE",
"473 514 CURVE",
"521 521 LINE",
"500 664 LINE",
"464 661 OFFCURVE",
"432 660 OFFCURVE",
"398 660 CURVE SMOOTH",
"166 660 LINE SMOOTH",
"133 660 OFFCURVE",
"83 660 OFFCURVE",
"48 661 CURVE",
"46 619 LINE",
"72 618 OFFCURVE",
"107 609 OFFCURVE",
"114 605 CURVE",
"118 598 OFFCURVE",
"122 572 OFFCURVE",
"122 442 CURVE SMOOTH",
"122 217 LINE SMOOTH",
"122 87 OFFCURVE",
"118 61 OFFCURVE",
"114 54 CURVE",
"107 50 OFFCURVE",
"74 40 OFFCURVE",
"51 39 CURVE",
"53 -3 LINE"
);
},
{
closed = 1;
nodes = (
"441 222 LINE",
"439 260 OFFCURVE",
"438 302 OFFCURVE",
"438 334 CURVE SMOOTH",
"438 366 OFFCURVE",
"439 405 OFFCURVE",
"441 441 CURVE",
"395 441 LINE",
"392 418 OFFCURVE",
"387 384 OFFCURVE",
"381 363 CURVE",
"372 360 OFFCURVE",
"354 359 OFFCURVE",
"332 359 CURVE SMOOTH",
"242 359 LINE SMOOTH",
"223 359 OFFCURVE",
"202 360 OFFCURVE",
"185 361 CURVE",
"185 306 LINE",
"202 307 OFFCURVE",
"223 308 OFFCURVE",
"242 308 CURVE SMOOTH",
"332 308 LINE SMOOTH",
"354 308 OFFCURVE",
"372 307 OFFCURVE",
"381 304 CURVE",
"387 283 OFFCURVE",
"392 247 OFFCURVE",
"395 222 CURVE"
);
}
);
};
color = -1;
layerId = "D75C065C-4EF6-4055-9CF2-70010DBCD897";
paths = (
{
closed = 1;
nodes = (
"85 0 OFFCURVE",
"143 2 OFFCURVE",
"176 2 CURVE SMOOTH",
"209 2 OFFCURVE",
"268 0 OFFCURVE",
"303 -3 CURVE",
"305 41 LINE",
"277 44 OFFCURVE",
"224 53 OFFCURVE",
"215 54 CURVE",
"211 61 OFFCURVE",
"207 87 OFFCURVE",
"207 217 CURVE SMOOTH",
"207 482 LINE SMOOTH",
"207 526 OFFCURVE",
"209 599 OFFCURVE",
"210 608 CURVE",
"226 610 OFFCURVE",
"257 612 OFFCURVE",
"278 612 CURVE SMOOTH",
"405 612 LINE SMOOTH",
"418 612 OFFCURVE",
"434 611 OFFCURVE",
"445 609 CURVE",
"459 584 OFFCURVE",
"472 550 OFFCURVE",
"483 514 CURVE",
"531 521 LINE",
"510 664 LINE",
"474 661 OFFCURVE",
"442 660 OFFCURVE",
"408 660 CURVE SMOOTH",
"166 660 LINE SMOOTH",
"133 660 OFFCURVE",
"83 660 OFFCURVE",
"48 661 CURVE",
"46 619 LINE",
"72 618 OFFCURVE",
"107 609 OFFCURVE",
"114 605 CURVE",
"118 598 OFFCURVE",
"122 572 OFFCURVE",
"122 442 CURVE SMOOTH",
"122 217 LINE SMOOTH",
"122 87 OFFCURVE",
"118 61 OFFCURVE",
"114 54 CURVE",
"107 50 OFFCURVE",
"74 40 OFFCURVE",
"51 39 CURVE",
"53 -3 LINE"
);
},
{
closed = 1;
nodes = (
"451 222 LINE",
"449 260 OFFCURVE",
"448 302 OFFCURVE",
"448 334 CURVE SMOOTH",
"448 366 OFFCURVE",
"449 405 OFFCURVE",
"451 441 CURVE",
"405 441 LINE",
"402 418 OFFCURVE",
"397 384 OFFCURVE",
"391 363 CURVE",
"382 360 OFFCURVE",
"364 359 OFFCURVE",
"342 359 CURVE SMOOTH",
"242 359 LINE SMOOTH",
"223 359 OFFCURVE",
"202 360 OFFCURVE",
"185 361 CURVE",
"185 306 LINE",
"202 307 OFFCURVE",
"223 308 OFFCURVE",
"242 308 CURVE SMOOTH",
"342 308 LINE SMOOTH",
"364 308 OFFCURVE",
"382 307 OFFCURVE",
"391 304 CURVE",
"397 283 OFFCURVE",
"402 247 OFFCURVE",
"405 222 CURVE"
);
}
);
width = 569;
},
{
background = {
paths = (
{
closed = 1;
nodes = (
"870 -1 OFFCURVE",
"943 0 OFFCURVE",
"988 0 CURVE SMOOTH",
"1033 0 OFFCURVE",
"1108 -1 OFFCURVE",
"1142 -5 CURVE",
"1145 53 LINE",
"1117 56 OFFCURVE",
"1081 62 OFFCURVE",
"1054 69 CURVE",
"1050 77 OFFCURVE",
"1046 133 OFFCURVE",
"1046 199 CURVE SMOOTH",
"1046 461 LINE SMOOTH",
"1046 527 OFFCURVE",
"1046 581 OFFCURVE",
"1047 596 CURVE",
"1063 600 OFFCURVE",
"1091 602 OFFCURVE",
"1116 602 CURVE SMOOTH",
"1170 602 LINE SMOOTH",
"1235 602 OFFCURVE",
"1273 577 OFFCURVE",
"1300 497 CURVE",
"1352 505 LINE",
"1320 665 LINE",
"1282 663 OFFCURVE",
"1206 660 OFFCURVE",
"1162 660 CURVE SMOOTH",
"979 660 LINE SMOOTH",
"934 660 OFFCURVE",
"868 661 OFFCURVE",
"834 663 CURVE",
"831 607 LINE",
"859 606 OFFCURVE",
"891 599 OFFCURVE",
"902 591 CURVE",
"906 583 OFFCURVE",
"910 527 OFFCURVE",
"910 421 CURVE SMOOTH",
"910 239 LINE SMOOTH",
"910 133 OFFCURVE",
"906 77 OFFCURVE",
"902 69 CURVE",
"891 61 OFFCURVE",
"861 54 OFFCURVE",
"836 51 CURVE",
"839 -5 LINE"
);
},
{
closed = 1;
nodes = (
"1273 215 LINE",
"1272 253 OFFCURVE",
"1270 297 OFFCURVE",
"1270 332 CURVE SMOOTH",
"1270 367 OFFCURVE",
"1272 409 OFFCURVE",
"1273 447 CURVE",
"1216 447 LINE",
"1214 423 OFFCURVE",
"1208 381 OFFCURVE",
"1203 368 CURVE",
"1194 367 OFFCURVE",
"1171 365 OFFCURVE",
"1143 365 CURVE SMOOTH",
"1078 365 LINE SMOOTH",
"1060 365 OFFCURVE",
"1046 366 OFFCURVE",
"1036 367 CURVE",
"1036 297 LINE",
"1046 298 OFFCURVE",
"1060 299 OFFCURVE",
"1078 299 CURVE SMOOTH",
"1143 299 LINE SMOOTH",
"1171 299 OFFCURVE",
"1194 297 OFFCURVE",
"1203 296 CURVE",
"1208 283 OFFCURVE",
"1214 239 OFFCURVE",
"1216 215 CURVE"
);
},
{
closed = 1;
nodes = (
"594 169 LINE",
"534 181 LINE",
"511 134 OFFCURVE",
"492 95 OFFCURVE",
"473 66 CURVE",
"454 63 OFFCURVE",
"441 62 OFFCURVE",
"393 62 CURVE SMOOTH",
"323 62 LINE SMOOTH",
"281 62 OFFCURVE",
"257 64 OFFCURVE",
"232 67 CURVE",
"230 83 OFFCURVE",
"229 133 OFFCURVE",
"229 199 CURVE SMOOTH",
"229 461 LINE SMOOTH",
"229 527 OFFCURVE",
"230 583 OFFCURVE",
"232 598 CURVE",
"251 601 OFFCURVE",
"279 602 OFFCURVE",
"304 602 CURVE SMOOTH",
"397 602 LINE SMOOTH",
"414 602 OFFCURVE",
"428 601 OFFCURVE",
"446 598 CURVE",
"461 569 OFFCURVE",
"471 538 OFFCURVE",
"487 497 CURVE",
"549 505 LINE",
"520 665 LINE",
"482 663 OFFCURVE",
"408 660 OFFCURVE",
"364 660 CURVE SMOOTH",
"161 660 LINE SMOOTH",
"116 660 OFFCURVE",
"50 661 OFFCURVE",
"16 663 CURVE",
"13 607 LINE",
"41 606 OFFCURVE",
"73 599 OFFCURVE",
"84 591 CURVE",
"88 583 OFFCURVE",
"92 527 OFFCURVE",
"92 421 CURVE SMOOTH",
"92 239 LINE SMOOTH",
"92 133 OFFCURVE",
"88 77 OFFCURVE",
"84 69 CURVE",
"73 61 OFFCURVE",
"41 54 OFFCURVE",
"13 51 CURVE",
"16 -5 LINE",
"50 -1 OFFCURVE",
"116 0 OFFCURVE",
"161 0 CURVE SMOOTH",
"402 0 LINE SMOOTH",
"446 0 OFFCURVE",
"507 -3 OFFCURVE",
"545 -6 CURVE"
);
},
{
closed = 1;
nodes = (
"469 220 LINE",
"468 257 OFFCURVE",
"466 298 OFFCURVE",
"466 333 CURVE SMOOTH",
"466 368 OFFCURVE",
"468 406 OFFCURVE",
"469 443 CURVE",
"410 443 LINE",
"407 420 OFFCURVE",
"401 381 OFFCURVE",
"397 368 CURVE",
"388 367 OFFCURVE",
"365 365 OFFCURVE",
"337 365 CURVE SMOOTH",
"273 365 LINE SMOOTH",
"248 365 OFFCURVE",
"225 367 OFFCURVE",
"209 368 CURVE",
"209 297 LINE",
"225 298 OFFCURVE",
"248 300 OFFCURVE",
"273 300 CURVE SMOOTH",
"337 300 LINE SMOOTH",
"365 300 OFFCURVE",
"388 298 OFFCURVE",
"397 297 CURVE",
"401 284 OFFCURVE",
"407 243 OFFCURVE",
"410 220 CURVE"
);
}
);
};
color = -1;
layerId = "6D340022-02C4-426D-A0D8-A7BFACBEB22E";
paths = (
{
closed = 1;
nodes = (
"70 -1 OFFCURVE",
"143 0 OFFCURVE",
"188 0 CURVE SMOOTH",
"233 0 OFFCURVE",
"308 -1 OFFCURVE",
"342 -5 CURVE",
"345 53 LINE",
"317 56 OFFCURVE",
"281 62 OFFCURVE",
"254 69 CURVE",
"250 77 OFFCURVE",
"246 133 OFFCURVE",
"246 199 CURVE SMOOTH",
"246 461 LINE SMOOTH",
"246 527 OFFCURVE",
"246 581 OFFCURVE",
"247 596 CURVE",
"263 600 OFFCURVE",
"291 602 OFFCURVE",
"316 602 CURVE SMOOTH",
"397 602 LINE SMOOTH",
"414 602 OFFCURVE",
"428 601 OFFCURVE",
"446 598 CURVE",
"461 569 OFFCURVE",
"471 538 OFFCURVE",
"487 497 CURVE",
"549 505 LINE",
"520 665 LINE",
"482 663 OFFCURVE",
"408 660 OFFCURVE",
"364 660 CURVE SMOOTH",
"179 660 LINE SMOOTH",
"134 660 OFFCURVE",
"68 661 OFFCURVE",
"34 663 CURVE",
"31 607 LINE",
"59 606 OFFCURVE",
"91 599 OFFCURVE",
"102 591 CURVE",
"106 583 OFFCURVE",
"110 527 OFFCURVE",
"110 421 CURVE SMOOTH",
"110 239 LINE SMOOTH",
"110 133 OFFCURVE",
"106 77 OFFCURVE",
"102 69 CURVE",
"91 61 OFFCURVE",
"61 54 OFFCURVE",
"36 51 CURVE",
"39 -5 LINE"
);
},
{
closed = 1;
nodes = (
"469 216 LINE",
"468 255 OFFCURVE",
"466 298 OFFCURVE",
"466 333 CURVE SMOOTH",
"466 368 OFFCURVE",
"468 406 OFFCURVE",
"469 443 CURVE",
"410 443 LINE",
"407 420 OFFCURVE",
"401 381 OFFCURVE",
"397 368 CURVE",
"388 367 OFFCURVE",
"365 365 OFFCURVE",
"337 365 CURVE SMOOTH",
"273 365 LINE SMOOTH",
"248 365 OFFCURVE",
"225 367 OFFCURVE",
"209 368 CURVE",
"209 297 LINE",
"225 298 OFFCURVE",
"248 300 OFFCURVE",
"273 300 CURVE SMOOTH",
"337 300 LINE SMOOTH",
"365 300 OFFCURVE",
"388 298 OFFCURVE",
"397 297 CURVE",
"401 284 OFFCURVE",
"407 241 OFFCURVE",
"410 216 CURVE"
);
}
);
width = 568;
}
);
leftKerningGroup = B;
note = F;
rightKerningGroup = F;
unicode = 0046;
},
{
color = 4;
glyphname = G;
lastChange = "2018-05-01 14:46:29 +0000";
layers = (
{
background = {
paths = (
{
closed = 1;
nodes = (
"492 -10 OFFCURVE",
"579 15 OFFCURVE",
"640 54 CURVE",
"638 87 OFFCURVE",
"637 119 OFFCURVE",
"637 181 CURVE SMOOTH",
"637 223 OFFCURVE",
"640 251 OFFCURVE",
"641 259 CURVE",
"648 262 OFFCURVE",
"670 267 OFFCURVE",
"686 269 CURVE",
"684 311 LINE",
"664 310 OFFCURVE",
"626 308 OFFCURVE",
"594 308 CURVE SMOOTH",
"561 308 OFFCURVE",
"507 308 OFFCURVE",
"471 310 CURVE",
"470 267 LINE",
"497 266 OFFCURVE",
"536 260 OFFCURVE",
"543 256 CURVE",
"547 249 OFFCURVE",
"551 223 OFFCURVE",
"551 121 CURVE SMOOTH",
"551 26 LINE",
"581 90 LINE",
"537 56 OFFCURVE",
"478 43 OFFCURVE",
"431 43 CURVE SMOOTH",
"283 43 OFFCURVE",
"168 147 OFFCURVE",
"168 341 CURVE SMOOTH",
"168 488 OFFCURVE",
"243 618 OFFCURVE",
"418 618 CURVE SMOOTH",
"461 618 OFFCURVE",
"517 607 OFFCURVE",
"545 586 CURVE",
"559 555 OFFCURVE",
"569 521 OFFCURVE",
"578 488 CURVE",
"625 492 LINE",
"617 636 LINE",
"564 658 OFFCURVE",
"487 670 OFFCURVE",
"428 670 CURVE SMOOTH",
"193 670 OFFCURVE",
"59 505 OFFCURVE",
"59 326 CURVE SMOOTH",
"59 101 OFFCURVE",
"223 -10 OFFCURVE",
"424 -10 CURVE SMOOTH"
);
}
);
};
color = -1;
guideLines = (
{
angle = 90;
position = "{637, 206}";
}
);
layerId = "D75C065C-4EF6-4055-9CF2-70010DBCD897";
paths = (
{
closed = 1;
nodes = (
"482 -10 OFFCURVE",
"582 12 OFFCURVE",
"640 49 CURVE",
"638 87 OFFCURVE",
"637 119 OFFCURVE",
"637 181 CURVE SMOOTH",
"637 223 OFFCURVE",
"640 251 OFFCURVE",
"641 259 CURVE",
"648 262 OFFCURVE",
"670 267 OFFCURVE",
"686 269 CURVE",
"684 311 LINE",
"664 310 OFFCURVE",
"626 308 OFFCURVE",
"594 308 CURVE SMOOTH",
"561 308 OFFCURVE",
"509 308 OFFCURVE",
"473 310 CURVE",
"472 267 LINE",
"499 266 OFFCURVE",
"538 260 OFFCURVE",
"545 256 CURVE",
"549 249 OFFCURVE",
"553 223 OFFCURVE",
"553 121 CURVE SMOOTH",
"553 26 LINE",
"581 93 LINE",
"537 56 OFFCURVE",
"476 42 OFFCURVE",
"431 42 CURVE SMOOTH",
"281 42 OFFCURVE",
"166 147 OFFCURVE",
"166 341 CURVE SMOOTH",
"166 488 OFFCURVE",
"242 618 OFFCURVE",
"418 618 CURVE SMOOTH",
"462 618 OFFCURVE",
"518 607 OFFCURVE",
"546 586 CURVE",
"560 555 OFFCURVE",
"570 521 OFFCURVE",
"579 488 CURVE",
"626 492 LINE",
"618 636 LINE",
"565 658 OFFCURVE",
"488 670 OFFCURVE",
"428 670 CURVE SMOOTH",
"193 670 OFFCURVE",
"59 505 OFFCURVE",
"59 326 CURVE SMOOTH",
"59 101 OFFCURVE",
"221 -10 OFFCURVE",
"426 -10 CURVE SMOOTH"
);
}
);
width = 729;
},
{
background = {
paths = (
{
closed = 1;
nodes = (
"495 -10 OFFCURVE",
"586 16 OFFCURVE",
"649 58 CURVE",
"647 99 OFFCURVE",
"646 129 OFFCURVE",
"646 161 CURVE SMOOTH",
"646 197 OFFCURVE",
"646 233 OFFCURVE",
"649 241 CURVE",
"658 249 OFFCURVE",
"680 256 OFFCURVE",
"700 259 CURVE",
"697 313 LINE",
"673 311 OFFCURVE",
"620 309 OFFCURVE",
"569 309 CURVE SMOOTH",
"517 309 OFFCURVE",
"466 310 OFFCURVE",
"430 312 CURVE",
"429 257 LINE",
"459 255 OFFCURVE",
"490 249 OFFCURVE",
"502 241 CURVE",
"506 233 OFFCURVE",
"512 197 OFFCURVE",
"512 121 CURVE SMOOTH",
"512 25 LINE",
"533 85 LINE",
"505 67 OFFCURVE",
"469 59 OFFCURVE",
"443 59 CURVE SMOOTH",
"317 59 OFFCURVE",
"216 165 OFFCURVE",
"216 355 CURVE SMOOTH",
"216 494 OFFCURVE",
"292 602 OFFCURVE",
"432 602 CURVE SMOOTH",
"462 602 OFFCURVE",
"504 595 OFFCURVE",
"536 577 CURVE",
"551 543 OFFCURVE",
"562 510 OFFCURVE",
"573 475 CURVE",
"632 478 LINE",
"626 633 LINE",
"581 655 OFFCURVE",
"498 670 OFFCURVE",
"444 670 CURVE SMOOTH",
"214 670 OFFCURVE",
"52 527 OFFCURVE",
"52 318 CURVE SMOOTH",
"52 107 OFFCURVE",
"206 -10 OFFCURVE",
"420 -10 CURVE SMOOTH"
);
}
);
};
color = -1;
guideLines = (
{
angle = 90;
position = "{646, 206}";
}
);
layerId = "6D340022-02C4-426D-A0D8-A7BFACBEB22E";
paths = (
{
closed = 1;
nodes = (
"495 -10 OFFCURVE",
"586 16 OFFCURVE",
"649 58 CURVE",
"647 99 OFFCURVE",
"646 129 OFFCURVE",
"646 161 CURVE SMOOTH",
"646 197 OFFCURVE",
"646 233 OFFCURVE",
"649 241 CURVE",
"658 249 OFFCURVE",
"680 256 OFFCURVE",
"700 259 CURVE",
"697 313 LINE",
"673 311 OFFCURVE",
"620 309 OFFCURVE",
"569 309 CURVE SMOOTH",
"517 309 OFFCURVE",
"466 310 OFFCURVE",
"430 312 CURVE",
"429 257 LINE",
"459 255 OFFCURVE",
"490 249 OFFCURVE",
"502 241 CURVE",
"506 233 OFFCURVE",
"512 197 OFFCURVE",
"512 121 CURVE SMOOTH",
"512 25 LINE",
"533 85 LINE",
"505 67 OFFCURVE",
"469 59 OFFCURVE",
"443 59 CURVE SMOOTH",
"317 59 OFFCURVE",
"216 165 OFFCURVE",
"216 355 CURVE SMOOTH",
"216 494 OFFCURVE",
"292 602 OFFCURVE",
"432 602 CURVE SMOOTH",
"462 602 OFFCURVE",
"504 595 OFFCURVE",
"536 577 CURVE",
"551 543 OFFCURVE",
"560 510 OFFCURVE",
"571 475 CURVE",
"636 478 LINE",
"630 633 LINE",
"583 655 OFFCURVE",
"508 670 OFFCURVE",
"444 670 CURVE SMOOTH",
"214 670 OFFCURVE",
"52 527 OFFCURVE",
"52 318 CURVE SMOOTH",
"52 107 OFFCURVE",
"206 -10 OFFCURVE",
"420 -10 CURVE SMOOTH"
);
}
);
width = 731;
}
);
leftKerningGroup = C;
note = G;
rightKerningGroup = G;
unicode = 0047;
},
{
color = 4;
glyphname = H;
lastChange = "2018-05-01 14:46:29 +0000";
layers = (
{
background = {
paths = (
{
closed = 1;
nodes = (
"234 312 OFFCURVE",
"287 313 OFFCURVE",
"365 313 CURVE SMOOTH",
"443 313 OFFCURVE",
"494 312 OFFCURVE",
"528 309 CURVE",
"528 369 LINE",
"498 367 OFFCURVE",
"443 366 OFFCURVE",
"365 366 CURVE SMOOTH",
"287 366 OFFCURVE",
"230 367 OFFCURVE",
"200 369 CURVE",
"200 309 LINE"
);
},
{
closed = 1;
nodes = (
"207 442 LINE SMOOTH",
"207 572 OFFCURVE",
"211 598 OFFCURVE",
"215 605 CURVE",
"222 609 OFFCURVE",
"257 619 OFFCURVE",
"283 619 CURVE",
"281 661 LINE",
"246 659 OFFCURVE",
"196 657 OFFCURVE",
"163 657 CURVE SMOOTH",
"130 657 OFFCURVE",
"80 659 OFFCURVE",
"45 661 CURVE",
"43 619 LINE",
"69 619 OFFCURVE",
"104 609 OFFCURVE",
"111 605 CURVE",
"115 598 OFFCURVE",
"119 572 OFFCURVE",
"119 442 CURVE SMOOTH",
"119 217 LINE SMOOTH",
"119 87 OFFCURVE",
"115 61 OFFCURVE",
"111 54 CURVE",
"104 50 OFFCURVE",
"69 40 OFFCURVE",
"43 39 CURVE",
"45 -3 LINE",
"80 0 OFFCURVE",
"130 2 OFFCURVE",
"163 2 CURVE SMOOTH",
"196 2 OFFCURVE",
"246 0 OFFCURVE",
"281 -3 CURVE",
"283 39 LINE",
"257 40 OFFCURVE",
"222 50 OFFCURVE",
"215 54 CURVE",
"211 61 OFFCURVE",
"207 87 OFFCURVE",
"207 217 CURVE SMOOTH"
);
},
{
closed = 1;
nodes = (
"609 442 LINE SMOOTH",
"609 572 OFFCURVE",
"613 598 OFFCURVE",
"617 605 CURVE",
"624 609 OFFCURVE",
"659 619 OFFCURVE",
"685 619 CURVE",
"683 661 LINE",
"648 659 OFFCURVE",
"598 657 OFFCURVE",
"565 657 CURVE SMOOTH",
"532 657 OFFCURVE",
"482 659 OFFCURVE",
"447 661 CURVE",
"445 619 LINE",
"471 619 OFFCURVE",
"506 609 OFFCURVE",
"513 605 CURVE",
"517 598 OFFCURVE",
"521 572 OFFCURVE",
"521 442 CURVE SMOOTH",
"521 217 LINE SMOOTH",
"521 87 OFFCURVE",
"517 61 OFFCURVE",
"513 54 CURVE",
"506 50 OFFCURVE",
"471 40 OFFCURVE",
"445 39 CURVE",
"447 -3 LINE",
"482 0 OFFCURVE",
"532 2 OFFCURVE",
"565 2 CURVE SMOOTH",
"598 2 OFFCURVE",
"648 0 OFFCURVE",
"683 -3 CURVE",
"685 39 LINE",
"659 40 OFFCURVE",
"624 50 OFFCURVE",
"617 54 CURVE",
"613 61 OFFCURVE",
"609 87 OFFCURVE",
"609 217 CURVE SMOOTH"
);
}
);
};
color = -1;
layerId = "D75C065C-4EF6-4055-9CF2-70010DBCD897";
paths = (
{
closed = 1;
nodes = (
"232 312 OFFCURVE",
"285 313 OFFCURVE",
"365 313 CURVE SMOOTH",
"445 313 OFFCURVE",
"496 312 OFFCURVE",
"530 309 CURVE",
"530 369 LINE",
"500 367 OFFCURVE",
"445 366 OFFCURVE",
"365 366 CURVE SMOOTH",
"285 366 OFFCURVE",
"228 367 OFFCURVE",
"198 369 CURVE",
"198 309 LINE"
);
},
{
closed = 1;
nodes = (
"207 442 LINE SMOOTH",
"207 572 OFFCURVE",
"211 598 OFFCURVE",
"215 605 CURVE",
"222 609 OFFCURVE",
"257 619 OFFCURVE",
"283 619 CURVE",
"281 661 LINE",
"246 659 OFFCURVE",
"197 657 OFFCURVE",
"164 657 CURVE SMOOTH",
"131 657 OFFCURVE",
"82 659 OFFCURVE",
"47 661 CURVE",
"45 619 LINE",
"71 619 OFFCURVE",
"106 609 OFFCURVE",
"113 605 CURVE",
"117 598 OFFCURVE",
"121 572 OFFCURVE",
"121 442 CURVE SMOOTH",
"121 217 LINE SMOOTH",
"121 87 OFFCURVE",
"117 61 OFFCURVE",
"113 54 CURVE",
"106 50 OFFCURVE",
"71 40 OFFCURVE",
"45 39 CURVE",
"47 -3 LINE",
"82 0 OFFCURVE",
"131 2 OFFCURVE",
"164 2 CURVE SMOOTH",
"197 2 OFFCURVE",
"246 0 OFFCURVE",
"281 -3 CURVE",
"283 39 LINE",
"257 40 OFFCURVE",
"222 50 OFFCURVE",
"215 54 CURVE",
"211 61 OFFCURVE",
"207 87 OFFCURVE",
"207 217 CURVE SMOOTH"
);
},
{
closed = 1;
nodes = (
"607 442 LINE SMOOTH",
"607 572 OFFCURVE",
"611 598 OFFCURVE",
"615 605 CURVE",
"622 609 OFFCURVE",
"657 619 OFFCURVE",
"683 619 CURVE",
"681 661 LINE",
"646 659 OFFCURVE",
"598 657 OFFCURVE",
"565 657 CURVE SMOOTH",
"532 657 OFFCURVE",
"482 659 OFFCURVE",
"447 661 CURVE",
"445 619 LINE",
"471 619 OFFCURVE",
"506 609 OFFCURVE",
"513 605 CURVE",
"517 598 OFFCURVE",
"521 572 OFFCURVE",
"521 442 CURVE SMOOTH",
"521 217 LINE SMOOTH",
"521 87 OFFCURVE",
"517 61 OFFCURVE",
"513 54 CURVE",
"506 50 OFFCURVE",
"471 40 OFFCURVE",
"445 39 CURVE",
"447 -3 LINE",
"482 0 OFFCURVE",
"532 2 OFFCURVE",
"565 2 CURVE SMOOTH",
"598 2 OFFCURVE",
"646 0 OFFCURVE",
"681 -3 CURVE",
"683 39 LINE",
"657 40 OFFCURVE",
"622 50 OFFCURVE",
"615 54 CURVE",
"611 61 OFFCURVE",
"607 87 OFFCURVE",
"607 217 CURVE SMOOTH"
);
}
);
width = 728;
},
{
background = {
paths = (
{
closed = 1;
nodes = (
"257 302 OFFCURVE",
"303 304 OFFCURVE",
"375 304 CURVE SMOOTH",
"447 304 OFFCURVE",
"493 302 OFFCURVE",
"525 300 CURVE",
"525 377 LINE",
"493 375 OFFCURVE",
"447 373 OFFCURVE",
"375 373 CURVE SMOOTH",
"303 373 OFFCURVE",
"257 375 OFFCURVE",
"225 377 CURVE",
"225 300 LINE"
);
},
{
closed = 1;
nodes = (
"247 421 LINE SMOOTH",
"247 527 OFFCURVE",
"251 583 OFFCURVE",
"255 591 CURVE",
"266 599 OFFCURVE",
"298 606 OFFCURVE",
"326 607 CURVE",
"323 663 LINE",
"289 661 OFFCURVE",
"232 658 OFFCURVE",
"178 658 CURVE SMOOTH",
"124 658 OFFCURVE",
"67 661 OFFCURVE",
"33 663 CURVE",
"30 607 LINE",
"58 606 OFFCURVE",
"90 599 OFFCURVE",
"101 591 CURVE",
"105 583 OFFCURVE",
"109 527 OFFCURVE",
"109 421 CURVE SMOOTH",
"109 239 LINE SMOOTH",
"109 133 OFFCURVE",
"105 77 OFFCURVE",
"101 69 CURVE",
"90 61 OFFCURVE",
"58 54 OFFCURVE",
"30 51 CURVE",
"33 -5 LINE",
"67 -1 OFFCURVE",
"124 2 OFFCURVE",
"178 2 CURVE SMOOTH",
"232 2 OFFCURVE",
"289 -1 OFFCURVE",
"323 -5 CURVE",
"326 51 LINE",
"298 54 OFFCURVE",
"266 61 OFFCURVE",
"255 69 CURVE",
"251 77 OFFCURVE",
"247 133 OFFCURVE",
"247 239 CURVE SMOOTH"
);
},
{
closed = 1;
nodes = (
"641 421 LINE SMOOTH",
"641 527 OFFCURVE",
"645 583 OFFCURVE",
"649 591 CURVE",
"660 599 OFFCURVE",
"692 606 OFFCURVE",
"720 607 CURVE",
"717 663 LINE",
"683 661 OFFCURVE",
"626 658 OFFCURVE",
"572 658 CURVE SMOOTH",
"518 658 OFFCURVE",
"461 661 OFFCURVE",
"427 663 CURVE",
"424 607 LINE",
"452 606 OFFCURVE",
"484 599 OFFCURVE",
"495 591 CURVE",
"499 583 OFFCURVE",
"503 527 OFFCURVE",
"503 421 CURVE SMOOTH",
"503 239 LINE SMOOTH",
"503 133 OFFCURVE",
"499 77 OFFCURVE",
"495 69 CURVE",
"484 61 OFFCURVE",
"452 54 OFFCURVE",
"424 51 CURVE",
"427 -5 LINE",
"461 -1 OFFCURVE",
"518 2 OFFCURVE",
"572 2 CURVE SMOOTH",
"626 2 OFFCURVE",
"683 -1 OFFCURVE",
"717 -5 CURVE",
"720 51 LINE",
"692 54 OFFCURVE",
"660 61 OFFCURVE",
"649 69 CURVE",
"645 77 OFFCURVE",
"641 133 OFFCURVE",
"641 239 CURVE SMOOTH"
);
}
);
};
color = -1;
layerId = "6D340022-02C4-426D-A0D8-A7BFACBEB22E";
paths = (
{
closed = 1;
nodes = (
"257 300 OFFCURVE",
"303 302 OFFCURVE",
"375 302 CURVE SMOOTH",
"447 302 OFFCURVE",
"493 300 OFFCURVE",
"525 298 CURVE",
"525 376 LINE",
"493 374 OFFCURVE",
"447 372 OFFCURVE",
"375 372 CURVE SMOOTH",
"303 372 OFFCURVE",
"257 374 OFFCURVE",
"225 376 CURVE",
"225 298 LINE"
);
},
{
closed = 1;
nodes = (
"247 421 LINE SMOOTH",
"247 527 OFFCURVE",
"251 583 OFFCURVE",
"255 591 CURVE",
"266 599 OFFCURVE",
"296 606 OFFCURVE",
"324 607 CURVE",
"321 663 LINE",
"287 661 OFFCURVE",
"232 658 OFFCURVE",
"178 658 CURVE SMOOTH",
"124 658 OFFCURVE",
"67 661 OFFCURVE",
"33 663 CURVE",
"30 607 LINE",
"58 606 OFFCURVE",
"90 599 OFFCURVE",
"101 591 CURVE",
"105 583 OFFCURVE",
"109 527 OFFCURVE",
"109 421 CURVE SMOOTH",
"109 239 LINE SMOOTH",
"109 133 OFFCURVE",
"105 77 OFFCURVE",
"101 69 CURVE",
"90 61 OFFCURVE",
"58 54 OFFCURVE",
"30 51 CURVE",
"33 -5 LINE",
"67 -1 OFFCURVE",
"124 2 OFFCURVE",
"178 2 CURVE SMOOTH",
"232 2 OFFCURVE",
"287 -1 OFFCURVE",
"321 -5 CURVE",
"324 51 LINE",
"296 54 OFFCURVE",
"266 61 OFFCURVE",
"255 69 CURVE",
"251 77 OFFCURVE",
"247 133 OFFCURVE",
"247 239 CURVE SMOOTH"
);
},
{
closed = 1;
nodes = (
"641 421 LINE SMOOTH",
"641 527 OFFCURVE",
"645 583 OFFCURVE",
"649 591 CURVE",
"660 599 OFFCURVE",
"692 606 OFFCURVE",
"720 607 CURVE",
"717 663 LINE",
"683 661 OFFCURVE",
"626 658 OFFCURVE",
"572 658 CURVE SMOOTH",
"518 658 OFFCURVE",
"463 661 OFFCURVE",
"429 663 CURVE",
"426 607 LINE",
"454 606 OFFCURVE",
"484 599 OFFCURVE",
"495 591 CURVE",
"499 583 OFFCURVE",
"503 527 OFFCURVE",
"503 421 CURVE SMOOTH",
"503 239 LINE SMOOTH",
"503 133 OFFCURVE",
"499 77 OFFCURVE",
"495 69 CURVE",
"484 61 OFFCURVE",
"454 54 OFFCURVE",
"426 51 CURVE",
"429 -5 LINE",
"463 -1 OFFCURVE",
"518 2 OFFCURVE",
"572 2 CURVE SMOOTH",
"626 2 OFFCURVE",
"683 -1 OFFCURVE",
"717 -5 CURVE",
"720 51 LINE",
"692 54 OFFCURVE",
"660 61 OFFCURVE",
"649 69 CURVE",
"645 77 OFFCURVE",
"641 133 OFFCURVE",
"641 239 CURVE SMOOTH"
);
}
);
width = 750;
}
);
leftKerningGroup = B;
note = H;
rightKerningGroup = H;
unicode = 0048;
},
{
color = 4;
glyphname = I;
lastChange = "2018-05-01 14:46:29 +0000";
layers = (
{
background = {
paths = (
{
closed = 1;
nodes = (
"209 442 LINE SMOOTH",
"209 572 OFFCURVE",
"213 598 OFFCURVE",
"217 605 CURVE",
"224 609 OFFCURVE",
"259 619 OFFCURVE",
"285 619 CURVE",
"283 661 LINE",
"248 659 OFFCURVE",
"198 657 OFFCURVE",
"165 657 CURVE SMOOTH",
"132 657 OFFCURVE",
"82 659 OFFCURVE",
"47 661 CURVE",
"45 619 LINE",
"71 619 OFFCURVE",
"106 609 OFFCURVE",
"113 605 CURVE",
"117 598 OFFCURVE",
"121 572 OFFCURVE",
"121 442 CURVE SMOOTH",
"121 217 LINE SMOOTH",
"121 87 OFFCURVE",
"117 61 OFFCURVE",
"113 54 CURVE",
"106 50 OFFCURVE",
"71 40 OFFCURVE",
"45 39 CURVE",
"47 -3 LINE",
"82 0 OFFCURVE",
"132 2 OFFCURVE",
"165 2 CURVE SMOOTH",
"198 2 OFFCURVE",
"248 0 OFFCURVE",
"283 -3 CURVE",
"285 39 LINE",
"259 40 OFFCURVE",
"224 50 OFFCURVE",
"217 54 CURVE",
"213 61 OFFCURVE",
"209 87 OFFCURVE",
"209 217 CURVE SMOOTH"
);
}
);
};
color = -1;
layerId = "D75C065C-4EF6-4055-9CF2-70010DBCD897";
paths = (
{
closed = 1;
nodes = (
"207 442 LINE SMOOTH",
"207 572 OFFCURVE",
"211 598 OFFCURVE",
"215 605 CURVE",
"222 609 OFFCURVE",
"257 619 OFFCURVE",
"283 619 CURVE",
"281 661 LINE",
"246 659 OFFCURVE",
"197 657 OFFCURVE",
"164 657 CURVE SMOOTH",
"131 657 OFFCURVE",
"82 659 OFFCURVE",
"47 661 CURVE",
"45 619 LINE",
"71 619 OFFCURVE",
"106 609 OFFCURVE",
"113 605 CURVE",
"117 598 OFFCURVE",
"121 572 OFFCURVE",
"121 442 CURVE SMOOTH",
"121 217 LINE SMOOTH",
"121 87 OFFCURVE",
"117 61 OFFCURVE",
"113 54 CURVE",
"106 50 OFFCURVE",
"71 40 OFFCURVE",
"45 39 CURVE",
"47 -3 LINE",
"82 0 OFFCURVE",
"131 2 OFFCURVE",
"164 2 CURVE SMOOTH",
"197 2 OFFCURVE",
"246 0 OFFCURVE",
"281 -3 CURVE",
"283 39 LINE",
"257 40 OFFCURVE",
"222 50 OFFCURVE",
"215 54 CURVE",
"211 61 OFFCURVE",
"207 87 OFFCURVE",
"207 217 CURVE SMOOTH"
);
}
);
width = 328;
},
{
background = {
paths = (
{
closed = 1;
nodes = (
"247 421 LINE SMOOTH",
"247 527 OFFCURVE",
"251 590 OFFCURVE",
"255 598 CURVE",
"266 606 OFFCURVE",
"298 613 OFFCURVE",
"326 614 CURVE",
"323 663 LINE",
"289 661 OFFCURVE",
"232 658 OFFCURVE",
"178 658 CURVE SMOOTH",
"124 658 OFFCURVE",
"67 661 OFFCURVE",
"33 663 CURVE",
"30 614 LINE",
"58 613 OFFCURVE",
"90 606 OFFCURVE",
"101 598 CURVE",
"105 590 OFFCURVE",
"109 527 OFFCURVE",
"109 421 CURVE SMOOTH",
"109 239 LINE SMOOTH",
"109 133 OFFCURVE",
"105 70 OFFCURVE",
"101 62 CURVE",
"90 54 OFFCURVE",
"58 47 OFFCURVE",
"30 44 CURVE",
"33 -5 LINE",
"67 -1 OFFCURVE",
"124 2 OFFCURVE",
"178 2 CURVE SMOOTH",
"232 2 OFFCURVE",
"289 -1 OFFCURVE",
"323 -5 CURVE",
"326 44 LINE",
"298 47 OFFCURVE",
"266 54 OFFCURVE",
"255 62 CURVE",
"251 70 OFFCURVE",
"247 133 OFFCURVE",
"247 239 CURVE SMOOTH"
);
}
);
};
color = -1;
layerId = "6D340022-02C4-426D-A0D8-A7BFACBEB22E";
paths = (
{
closed = 1;
nodes = (
"247 421 LINE SMOOTH",
"247 527 OFFCURVE",
"251 583 OFFCURVE",
"255 591 CURVE",
"266 599 OFFCURVE",
"298 606 OFFCURVE",
"326 607 CURVE",
"323 663 LINE",
"289 661 OFFCURVE",
"232 659 OFFCURVE",
"178 659 CURVE SMOOTH",
"124 659 OFFCURVE",
"67 661 OFFCURVE",
"33 663 CURVE",
"30 607 LINE",
"58 606 OFFCURVE",
"90 599 OFFCURVE",
"101 591 CURVE",
"105 583 OFFCURVE",
"109 527 OFFCURVE",
"109 421 CURVE SMOOTH",
"109 239 LINE SMOOTH",
"109 133 OFFCURVE",
"105 77 OFFCURVE",
"101 69 CURVE",
"90 61 OFFCURVE",
"58 54 OFFCURVE",
"30 51 CURVE",
"33 -5 LINE",
"67 -1 OFFCURVE",
"124 2 OFFCURVE",
"178 2 CURVE SMOOTH",
"232 2 OFFCURVE",
"289 -1 OFFCURVE",
"323 -5 CURVE",
"326 51 LINE",
"298 54 OFFCURVE",
"266 61 OFFCURVE",
"255 69 CURVE",
"251 77 OFFCURVE",
"247 133 OFFCURVE",
"247 239 CURVE SMOOTH"
);
}
);
width = 356;
}
);
leftKerningGroup = B;
note = I;
rightKerningGroup = H;
unicode = 0049;
},
{
color = 4;
glyphname = J;
lastChange = "2018-05-01 14:46:29 +0000";
layers = (
{
background = {
paths = (
{
closed = 1;
nodes = (
"227 615 OFFCURVE",
"260 625 OFFCURVE",
"284 626 CURVE",
"282 662 LINE",
"249 659 OFFCURVE",
"201 657 OFFCURVE",
"168 657 CURVE SMOOTH",
"135 657 OFFCURVE",
"83 659 OFFCURVE",
"46 662 CURVE",
"44 626 LINE",
"72 625 OFFCURVE",
"109 615 OFFCURVE",
"116 611 CURVE",
"120 604 OFFCURVE",
"124 572 OFFCURVE",
"124 442 CURVE SMOOTH",
"123 -32 LINE",
"123 -169 OFFCURVE",
"83 -195 OFFCURVE",
"28 -185 CURVE",
"64 -195 LINE",
"8 -141 LINE SMOOTH",
"-12 -121 OFFCURVE",
"-26 -113 OFFCURVE",
"-49 -113 CURVE SMOOTH",
"-74 -113 OFFCURVE",
"-91 -128 OFFCURVE",
"-91 -151 CURVE SMOOTH",
"-91 -191 OFFCURVE",
"-30 -228 OFFCURVE",
"31 -228 CURVE SMOOTH",
"132 -228 OFFCURVE",
"213 -148 OFFCURVE",
"213 23 CURVE",
"212 442 LINE",
"212 572 OFFCURVE",
"216 604 OFFCURVE",
"220 611 CURVE"
);
}
);
};
color = -1;
layerId = "D75C065C-4EF6-4055-9CF2-70010DBCD897";
paths = (
{
closed = 1;
nodes = (
"225 615 OFFCURVE",
"258 625 OFFCURVE",
"282 626 CURVE",
"280 662 LINE",
"247 659 OFFCURVE",
"198 657 OFFCURVE",
"167 657 CURVE SMOOTH",
"134 657 OFFCURVE",
"83 659 OFFCURVE",
"46 662 CURVE",
"44 626 LINE",
"72 625 OFFCURVE",
"109 615 OFFCURVE",
"116 611 CURVE",
"120 604 OFFCURVE",
"124 572 OFFCURVE",
"124 442 CURVE SMOOTH",
"123 -32 LINE",
"123 -169 OFFCURVE",
"82 -195 OFFCURVE",
"28 -186 CURVE",
"64 -196 LINE",
"9 -143 LINE SMOOTH",
"-9 -126 OFFCURVE",
"-27 -116 OFFCURVE",
"-46 -116 CURVE SMOOTH",
"-71 -116 OFFCURVE",
"-87 -130 OFFCURVE",
"-87 -153 CURVE SMOOTH",
"-87 -192 OFFCURVE",
"-28 -228 OFFCURVE",
"32 -228 CURVE SMOOTH",
"132 -228 OFFCURVE",
"211 -148 OFFCURVE",
"211 23 CURVE",
"210 442 LINE",
"210 572 OFFCURVE",
"214 604 OFFCURVE",
"218 611 CURVE"
);
}
);
width = 328;
},
{
background = {
paths = (
{
closed = 1;
nodes = (
"968 606 OFFCURVE",
"1000 613 OFFCURVE",
"1026 616 CURVE",
"1023 665 LINE",
"991 661 OFFCURVE",
"934 658 OFFCURVE",
"880 658 CURVE SMOOTH",
"826 658 OFFCURVE",
"767 661 OFFCURVE",
"731 665 CURVE",
"728 616 LINE",
"758 613 OFFCURVE",
"792 606 OFFCURVE",
"803 598 CURVE",
"807 590 OFFCURVE",
"811 527 OFFCURVE",
"811 422 CURVE SMOOTH",
"812 -26 LINE",
"812 -158 OFFCURVE",
"790 -176 OFFCURVE",
"740 -168 CURVE",
"787 -181 LINE",
"722 -122 LINE SMOOTH",
"693 -96 OFFCURVE",
"673 -87 OFFCURVE",
"649 -87 CURVE SMOOTH",
"620 -87 OFFCURVE",
"597 -105 OFFCURVE",
"597 -138 CURVE SMOOTH",
"597 -190 OFFCURVE",
"665 -228 OFFCURVE",
"752 -228 CURVE SMOOTH",
"859 -228 OFFCURVE",
"951 -129 OFFCURVE",
"951 10 CURVE",
"949 421 LINE",
"949 527 OFFCURVE",
"953 590 OFFCURVE",
"957 598 CURVE"
);
},
{
closed = 1;
nodes = (
"249 421 LINE SMOOTH",
"249 527 OFFCURVE",
"253 583 OFFCURVE",
"257 591 CURVE",
"268 599 OFFCURVE",
"300 606 OFFCURVE",
"328 607 CURVE",
"325 663 LINE",
"291 661 OFFCURVE",
"234 659 OFFCURVE",
"180 659 CURVE SMOOTH",
"126 659 OFFCURVE",
"69 661 OFFCURVE",
"35 663 CURVE",
"32 607 LINE",
"60 606 OFFCURVE",
"92 599 OFFCURVE",
"103 591 CURVE",
"107 583 OFFCURVE",
"111 527 OFFCURVE",
"111 421 CURVE SMOOTH",
"111 239 LINE SMOOTH",
"111 133 OFFCURVE",
"107 77 OFFCURVE",
"103 69 CURVE",
"92 61 OFFCURVE",
"60 54 OFFCURVE",
"32 51 CURVE",
"35 -5 LINE",
"69 -1 OFFCURVE",
"126 2 OFFCURVE",
"180 2 CURVE SMOOTH",
"234 2 OFFCURVE",
"291 -1 OFFCURVE",
"325 -5 CURVE",
"328 51 LINE",
"300 54 OFFCURVE",
"268 61 OFFCURVE",
"257 69 CURVE",
"253 77 OFFCURVE",
"249 133 OFFCURVE",
"249 239 CURVE SMOOTH"
);
}
);
};
color = -1;
layerId = "6D340022-02C4-426D-A0D8-A7BFACBEB22E";
paths = (
{
closed = 1;
nodes = (
"268 599 OFFCURVE",
"300 606 OFFCURVE",
"328 607 CURVE",
"325 663 LINE",
"291 661 OFFCURVE",
"234 659 OFFCURVE",
"180 659 CURVE SMOOTH",
"126 659 OFFCURVE",
"69 661 OFFCURVE",
"35 663 CURVE",
"32 607 LINE",
"60 606 OFFCURVE",
"92 599 OFFCURVE",
"103 591 CURVE",
"107 583 OFFCURVE",
"111 527 OFFCURVE",
"111 422 CURVE SMOOTH",
"112 -26 LINE",
"112 -162 OFFCURVE",
"90 -180 OFFCURVE",
"40 -172 CURVE",
"97 -190 LINE",
"22 -122 LINE SMOOTH",
"-7 -96 OFFCURVE",
"-27 -87 OFFCURVE",
"-51 -87 CURVE SMOOTH",
"-80 -87 OFFCURVE",
"-103 -105 OFFCURVE",
"-103 -138 CURVE SMOOTH",
"-103 -190 OFFCURVE",
"-35 -228 OFFCURVE",
"55 -228 CURVE SMOOTH",
"159 -228 OFFCURVE",
"251 -149 OFFCURVE",
"251 10 CURVE",
"249 421 LINE",
"249 527 OFFCURVE",
"253 583 OFFCURVE",
"257 591 CURVE"
);
}
);
width = 356;
}
);
leftKerningGroup = J;
note = J;
rightKerningGroup = J;
unicode = 004A;
},
{
color = 4;
glyphname = K;
lastChange = "2018-05-01 14:46:29 +0000";
layers = (
{
background = {
paths = (
{
closed = 1;
nodes = (
"441 0 OFFCURVE",
"489 2 OFFCURVE",
"521 2 CURVE SMOOTH",
"556 2 OFFCURVE",
"602 1 OFFCURVE",
"655 -2 CURVE",
"655 39 LINE",
"629 44 OFFCURVE",
"614 47 OFFCURVE",
"593 55 CURVE",
"575 70 OFFCURVE",
"548 99 OFFCURVE",
"515 136 CURVE SMOOTH",
"300 374 LINE",
"299 342 LINE",
"570 607 LINE",
"590 612 OFFCURVE",
"618 617 OFFCURVE",
"635 619 CURVE",
"632 661 LINE",
"604 660 OFFCURVE",
"566 659 OFFCURVE",
"537 659 CURVE SMOOTH",
"508 659 OFFCURVE",
"458 659 OFFCURVE",
"425 660 CURVE",
"424 618 LINE",
"446 616 OFFCURVE",
"472 611 OFFCURVE",
"494 606 CURVE",
"254 368 LINE",
"193 349 LINE",
"193 312 LINE",
"239 312 LINE",
"426 106 LINE SMOOTH",
"446 84 OFFCURVE",
"462 64 OFFCURVE",
"471 51 CURVE",
"463 48 OFFCURVE",
"429 41 OFFCURVE",
"403 39 CURVE",
"406 -3 LINE"
);
},
{
closed = 1;
nodes = (
"83 0 OFFCURVE",
"132 2 OFFCURVE",
"165 2 CURVE SMOOTH",
"198 2 OFFCURVE",
"248 0 OFFCURVE",
"283 -3 CURVE",
"285 39 LINE",
"259 41 OFFCURVE",
"223 50 OFFCURVE",
"215 54 CURVE",
"212 61 OFFCURVE",
"209 87 OFFCURVE",
"209 217 CURVE SMOOTH",
"209 442 LINE SMOOTH",
"209 572 OFFCURVE",
"213 598 OFFCURVE",
"217 605 CURVE",
"224 609 OFFCURVE",
"259 618 OFFCURVE",
"285 618 CURVE",
"283 660 LINE",
"248 658 OFFCURVE",
"198 657 OFFCURVE",
"165 657 CURVE SMOOTH",
"132 657 OFFCURVE",
"82 658 OFFCURVE",
"47 660 CURVE",
"45 618 LINE",
"71 618 OFFCURVE",
"106 609 OFFCURVE",
"113 605 CURVE",
"117 598 OFFCURVE",
"121 572 OFFCURVE",
"121 442 CURVE SMOOTH",
"121 217 LINE SMOOTH",
"121 87 OFFCURVE",
"117 61 OFFCURVE",
"113 54 CURVE",
"106 50 OFFCURVE",
"72 40 OFFCURVE",
"47 39 CURVE",
"49 -3 LINE"
);
}
);
};
color = -1;
layerId = "D75C065C-4EF6-4055-9CF2-70010DBCD897";
paths = (
{
closed = 1;
nodes = (
"442 0 OFFCURVE",
"489 2 OFFCURVE",
"521 2 CURVE SMOOTH",
"556 2 OFFCURVE",
"602 1 OFFCURVE",
"655 -2 CURVE",
"655 39 LINE",
"629 44 OFFCURVE",
"614 47 OFFCURVE",
"593 55 CURVE",
"575 70 OFFCURVE",
"548 99 OFFCURVE",
"515 136 CURVE SMOOTH",
"300 372 LINE",
"296 340 LINE",
"573 607 LINE",
"593 612 OFFCURVE",
"620 617 OFFCURVE",
"637 619 CURVE",
"635 661 LINE",
"607 660 OFFCURVE",
"566 659 OFFCURVE",
"537 659 CURVE SMOOTH",
"508 659 OFFCURVE",
"455 659 OFFCURVE",
"422 660 CURVE",
"421 618 LINE",
"443 616 OFFCURVE",
"469 611 OFFCURVE",
"491 606 CURVE",
"257 366 LINE",
"193 347 LINE",
"193 310 LINE",
"240 310 LINE",
"427 106 LINE SMOOTH",
"447 84 OFFCURVE",
"463 64 OFFCURVE",
"472 51 CURVE",
"464 48 OFFCURVE",
"430 41 OFFCURVE",
"404 39 CURVE",
"407 -3 LINE"
);
},
{
closed = 1;
nodes = (
"83 0 OFFCURVE",
"131 2 OFFCURVE",
"164 2 CURVE SMOOTH",
"197 2 OFFCURVE",
"246 0 OFFCURVE",
"281 -3 CURVE",
"283 39 LINE",
"257 41 OFFCURVE",
"221 50 OFFCURVE",
"213 54 CURVE",
"210 61 OFFCURVE",
"207 87 OFFCURVE",
"207 217 CURVE SMOOTH",
"207 442 LINE SMOOTH",
"207 572 OFFCURVE",
"211 598 OFFCURVE",
"215 605 CURVE",
"222 609 OFFCURVE",
"257 618 OFFCURVE",
"283 618 CURVE",
"281 660 LINE",
"246 658 OFFCURVE",
"197 657 OFFCURVE",
"164 657 CURVE SMOOTH",
"131 657 OFFCURVE",
"82 658 OFFCURVE",
"47 660 CURVE",
"45 618 LINE",
"71 618 OFFCURVE",
"106 609 OFFCURVE",
"113 605 CURVE",
"117 598 OFFCURVE",
"121 572 OFFCURVE",
"121 442 CURVE SMOOTH",
"121 217 LINE SMOOTH",
"121 87 OFFCURVE",
"117 61 OFFCURVE",
"113 54 CURVE",
"106 50 OFFCURVE",
"72 40 OFFCURVE",
"47 39 CURVE",
"49 -3 LINE"
);
}
);
width = 643;
},
{
background = {
paths = (
{
closed = 1;
nodes = (
"434 -2 OFFCURVE",
"507 2 OFFCURVE",
"561 2 CURVE SMOOTH",
"615 2 OFFCURVE",
"683 1 OFFCURVE",
"719 -2 CURVE",
"719 53 LINE",
"700 55 OFFCURVE",
"678 59 OFFCURVE",
"662 63 CURVE",
"649 75 OFFCURVE",
"628 96 OFFCURVE",
"581 152 CURVE SMOOTH",
"366 406 LINE",
"370 361 LINE",
"615 594 LINE",
"637 599 OFFCURVE",
"664 603 OFFCURVE",
"688 605 CURVE",
"685 661 LINE",
"657 660 OFFCURVE",
"615 659 OFFCURVE",
"565 659 CURVE SMOOTH",
"519 659 OFFCURVE",
"482 659 OFFCURVE",
"449 660 CURVE",
"448 604 LINE",
"464 603 OFFCURVE",
"499 600 OFFCURVE",
"519 595 CURVE",
"274 358 LINE",
"237 347 LINE",
"237 297 LINE",
"270 297 LINE",
"420 117 LINE SMOOTH",
"439 94 OFFCURVE",
"450 79 OFFCURVE",
"460 62 CURVE",
"447 58 OFFCURVE",
"420 53 OFFCURVE",
"400 51 CURVE",
"403 -5 LINE"
);
},
{
closed = 1;
nodes = (
"69 -1 OFFCURVE",
"124 2 OFFCURVE",
"178 2 CURVE SMOOTH",
"232 2 OFFCURVE",
"285 -1 OFFCURVE",
"313 -5 CURVE",
"316 51 LINE",
"293 54 OFFCURVE",
"263 61 OFFCURVE",
"252 69 CURVE",
"249 77 OFFCURVE",
"247 133 OFFCURVE",
"247 239 CURVE SMOOTH",
"247 421 LINE SMOOTH",
"247 527 OFFCURVE",
"251 583 OFFCURVE",
"255 591 CURVE",
"266 599 OFFCURVE",
"298 606 OFFCURVE",
"326 607 CURVE",
"323 663 LINE",
"289 661 OFFCURVE",
"232 658 OFFCURVE",
"178 658 CURVE SMOOTH",
"124 658 OFFCURVE",
"67 661 OFFCURVE",
"33 663 CURVE",
"30 607 LINE",
"58 606 OFFCURVE",
"90 599 OFFCURVE",
"101 591 CURVE",
"105 583 OFFCURVE",
"109 527 OFFCURVE",
"109 421 CURVE SMOOTH",
"109 239 LINE SMOOTH",
"109 133 OFFCURVE",
"106 77 OFFCURVE",
"103 69 CURVE",
"91 61 OFFCURVE",
"60 54 OFFCURVE",
"33 51 CURVE",
"36 -5 LINE"
);
}
);
};
color = -1;
layerId = "6D340022-02C4-426D-A0D8-A7BFACBEB22E";
paths = (
{
closed = 1;
nodes = (
"433 -2 OFFCURVE",
"507 2 OFFCURVE",
"561 2 CURVE SMOOTH",
"615 2 OFFCURVE",
"681 1 OFFCURVE",
"717 -2 CURVE",
"717 53 LINE",
"698 55 OFFCURVE",
"678 59 OFFCURVE",
"662 63 CURVE",
"649 75 OFFCURVE",
"628 96 OFFCURVE",
"581 152 CURVE SMOOTH",
"366 405 LINE",
"366 360 LINE",
"619 594 LINE",
"641 599 OFFCURVE",
"668 603 OFFCURVE",
"692 605 CURVE",
"689 661 LINE",
"661 660 OFFCURVE",
"600 659 OFFCURVE",
"565 659 CURVE SMOOTH",
"530 659 OFFCURVE",
"474 659 OFFCURVE",
"441 660 CURVE",
"440 604 LINE",
"456 603 OFFCURVE",
"491 600 OFFCURVE",
"511 595 CURVE",
"279 357 LINE",
"237 346 LINE",
"237 296 LINE",
"270 296 LINE",
"420 117 LINE SMOOTH",
"439 94 OFFCURVE",
"450 79 OFFCURVE",
"460 62 CURVE",
"447 58 OFFCURVE",
"419 53 OFFCURVE",
"399 51 CURVE",
"402 -5 LINE"
);
},
{
closed = 1;
nodes = (
"69 -1 OFFCURVE",
"124 2 OFFCURVE",
"178 2 CURVE SMOOTH",
"232 2 OFFCURVE",
"284 -1 OFFCURVE",
"312 -5 CURVE",
"315 51 LINE",
"292 54 OFFCURVE",
"263 61 OFFCURVE",
"252 69 CURVE",
"249 77 OFFCURVE",
"247 133 OFFCURVE",
"247 239 CURVE SMOOTH",
"247 421 LINE SMOOTH",
"247 527 OFFCURVE",
"251 583 OFFCURVE",
"255 591 CURVE",
"266 599 OFFCURVE",
"298 606 OFFCURVE",
"326 607 CURVE",
"323 663 LINE",
"289 661 OFFCURVE",
"232 658 OFFCURVE",
"178 658 CURVE SMOOTH",
"124 658 OFFCURVE",
"67 661 OFFCURVE",
"33 663 CURVE",
"30 607 LINE",
"58 606 OFFCURVE",
"90 599 OFFCURVE",
"101 591 CURVE",
"105 583 OFFCURVE",
"109 527 OFFCURVE",
"109 421 CURVE SMOOTH",
"109 239 LINE SMOOTH",
"109 133 OFFCURVE",
"106 77 OFFCURVE",
"103 69 CURVE",
"91 61 OFFCURVE",
"60 54 OFFCURVE",
"33 51 CURVE",
"36 -5 LINE"
);
}
);
width = 714;
}
);
leftKerningGroup = B;
note = K;
rightKerningGroup = K;
unicode = 004B;
},
{
color = 4;
glyphname = L;
lastChange = "2018-05-01 14:46:29 +0000";
layers = (
{
background = {
paths = (
{
closed = 1;
nodes = (
"309 661 LINE",
"274 659 OFFCURVE",
"219 659 OFFCURVE",
"179 659 CURVE SMOOTH",
"146 659 OFFCURVE",
"84 659 OFFCURVE",
"49 661 CURVE",
"47 619 LINE",
"73 617 OFFCURVE",
"108 609 OFFCURVE",
"115 605 CURVE",
"119 598 OFFCURVE",
"123 572 OFFCURVE",
"123 442 CURVE SMOOTH",
"123 217 LINE SMOOTH",
"123 87 OFFCURVE",
"119 61 OFFCURVE",
"115 54 CURVE",
"108 50 OFFCURVE",
"73 40 OFFCURVE",
"47 39 CURVE",
"49 -3 LINE",
"84 0 OFFCURVE",
"134 0 OFFCURVE",
"167 0 CURVE SMOOTH",
"401 0 LINE SMOOTH",
"436 0 OFFCURVE",
"464 -1 OFFCURVE",
"498 -5 CURVE",
"543 160 LINE",
"495 170 LINE",
"470 116 OFFCURVE",
"450 78 OFFCURVE",
"438 61 CURVE",
"408 57 OFFCURVE",
"382 57 OFFCURVE",
"357 57 CURVE SMOOTH",
"281 57 LINE SMOOTH",
"250 57 OFFCURVE",
"231 59 OFFCURVE",
"214 61 CURVE",
"213 70 OFFCURVE",
"211 122 OFFCURVE",
"211 217 CURVE SMOOTH",
"211 442 LINE SMOOTH",
"211 572 OFFCURVE",
"215 598 OFFCURVE",
"219 605 CURVE",
"226 609 OFFCURVE",
"265 615 OFFCURVE",
"311 618 CURVE"
);
}
);
};
color = -1;
layerId = "D75C065C-4EF6-4055-9CF2-70010DBCD897";
paths = (
{
closed = 1;
nodes = (
"307 661 LINE",
"272 659 OFFCURVE",
"219 659 OFFCURVE",
"179 659 CURVE SMOOTH",
"146 659 OFFCURVE",
"84 659 OFFCURVE",
"49 661 CURVE",
"47 619 LINE",
"73 617 OFFCURVE",
"108 609 OFFCURVE",
"115 605 CURVE",
"119 598 OFFCURVE",
"123 572 OFFCURVE",
"123 442 CURVE SMOOTH",
"123 217 LINE SMOOTH",
"123 87 OFFCURVE",
"119 61 OFFCURVE",
"115 54 CURVE",
"108 50 OFFCURVE",
"73 40 OFFCURVE",
"47 39 CURVE",
"49 -3 LINE",
"84 0 OFFCURVE",
"134 0 OFFCURVE",
"167 0 CURVE SMOOTH",
"415 0 LINE SMOOTH",
"450 0 OFFCURVE",
"478 -1 OFFCURVE",
"512 -5 CURVE",
"557 157 LINE",
"509 167 LINE",
"484 113 OFFCURVE",
"464 74 OFFCURVE",
"452 57 CURVE",
"422 53 OFFCURVE",
"396 53 OFFCURVE",
"371 53 CURVE SMOOTH",
"279 53 LINE SMOOTH",
"248 53 OFFCURVE",
"229 55 OFFCURVE",
"212 57 CURVE",
"211 66 OFFCURVE",
"209 122 OFFCURVE",
"209 217 CURVE SMOOTH",
"209 442 LINE SMOOTH",
"209 572 OFFCURVE",
"213 598 OFFCURVE",
"217 605 CURVE",
"224 609 OFFCURVE",
"263 615 OFFCURVE",
"309 618 CURVE"
);
}
);
width = 562;
},
{
background = {
paths = (
{
closed = 1;
nodes = (
"352 664 LINE",
"291 661 OFFCURVE",
"249 659 OFFCURVE",
"194 659 CURVE SMOOTH",
"149 659 OFFCURVE",
"70 661 OFFCURVE",
"36 663 CURVE",
"33 607 LINE",
"61 606 OFFCURVE",
"93 599 OFFCURVE",
"104 591 CURVE",
"108 583 OFFCURVE",
"112 527 OFFCURVE",
"112 421 CURVE SMOOTH",
"112 239 LINE SMOOTH",
"112 133 OFFCURVE",
"108 77 OFFCURVE",
"104 69 CURVE",
"93 61 OFFCURVE",
"61 54 OFFCURVE",
"33 51 CURVE",
"36 -5 LINE",
"70 -1 OFFCURVE",
"136 0 OFFCURVE",
"181 0 CURVE SMOOTH",
"375 0 LINE SMOOTH",
"419 0 OFFCURVE",
"496 -3 OFFCURVE",
"534 -7 CURVE",
"587 183 LINE",
"527 195 LINE",
"504 148 OFFCURVE",
"485 109 OFFCURVE",
"466 80 CURVE",
"447 77 OFFCURVE",
"434 74 OFFCURVE",
"386 74 CURVE SMOOTH",
"344 74 LINE SMOOTH",
"302 74 OFFCURVE",
"278 76 OFFCURVE",
"254 79 CURVE",
"252 94 OFFCURVE",
"250 144 OFFCURVE",
"250 239 CURVE SMOOTH",
"250 421 LINE SMOOTH",
"250 527 OFFCURVE",
"254 582 OFFCURVE",
"258 590 CURVE",
"269 598 OFFCURVE",
"301 604 OFFCURVE",
"355 607 CURVE"
);
}
);
};
color = -1;
layerId = "6D340022-02C4-426D-A0D8-A7BFACBEB22E";
paths = (
{
closed = 1;
nodes = (
"352 664 LINE",
"291 661 OFFCURVE",
"249 659 OFFCURVE",
"194 659 CURVE SMOOTH",
"149 659 OFFCURVE",
"70 661 OFFCURVE",
"36 663 CURVE",
"33 607 LINE",
"61 606 OFFCURVE",
"93 599 OFFCURVE",
"104 591 CURVE",
"108 583 OFFCURVE",
"112 527 OFFCURVE",
"112 421 CURVE SMOOTH",
"112 239 LINE SMOOTH",
"112 133 OFFCURVE",
"108 77 OFFCURVE",
"104 69 CURVE",
"93 61 OFFCURVE",
"61 54 OFFCURVE",
"33 51 CURVE",
"36 -5 LINE",
"70 -1 OFFCURVE",
"136 0 OFFCURVE",
"181 0 CURVE SMOOTH",
"383 0 LINE SMOOTH",
"427 0 OFFCURVE",
"504 -3 OFFCURVE",
"542 -7 CURVE",
"595 183 LINE",
"530 198 LINE",
"507 150 OFFCURVE",
"488 109 OFFCURVE",
"469 80 CURVE",
"450 77 OFFCURVE",
"437 74 OFFCURVE",
"389 74 CURVE SMOOTH",
"344 74 LINE SMOOTH",
"302 74 OFFCURVE",
"278 76 OFFCURVE",
"254 79 CURVE",
"252 94 OFFCURVE",
"250 144 OFFCURVE",
"250 239 CURVE SMOOTH",
"250 421 LINE SMOOTH",
"250 527 OFFCURVE",
"254 582 OFFCURVE",
"258 590 CURVE",
"269 598 OFFCURVE",
"301 604 OFFCURVE",
"355 607 CURVE"
);
}
);
width = 594;
}
);
leftKerningGroup = B;
note = L;
rightKerningGroup = L;
unicode = 004C;
},
{
color = 4;
glyphname = M;
lastChange = "2018-05-01 14:46:29 +0000";
layers = (
{
background = {
paths = (
{
closed = 1;
nodes = (
"69 619 LINE",
"97 619 OFFCURVE",
"135 609 OFFCURVE",
"143 605 CURVE",
"144 587 OFFCURVE",
"144 554 OFFCURVE",
"140 450 CURVE SMOOTH",
"133 284 LINE SMOOTH",
"128 169 OFFCURVE",
"124 71 OFFCURVE",
"120 54 CURVE",
"113 50 OFFCURVE",
"78 40 OFFCURVE",
"49 39 CURVE",
"51 -3 LINE",
"89 0 OFFCURVE",
"121 2 OFFCURVE",
"153 2 CURVE SMOOTH",
"179 2 OFFCURVE",
"217 0 OFFCURVE",
"254 -3 CURVE",
"256 39 LINE",
"228 40 OFFCURVE",
"193 50 OFFCURVE",
"186 54 CURVE",
"183 71 OFFCURVE",
"183 169 OFFCURVE",
"189 302 CURVE SMOOTH",
"203 627 LINE",
"182 627 LINE",
"440 -4 LINE",
"473 -4 LINE",
"714 627 LINE",
"699 627 LINE",
"723 232 LINE SMOOTH",
"730 119 OFFCURVE",
"732 61 OFFCURVE",
"729 54 CURVE",
"722 50 OFFCURVE",
"687 40 OFFCURVE",
"661 39 CURVE",
"663 -3 LINE",
"698 0 OFFCURVE",
"747 2 OFFCURVE",
"778 2 CURVE SMOOTH",
"809 2 OFFCURVE",
"860 0 OFFCURVE",
"895 -3 CURVE",
"897 39 LINE",
"871 40 OFFCURVE",
"836 50 OFFCURVE",
"829 54 CURVE",
"825 81 OFFCURVE",
"818 139 OFFCURVE",
"809 295 CURVE SMOOTH",
"800 450 LINE SMOOTH",
"794 554 OFFCURVE",
"791 598 OFFCURVE",
"792 605 CURVE",
"800 609 OFFCURVE",
"837 619 OFFCURVE",
"865 619 CURVE",
"863 661 LINE",
"831 659 OFFCURVE",
"793 659 OFFCURVE",
"763 659 CURVE SMOOTH",
"732 659 OFFCURVE",
"701 660 OFFCURVE",
"671 661 CURVE",
"461 111 LINE",
"484 111 LINE",
"265 661 LINE",
"235 660 OFFCURVE",
"202 659 OFFCURVE",
"172 659 CURVE SMOOTH",
"142 659 OFFCURVE",
"103 659 OFFCURVE",
"71 661 CURVE"
);
}
);
};
color = -1;
layerId = "D75C065C-4EF6-4055-9CF2-70010DBCD897";
paths = (
{
closed = 1;
nodes = (
"67 619 LINE",
"95 619 OFFCURVE",
"133 609 OFFCURVE",
"141 605 CURVE",
"142 587 OFFCURVE",
"142 554 OFFCURVE",
"138 450 CURVE SMOOTH",
"131 284 LINE SMOOTH",
"126 169 OFFCURVE",
"122 71 OFFCURVE",
"118 54 CURVE",
"111 50 OFFCURVE",
"76 40 OFFCURVE",
"47 39 CURVE",
"49 -3 LINE",
"87 0 OFFCURVE",
"119 2 OFFCURVE",
"151 2 CURVE SMOOTH",
"179 2 OFFCURVE",
"217 0 OFFCURVE",
"254 -3 CURVE",
"256 39 LINE",
"228 40 OFFCURVE",
"193 50 OFFCURVE",
"186 54 CURVE",
"183 71 OFFCURVE",
"183 169 OFFCURVE",
"189 302 CURVE SMOOTH",
"203 627 LINE",
"182 627 LINE",
"438 -4 LINE",
"471 -4 LINE",
"714 627 LINE",
"699 627 LINE",
"724 212 LINE SMOOTH",
"730 119 OFFCURVE",
"731 72 OFFCURVE",
"730 54 CURVE",
"723 50 OFFCURVE",
"688 40 OFFCURVE",
"662 39 CURVE",
"664 -3 LINE",
"699 0 OFFCURVE",
"747 2 OFFCURVE",
"777 2 CURVE SMOOTH",
"808 2 OFFCURVE",
"858 0 OFFCURVE",
"893 -3 CURVE",
"895 39 LINE",
"869 40 OFFCURVE",
"834 50 OFFCURVE",
"826 54 CURVE",
"823 81 OFFCURVE",
"818 139 OFFCURVE",
"813 235 CURVE SMOOTH",
"801 450 LINE SMOOTH",
"795 554 OFFCURVE",
"791 598 OFFCURVE",
"792 605 CURVE",
"800 609 OFFCURVE",
"837 619 OFFCURVE",
"865 619 CURVE",
"863 661 LINE",
"831 659 OFFCURVE",
"793 659 OFFCURVE",
"763 659 CURVE SMOOTH",
"732 659 OFFCURVE",
"699 660 OFFCURVE",
"669 661 CURVE",
"458 111 LINE",
"483 111 LINE",
"267 661 LINE",
"237 660 OFFCURVE",
"202 659 OFFCURVE",
"172 659 CURVE SMOOTH",
"140 659 OFFCURVE",
"101 659 OFFCURVE",
"69 661 CURVE"
);
}
);
width = 940;
},
{
background = {
paths = (
{
closed = 1;
nodes = (
"71 607 LINE",
"102 606 OFFCURVE",
"136 599 OFFCURVE",
"147 591 CURVE",
"147 580 OFFCURVE",
"146 554 OFFCURVE",
"138 450 CURVE SMOOTH",
"125 285 LINE SMOOTH",
"113 139 OFFCURVE",
"109 77 OFFCURVE",
"105 69 CURVE",
"94 61 OFFCURVE",
"61 55 OFFCURVE",
"30 53 CURVE",
"33 -4 LINE",
"70 -1 OFFCURVE",
"122 1 OFFCURVE",
"148 1 CURVE SMOOTH",
"173 1 OFFCURVE",
"225 -1 OFFCURVE",
"262 -4 CURVE",
"265 53 LINE",
"234 55 OFFCURVE",
"199 61 OFFCURVE",
"188 69 CURVE",
"188 80 OFFCURVE",
"190 159 OFFCURVE",
"201 302 CURVE SMOOTH",
"225 627 LINE",
"170 627 LINE",
"447 -4 LINE",
"510 -4 LINE",
"754 627 LINE",
"717 627 LINE",
"753 262 LINE SMOOTH",
"767 119 OFFCURVE",
"769 78 OFFCURVE",
"769 69 CURVE",
"758 61 OFFCURVE",
"724 54 OFFCURVE",
"696 52 CURVE",
"699 -4 LINE",
"733 -1 OFFCURVE",
"818 2 OFFCURVE",
"848 2 CURVE SMOOTH",
"879 2 OFFCURVE",
"961 -1 OFFCURVE",
"997 -4 CURVE",
"1000 52 LINE",
"972 54 OFFCURVE",
"938 61 OFFCURVE",
"927 69 CURVE",
"923 82 OFFCURVE",
"918 119 OFFCURVE",
"903 265 CURVE SMOOTH",
"884 450 LINE SMOOTH",
"873 554 OFFCURVE",
"873 582 OFFCURVE",
"874 591 CURVE",
"883 599 OFFCURVE",
"917 606 OFFCURVE",
"948 607 CURVE",
"945 662 LINE",
"908 660 OFFCURVE",
"852 659 OFFCURVE",
"822 659 CURVE SMOOTH",
"791 659 OFFCURVE",
"725 660 OFFCURVE",
"695 661 CURVE",
"496 147 LINE",
"528 147 LINE",
"311 661 LINE",
"281 660 OFFCURVE",
"223 659 OFFCURVE",
"193 659 CURVE SMOOTH",
"163 659 OFFCURVE",
"111 660 OFFCURVE",
"74 662 CURVE"
);
}
);
};
color = -1;
layerId = "6D340022-02C4-426D-A0D8-A7BFACBEB22E";
paths = (
{
closed = 1;
nodes = (
"68 607 LINE",
"99 606 OFFCURVE",
"133 599 OFFCURVE",
"144 591 CURVE",
"144 580 OFFCURVE",
"144 554 OFFCURVE",
"136 450 CURVE SMOOTH",
"124 285 LINE SMOOTH",
"113 139 OFFCURVE",
"110 77 OFFCURVE",
"106 69 CURVE",
"95 61 OFFCURVE",
"62 55 OFFCURVE",
"31 53 CURVE",
"34 -4 LINE",
"71 -1 OFFCURVE",
"124 1 OFFCURVE",
"150 1 CURVE SMOOTH",
"175 1 OFFCURVE",
"227 -1 OFFCURVE",
"264 -4 CURVE",
"267 53 LINE",
"236 55 OFFCURVE",
"201 61 OFFCURVE",
"190 69 CURVE",
"190 80 OFFCURVE",
"193 159 OFFCURVE",
"201 302 CURVE SMOOTH",
"220 627 LINE",
"167 627 LINE",
"444 -4 LINE",
"507 -4 LINE",
"751 627 LINE",
"714 627 LINE",
"754 262 LINE SMOOTH",
"769 119 OFFCURVE",
"771 78 OFFCURVE",
"771 69 CURVE",
"760 61 OFFCURVE",
"726 54 OFFCURVE",
"698 52 CURVE",
"701 -4 LINE",
"735 -1 OFFCURVE",
"820 2 OFFCURVE",
"850 2 CURVE SMOOTH",
"881 2 OFFCURVE",
"963 -1 OFFCURVE",
"999 -4 CURVE",
"1002 52 LINE",
"974 54 OFFCURVE",
"940 61 OFFCURVE",
"929 69 CURVE",
"925 82 OFFCURVE",
"920 119 OFFCURVE",
"904 265 CURVE SMOOTH",
"883 450 LINE SMOOTH",
"871 554 OFFCURVE",
"871 582 OFFCURVE",
"872 591 CURVE",
"881 599 OFFCURVE",
"915 606 OFFCURVE",
"946 607 CURVE",
"943 662 LINE",
"906 660 OFFCURVE",
"849 659 OFFCURVE",
"819 659 CURVE SMOOTH",
"788 659 OFFCURVE",
"720 660 OFFCURVE",
"690 661 CURVE",
"492 147 LINE",
"524 147 LINE",
"308 661 LINE",
"278 660 OFFCURVE",
"220 659 OFFCURVE",
"190 659 CURVE SMOOTH",
"160 659 OFFCURVE",
"108 660 OFFCURVE",
"71 662 CURVE"
);
}
);
width = 1023;
}
);
leftKerningGroup = M;
note = M;
rightKerningGroup = M;
unicode = 004D;
},
{
color = 4;
glyphname = N;
lastChange = "2018-05-01 14:46:29 +0000";
layers = (
{
background = {
paths = (
{
closed = 1;
nodes = (
"570 154 LINE",
"198 661 LINE",
"179 660 OFFCURVE",
"151 658 OFFCURVE",
"126 658 CURVE SMOOTH",
"101 658 OFFCURVE",
"81 658 OFFCURVE",
"46 659 CURVE",
"44 617 LINE",
"70 618 OFFCURVE",
"105 609 OFFCURVE",
"112 605 CURVE",
"117 588 OFFCURVE",
"120 572 OFFCURVE",
"120 442 CURVE SMOOTH",
"120 267 LINE SMOOTH",
"120 107 OFFCURVE",
"116 61 OFFCURVE",
"112 54 CURVE",
"105 50 OFFCURVE",
"68 40 OFFCURVE",
"39 39 CURVE",
"41 -3 LINE",
"79 0 OFFCURVE",
"115 2 OFFCURVE",
"146 2 CURVE SMOOTH",
"177 2 OFFCURVE",
"223 0 OFFCURVE",
"261 -3 CURVE",
"263 39 LINE",
"234 40 OFFCURVE",
"197 50 OFFCURVE",
"190 54 CURVE",
"186 61 OFFCURVE",
"182 107 OFFCURVE",
"182 267 CURVE SMOOTH",
"182 554 LINE",
"160 554 LINE",
"567 -4 LINE",
"613 -4 LINE",
"613 48 OFFCURVE",
"612 98 OFFCURVE",
"612 139 CURVE SMOOTH",
"612 393 LINE SMOOTH",
"612 553 OFFCURVE",
"616 599 OFFCURVE",
"620 606 CURVE",
"627 610 OFFCURVE",
"664 619 OFFCURVE",
"693 619 CURVE",
"691 661 LINE",
"653 659 OFFCURVE",
"617 658 OFFCURVE",
"585 658 CURVE SMOOTH",
"555 658 OFFCURVE",
"511 659 OFFCURVE",
"473 661 CURVE",
"471 619 LINE",
"500 619 OFFCURVE",
"537 610 OFFCURVE",
"544 606 CURVE",
"548 599 OFFCURVE",
"552 553 OFFCURVE",
"552 393 CURVE SMOOTH",
"552 154 LINE"
);
}
);
};
color = -1;
layerId = "D75C065C-4EF6-4055-9CF2-70010DBCD897";
paths = (
{
closed = 1;
nodes = (
"569 150 LINE",
"198 661 LINE",
"179 660 OFFCURVE",
"151 658 OFFCURVE",
"126 658 CURVE SMOOTH",
"101 658 OFFCURVE",
"81 658 OFFCURVE",
"46 659 CURVE",
"44 617 LINE",
"70 618 OFFCURVE",
"105 609 OFFCURVE",
"112 605 CURVE",
"117 588 OFFCURVE",
"120 572 OFFCURVE",
"120 442 CURVE SMOOTH",
"120 237 LINE SMOOTH",
"120 107 OFFCURVE",
"116 61 OFFCURVE",
"112 54 CURVE",
"105 50 OFFCURVE",
"68 40 OFFCURVE",
"39 39 CURVE",
"41 -3 LINE",
"79 0 OFFCURVE",
"114 2 OFFCURVE",
"145 2 CURVE SMOOTH",
"176 2 OFFCURVE",
"221 0 OFFCURVE",
"259 -3 CURVE",
"261 39 LINE",
"232 40 OFFCURVE",
"195 50 OFFCURVE",
"188 54 CURVE",
"184 61 OFFCURVE",
"180 107 OFFCURVE",
"180 237 CURVE SMOOTH",
"180 558 LINE",
"161 558 LINE",
"567 -4 LINE",
"613 -4 LINE",
"613 48 OFFCURVE",
"612 98 OFFCURVE",
"612 139 CURVE SMOOTH",
"612 423 LINE SMOOTH",
"612 553 OFFCURVE",
"616 599 OFFCURVE",
"620 606 CURVE",
"627 610 OFFCURVE",
"664 619 OFFCURVE",
"693 619 CURVE",
"691 661 LINE",
"653 659 OFFCURVE",
"618 658 OFFCURVE",
"586 658 CURVE SMOOTH",
"556 658 OFFCURVE",
"513 659 OFFCURVE",
"475 661 CURVE",
"473 619 LINE",
"502 619 OFFCURVE",
"539 610 OFFCURVE",
"546 606 CURVE",
"550 599 OFFCURVE",
"554 553 OFFCURVE",
"554 423 CURVE SMOOTH",
"554 150 LINE"
);
}
);
width = 734;
},
{
background = {
paths = (
{
closed = 1;
nodes = (
"599 206 LINE",
"207 661 LINE",
"188 660 OFFCURVE",
"150 658 OFFCURVE",
"125 658 CURVE SMOOTH",
"100 658 OFFCURVE",
"68 660 OFFCURVE",
"33 662 CURVE",
"30 607 LINE",
"58 606 OFFCURVE",
"90 599 OFFCURVE",
"101 591 CURVE",
"105 583 OFFCURVE",
"109 527 OFFCURVE",
"109 442 CURVE SMOOTH",
"109 277 LINE SMOOTH",
"109 133 OFFCURVE",
"105 77 OFFCURVE",
"101 69 CURVE",
"90 61 OFFCURVE",
"56 54 OFFCURVE",
"25 51 CURVE",
"28 -5 LINE",
"65 -1 OFFCURVE",
"113 2 OFFCURVE",
"143 2 CURVE SMOOTH",
"173 2 OFFCURVE",
"231 -1 OFFCURVE",
"268 -5 CURVE",
"271 51 LINE",
"240 54 OFFCURVE",
"206 61 OFFCURVE",
"195 69 CURVE",
"191 77 OFFCURVE",
"187 133 OFFCURVE",
"187 277 CURVE SMOOTH",
"187 540 LINE",
"138 540 LINE",
"596 -4 LINE",
"643 -4 LINE",
"642 48 OFFCURVE",
"641 98 OFFCURVE",
"641 139 CURVE SMOOTH",
"641 393 LINE SMOOTH",
"641 527 OFFCURVE",
"645 583 OFFCURVE",
"649 591 CURVE",
"660 599 OFFCURVE",
"694 605 OFFCURVE",
"725 607 CURVE",
"722 663 LINE",
"685 660 OFFCURVE",
"643 659 OFFCURVE",
"607 659 CURVE SMOOTH",
"573 659 OFFCURVE",
"519 660 OFFCURVE",
"482 663 CURVE",
"479 607 LINE",
"510 605 OFFCURVE",
"544 599 OFFCURVE",
"555 591 CURVE",
"559 583 OFFCURVE",
"563 527 OFFCURVE",
"563 393 CURVE SMOOTH",
"563 206 LINE"
);
}
);
};
color = -1;
layerId = "6D340022-02C4-426D-A0D8-A7BFACBEB22E";
paths = (
{
closed = 1;
nodes = (
"604 191 LINE",
"207 661 LINE",
"188 660 OFFCURVE",
"150 659 OFFCURVE",
"125 659 CURVE SMOOTH",
"100 659 OFFCURVE",
"68 660 OFFCURVE",
"33 662 CURVE",
"30 607 LINE",
"58 606 OFFCURVE",
"90 599 OFFCURVE",
"101 591 CURVE",
"105 583 OFFCURVE",
"109 527 OFFCURVE",
"109 442 CURVE SMOOTH",
"109 277 LINE SMOOTH",
"109 133 OFFCURVE",
"105 77 OFFCURVE",
"101 69 CURVE",
"90 61 OFFCURVE",
"56 54 OFFCURVE",
"25 51 CURVE",
"28 -5 LINE",
"65 -1 OFFCURVE",
"113 2 OFFCURVE",
"145 2 CURVE SMOOTH",
"177 2 OFFCURVE",
"234 -1 OFFCURVE",
"271 -5 CURVE",
"274 51 LINE",
"243 54 OFFCURVE",
"209 61 OFFCURVE",
"198 69 CURVE",
"194 77 OFFCURVE",
"188 133 OFFCURVE",
"189 277 CURVE SMOOTH",
"190 529 LINE",
"138 529 LINE",
"579 -5 LINE",
"642 -5 LINE",
"642 47 OFFCURVE",
"641 97 OFFCURVE",
"641 158 CURVE SMOOTH",
"641 393 LINE SMOOTH",
"641 527 OFFCURVE",
"645 583 OFFCURVE",
"649 591 CURVE",
"660 599 OFFCURVE",
"694 605 OFFCURVE",
"725 607 CURVE",
"722 663 LINE",
"685 660 OFFCURVE",
"643 659 OFFCURVE",
"608 659 CURVE SMOOTH",
"575 659 OFFCURVE",
"521 660 OFFCURVE",
"484 663 CURVE",
"481 607 LINE",
"512 605 OFFCURVE",
"546 599 OFFCURVE",
"557 591 CURVE",
"561 583 OFFCURVE",
"565 527 OFFCURVE",
"565 393 CURVE SMOOTH",
"565 191 LINE"
);
}
);
width = 750;
}
);
leftKerningGroup = N;
note = N;
rightKerningGroup = N;
unicode = 004E;
},
{
color = 3;
glyphname = Eng;
lastChange = "2018-05-02 10:10:42 +0000";
layers = (
{
background = {
paths = (
{
closed = 1;
nodes = (
"569 150 LINE",
"198 661 LINE",
"179 660 OFFCURVE",
"151 658 OFFCURVE",
"126 658 CURVE SMOOTH",
"101 658 OFFCURVE",
"81 658 OFFCURVE",
"46 659 CURVE",
"44 617 LINE",
"70 618 OFFCURVE",
"105 609 OFFCURVE",
"112 605 CURVE",
"117 588 OFFCURVE",
"120 572 OFFCURVE",
"120 442 CURVE SMOOTH",
"120 237 LINE SMOOTH",
"120 107 OFFCURVE",
"116 61 OFFCURVE",
"112 54 CURVE",
"105 50 OFFCURVE",
"68 40 OFFCURVE",
"39 39 CURVE",
"41 -3 LINE",
"79 0 OFFCURVE",
"114 2 OFFCURVE",
"145 2 CURVE SMOOTH",
"176 2 OFFCURVE",
"221 0 OFFCURVE",
"259 -3 CURVE",
"261 39 LINE",
"232 40 OFFCURVE",
"195 50 OFFCURVE",
"188 54 CURVE",
"184 61 OFFCURVE",
"180 107 OFFCURVE",
"180 237 CURVE SMOOTH",
"180 558 LINE",
"161 558 LINE",
"567 -4 LINE",
"613 -4 LINE",
"613 48 OFFCURVE",
"612 98 OFFCURVE",
"612 139 CURVE SMOOTH",
"612 423 LINE SMOOTH",
"612 553 OFFCURVE",
"616 599 OFFCURVE",
"620 606 CURVE",
"627 610 OFFCURVE",
"664 619 OFFCURVE",
"693 619 CURVE",
"691 661 LINE",
"653 659 OFFCURVE",
"618 658 OFFCURVE",
"586 658 CURVE SMOOTH",
"556 658 OFFCURVE",
"513 659 OFFCURVE",
"475 661 CURVE",
"473 619 LINE",
"502 619 OFFCURVE",
"539 610 OFFCURVE",
"546 606 CURVE",
"550 599 OFFCURVE",
"554 553 OFFCURVE",
"554 423 CURVE SMOOTH",
"554 150 LINE"
);
},
{
closed = 1;
nodes = (
"640 615 OFFCURVE",
"673 625 OFFCURVE",
"697 626 CURVE",
"695 662 LINE",
"662 659 OFFCURVE",
"613 657 OFFCURVE",
"582 657 CURVE SMOOTH",
"549 657 OFFCURVE",
"498 659 OFFCURVE",
"461 662 CURVE",
"459 626 LINE",
"487 625 OFFCURVE",
"524 615 OFFCURVE",
"531 611 CURVE",
"535 604 OFFCURVE",
"539 572 OFFCURVE",
"539 442 CURVE SMOOTH",
"538 -32 LINE",
"538 -169 OFFCURVE",
"497 -195 OFFCURVE",
"443 -186 CURVE",
"479 -196 LINE",
"424 -143 LINE SMOOTH",
"406 -126 OFFCURVE",
"388 -116 OFFCURVE",
"369 -116 CURVE SMOOTH",
"344 -116 OFFCURVE",
"328 -130 OFFCURVE",
"328 -153 CURVE SMOOTH",
"328 -192 OFFCURVE",
"387 -228 OFFCURVE",
"447 -228 CURVE SMOOTH",
"547 -228 OFFCURVE",
"626 -148 OFFCURVE",
"626 23 CURVE",
"625 442 LINE",
"625 572 OFFCURVE",
"629 604 OFFCURVE",
"633 611 CURVE"
);
}
);
};
color = -1;
layerId = "D75C065C-4EF6-4055-9CF2-70010DBCD897";
paths = (
{
closed = 1;
nodes = (
"551 -228 OFFCURVE",
"612 -148 OFFCURVE",
"612 16 CURVE SMOOTH",
"612 423 LINE SMOOTH",
"612 553 OFFCURVE",
"616 599 OFFCURVE",
"620 606 CURVE",
"627 610 OFFCURVE",
"664 619 OFFCURVE",
"693 619 CURVE",
"691 661 LINE",
"653 659 OFFCURVE",
"618 658 OFFCURVE",
"586 658 CURVE SMOOTH",
"556 658 OFFCURVE",
"513 659 OFFCURVE",
"475 661 CURVE",
"473 619 LINE",
"502 619 OFFCURVE",
"539 610 OFFCURVE",
"546 606 CURVE",
"550 599 OFFCURVE",
"554 553 OFFCURVE",
"554 423 CURVE SMOOTH",
"554 150 LINE",
"569 150 LINE",
"198 661 LINE",
"179 660 OFFCURVE",
"151 658 OFFCURVE",
"126 658 CURVE SMOOTH",
"101 658 OFFCURVE",
"81 658 OFFCURVE",
"46 659 CURVE",
"44 617 LINE",
"70 618 OFFCURVE",
"105 609 OFFCURVE",
"112 605 CURVE",
"117 588 OFFCURVE",
"120 572 OFFCURVE",
"120 442 CURVE SMOOTH",
"120 237 LINE SMOOTH",
"120 107 OFFCURVE",
"116 61 OFFCURVE",
"112 54 CURVE",
"105 50 OFFCURVE",
"68 40 OFFCURVE",
"39 39 CURVE",
"41 -3 LINE",
"79 0 OFFCURVE",
"114 2 OFFCURVE",
"145 2 CURVE SMOOTH",
"176 2 OFFCURVE",
"221 0 OFFCURVE",
"259 -3 CURVE",
"261 39 LINE",
"232 40 OFFCURVE",
"195 50 OFFCURVE",
"188 54 CURVE",
"184 61 OFFCURVE",
"180 107 OFFCURVE",
"180 237 CURVE SMOOTH",
"180 558 LINE",
"161 558 LINE",
"567 -4 LINE",
"552 60 LINE",
"552 -22 LINE SMOOTH",
"552 -147 OFFCURVE",
"499 -190 OFFCURVE",
"445 -181 CURVE",
"489 -196 LINE",
"434 -143 LINE SMOOTH",
"416 -126 OFFCURVE",
"398 -116 OFFCURVE",
"379 -116 CURVE SMOOTH",
"354 -116 OFFCURVE",
"338 -130 OFFCURVE",
"338 -153 CURVE SMOOTH",
"338 -192 OFFCURVE",
"395 -228 OFFCURVE",
"455 -228 CURVE SMOOTH"
);
}
);
width = 734;
},
{
background = {
paths = (
{
closed = 1;
nodes = (
"604 191 LINE",
"207 661 LINE",
"188 660 OFFCURVE",
"150 659 OFFCURVE",
"125 659 CURVE SMOOTH",
"100 659 OFFCURVE",
"68 660 OFFCURVE",
"33 662 CURVE",
"30 607 LINE",
"58 606 OFFCURVE",
"90 599 OFFCURVE",
"101 591 CURVE",
"105 583 OFFCURVE",
"109 527 OFFCURVE",
"109 442 CURVE SMOOTH",
"109 277 LINE SMOOTH",
"109 133 OFFCURVE",
"105 77 OFFCURVE",
"101 69 CURVE",
"90 61 OFFCURVE",
"56 54 OFFCURVE",
"25 51 CURVE",
"28 -5 LINE",
"65 -1 OFFCURVE",
"113 2 OFFCURVE",
"145 2 CURVE SMOOTH",
"177 2 OFFCURVE",
"234 -1 OFFCURVE",
"271 -5 CURVE",
"274 51 LINE",
"243 54 OFFCURVE",
"209 61 OFFCURVE",
"198 69 CURVE",
"194 77 OFFCURVE",
"188 133 OFFCURVE",
"189 277 CURVE SMOOTH",
"190 529 LINE",
"138 529 LINE",
"579 -5 LINE",
"642 -5 LINE",
"642 47 OFFCURVE",
"641 97 OFFCURVE",
"641 158 CURVE SMOOTH",
"641 393 LINE SMOOTH",
"641 527 OFFCURVE",
"645 583 OFFCURVE",
"649 591 CURVE",
"660 599 OFFCURVE",
"694 605 OFFCURVE",
"725 607 CURVE",
"722 663 LINE",
"685 660 OFFCURVE",
"643 659 OFFCURVE",
"608 659 CURVE SMOOTH",
"575 659 OFFCURVE",
"521 660 OFFCURVE",
"484 663 CURVE",
"481 607 LINE",
"512 605 OFFCURVE",
"546 599 OFFCURVE",
"557 591 CURVE",
"561 583 OFFCURVE",
"565 527 OFFCURVE",
"565 393 CURVE SMOOTH",
"565 191 LINE"
);
},
{
closed = 1;
nodes = (
"692 599 OFFCURVE",
"724 606 OFFCURVE",
"752 607 CURVE",
"749 663 LINE",
"715 661 OFFCURVE",
"658 659 OFFCURVE",
"604 659 CURVE SMOOTH",
"550 659 OFFCURVE",
"493 661 OFFCURVE",
"459 663 CURVE",
"456 607 LINE",
"484 606 OFFCURVE",
"516 599 OFFCURVE",
"527 591 CURVE",
"531 583 OFFCURVE",
"535 527 OFFCURVE",
"535 422 CURVE SMOOTH",
"536 -26 LINE",
"536 -162 OFFCURVE",
"514 -180 OFFCURVE",
"464 -172 CURVE",
"521 -190 LINE",
"446 -122 LINE SMOOTH",
"417 -96 OFFCURVE",
"397 -87 OFFCURVE",
"373 -87 CURVE SMOOTH",
"344 -87 OFFCURVE",
"321 -105 OFFCURVE",
"321 -138 CURVE SMOOTH",
"321 -190 OFFCURVE",
"389 -228 OFFCURVE",
"479 -228 CURVE SMOOTH",
"583 -228 OFFCURVE",
"675 -149 OFFCURVE",
"675 10 CURVE",
"673 421 LINE",
"673 527 OFFCURVE",
"677 583 OFFCURVE",
"681 591 CURVE"
);
}
);
};
color = -1;
layerId = "6D340022-02C4-426D-A0D8-A7BFACBEB22E";
paths = (
{
closed = 1;
nodes = (
"581 -228 OFFCURVE",
"641 -147 OFFCURVE",
"641 22 CURVE SMOOTH",
"641 393 LINE SMOOTH",
"641 527 OFFCURVE",
"645 583 OFFCURVE",
"649 591 CURVE",
"660 599 OFFCURVE",
"694 605 OFFCURVE",
"725 607 CURVE",
"722 663 LINE",
"685 660 OFFCURVE",
"643 659 OFFCURVE",
"608 659 CURVE SMOOTH",
"575 659 OFFCURVE",
"521 660 OFFCURVE",
"484 663 CURVE",
"481 607 LINE",
"512 605 OFFCURVE",
"546 599 OFFCURVE",
"557 591 CURVE",
"561 583 OFFCURVE",
"565 527 OFFCURVE",
"565 393 CURVE SMOOTH",
"565 191 LINE",
"604 191 LINE",
"207 661 LINE",
"188 660 OFFCURVE",
"150 659 OFFCURVE",
"125 659 CURVE SMOOTH",
"100 659 OFFCURVE",
"68 660 OFFCURVE",
"33 662 CURVE",
"30 607 LINE",
"58 606 OFFCURVE",
"90 599 OFFCURVE",
"101 591 CURVE",
"105 583 OFFCURVE",
"109 527 OFFCURVE",
"109 442 CURVE SMOOTH",
"109 277 LINE SMOOTH",
"109 133 OFFCURVE",
"105 77 OFFCURVE",
"101 69 CURVE",
"90 61 OFFCURVE",
"56 54 OFFCURVE",
"25 51 CURVE",
"28 -5 LINE",
"65 -1 OFFCURVE",
"113 2 OFFCURVE",
"145 2 CURVE SMOOTH",
"177 2 OFFCURVE",
"234 -1 OFFCURVE",
"271 -5 CURVE",
"274 51 LINE",
"243 54 OFFCURVE",
"209 61 OFFCURVE",
"198 69 CURVE",
"194 77 OFFCURVE",
"188 133 OFFCURVE",
"189 277 CURVE SMOOTH",
"190 529 LINE",
"138 529 LINE",
"579 -5 LINE",
"564 66 LINE",
"564 -30 LINE SMOOTH",
"564 -142 OFFCURVE",
"514 -174 OFFCURVE",
"464 -166 CURVE",
"521 -190 LINE",
"446 -122 LINE SMOOTH",
"417 -96 OFFCURVE",
"397 -87 OFFCURVE",
"373 -87 CURVE SMOOTH",
"344 -87 OFFCURVE",
"321 -105 OFFCURVE",
"321 -138 CURVE SMOOTH",
"321 -190 OFFCURVE",
"387 -228 OFFCURVE",
"467 -228 CURVE SMOOTH"
);
}
);
width = 750;
}
);
leftMetricsKey = N;
widthMetricsKey = N;
note = Eng;
unicode = 014A;
},
{
color = 4;
glyphname = O;
lastChange = "2018-05-01 14:46:29 +0000";
layers = (
{
background = {
paths = (
{
closed = 1;
nodes = (
"567 -10 OFFCURVE",
"708 142 OFFCURVE",
"708 333 CURVE SMOOTH",
"708 532 OFFCURVE",
"579 670 OFFCURVE",
"393 670 CURVE SMOOTH",
"202 670 OFFCURVE",
"58 525 OFFCURVE",
"58 328 CURVE SMOOTH",
"58 128 OFFCURVE",
"194 -10 OFFCURVE",
"389 -10 CURVE SMOOTH"
);
},
{
closed = 1;
nodes = (
"264 44 OFFCURVE",
"166 170 OFFCURVE",
"166 346 CURVE SMOOTH",
"166 514 OFFCURVE",
"247 618 OFFCURVE",
"380 618 CURVE SMOOTH",
"513 618 OFFCURVE",
"604 491 OFFCURVE",
"604 308 CURVE SMOOTH",
"604 148 OFFCURVE",
"524 44 OFFCURVE",
"401 44 CURVE SMOOTH"
);
}
);
};
color = -1;
layerId = "D75C065C-4EF6-4055-9CF2-70010DBCD897";
paths = (
{
closed = 1;
nodes = (
"567 -10 OFFCURVE",
"708 142 OFFCURVE",
"708 333 CURVE SMOOTH",
"708 532 OFFCURVE",
"579 670 OFFCURVE",
"393 670 CURVE SMOOTH",
"202 670 OFFCURVE",
"58 525 OFFCURVE",
"58 328 CURVE SMOOTH",
"58 128 OFFCURVE",
"194 -10 OFFCURVE",
"389 -10 CURVE SMOOTH"
);
},
{
closed = 1;
nodes = (
"263 44 OFFCURVE",
"164 170 OFFCURVE",
"164 346 CURVE SMOOTH",
"164 514 OFFCURVE",
"246 618 OFFCURVE",
"380 618 CURVE SMOOTH",
"514 618 OFFCURVE",
"606 491 OFFCURVE",
"606 308 CURVE SMOOTH",
"606 148 OFFCURVE",
"525 44 OFFCURVE",
"401 44 CURVE SMOOTH"
);
}
);
width = 766;
},
{
background = {
paths = (
{
closed = 1;
nodes = (
"1359 -10 OFFCURVE",
"1539 117 OFFCURVE",
"1539 337 CURVE SMOOTH",
"1539 534 OFFCURVE",
"1401 670 OFFCURVE",
"1204 670 CURVE SMOOTH",
"1002 670 OFFCURVE",
"852 524 OFFCURVE",
"852 323 CURVE SMOOTH",
"852 127 OFFCURVE",
"999 -10 OFFCURVE",
"1203 -10 CURVE SMOOTH"
);
},
{
closed = 1;
nodes = (
"1103 57 OFFCURVE",
"1014 191 OFFCURVE",
"1014 370 CURVE SMOOTH",
"1014 513 OFFCURVE",
"1076 605 OFFCURVE",
"1182 605 CURVE SMOOTH",
"1302 605 OFFCURVE",
"1383 475 OFFCURVE",
"1383 285 CURVE SMOOTH",
"1383 142 OFFCURVE",
"1325 57 OFFCURVE",
"1223 57 CURVE SMOOTH"
);
},
{
closed = 1;
nodes = (
"559 -10 OFFCURVE",
"739 117 OFFCURVE",
"739 337 CURVE SMOOTH",
"739 534 OFFCURVE",
"601 670 OFFCURVE",
"404 670 CURVE SMOOTH",
"202 670 OFFCURVE",
"52 524 OFFCURVE",
"52 323 CURVE SMOOTH",
"52 127 OFFCURVE",
"199 -10 OFFCURVE",
"403 -10 CURVE SMOOTH"
);
},
{
closed = 1;
nodes = (
"303 62 OFFCURVE",
"214 193 OFFCURVE",
"214 370 CURVE SMOOTH",
"214 511 OFFCURVE",
"276 602 OFFCURVE",
"381 602 CURVE SMOOTH",
"500 602 OFFCURVE",
"581 473 OFFCURVE",
"581 286 CURVE SMOOTH",
"581 144 OFFCURVE",
"523 62 OFFCURVE",
"422 62 CURVE SMOOTH"
);
}
);
};
color = -1;
layerId = "6D340022-02C4-426D-A0D8-A7BFACBEB22E";
paths = (
{
closed = 1;
nodes = (
"559 -10 OFFCURVE",
"739 117 OFFCURVE",
"739 337 CURVE SMOOTH",
"739 534 OFFCURVE",
"601 670 OFFCURVE",
"404 670 CURVE SMOOTH",
"202 670 OFFCURVE",
"52 524 OFFCURVE",
"52 323 CURVE SMOOTH",
"52 127 OFFCURVE",
"199 -10 OFFCURVE",
"403 -10 CURVE SMOOTH"
);
},
{
closed = 1;
nodes = (
"297 65 OFFCURVE",
"215 183 OFFCURVE",
"215 352 CURVE SMOOTH",
"215 505 OFFCURVE",
"280 602 OFFCURVE",
"391 602 CURVE SMOOTH",
"505 602 OFFCURVE",
"579 484 OFFCURVE",
"579 310 CURVE SMOOTH",
"579 154 OFFCURVE",
"519 65 OFFCURVE",
"412 65 CURVE SMOOTH"
);
}
);
width = 791;
}
);
leftKerningGroup = C;
note = O;
rightKerningGroup = D;
unicode = 004F;
},
{
glyphname = Oslash;
lastChange = "2018-04-26 09:21:48 +0000";
layers = (
{
color = -1;
layerId = "D75C065C-4EF6-4055-9CF2-70010DBCD897";
paths = (
{
closed = 1;
nodes = (
"569 645 LINE",
"573 650.333 OFFCURVE",
"550.667 664.333 OFFCURVE",
"540 667 CURVE",
"122 10 LINE",
"118 4.667 OFFCURVE",
"139 -9 OFFCURVE",
"151 -13 CURVE"
);
},
{
closed = 1;
nodes = (
"405.667 33 OFFCURVE",
"443 46.833 OFFCURVE",
"475 74.5 CURVE SMOOTH",
"539 129.833 OFFCURVE",
"568 215.667 OFFCURVE",
"568 309 CURVE SMOOTH",
"568 362.333 OFFCURVE",
"559.333 412.5 OFFCURVE",
"542 459.5 CURVE SMOOTH",
"507.333 553.5 OFFCURVE",
"430.667 625 OFFCURVE",
"332 625 CURVE SMOOTH",
"205.333 625 OFFCURVE",
"127 495.333 OFFCURVE",
"127 350 CURVE SMOOTH",
"127 296.667 OFFCURVE",
"135.667 246.333 OFFCURVE",
"153 199 CURVE SMOOTH",
"187.667 104.333 OFFCURVE",
"264.333 33 OFFCURVE",
"363 33 CURVE SMOOTH"
);
}
);
width = 696;
},
{
background = {
paths = (
{
closed = 1;
nodes = (
"512 198 OFFCURVE",
"437 46 OFFCURVE",
"362 46 QCURVE SMOOTH",
"313 46 OFFCURVE",
"239 105 OFFCURVE",
"200 200 OFFCURVE",
"181 299 OFFCURVE",
"181 350 QCURVE SMOOTH",
"181 422 OFFCURVE",
"208 534 OFFCURVE",
"278 611 OFFCURVE",
"331 611 QCURVE SMOOTH",
"383 611 OFFCURVE",
"457 556 OFFCURVE",
"495 463 OFFCURVE",
"512 364 OFFCURVE",
"512 309 QCURVE SMOOTH"
);
},
{
closed = 1;
nodes = (
"127 -3 OFFCURVE",
"167 -18 QCURVE",
"544 655 LINE",
"546 661 OFFCURVE",
"506 676 QCURVE",
"129 4 LINE"
);
},
{
closed = 1;
nodes = (
"25 188 OFFCURVE",
"214 -10 OFFCURVE",
"478 -10 OFFCURVE",
"668 188 OFFCURVE",
"668 468 OFFCURVE",
"478 667 OFFCURVE",
"214 667 OFFCURVE",
"25 468 OFFCURVE"
);
}
);
};
color = -1;
layerId = "6D340022-02C4-426D-A0D8-A7BFACBEB22E";
paths = (
{
closed = 1;
nodes = (
"544 655 LINE",
"545.333 659 OFFCURVE",
"532.667 666 OFFCURVE",
"506 676 CURVE",
"129 4 LINE",
"127.667 -0.667 OFFCURVE",
"140.333 -8 OFFCURVE",
"167 -18 CURVE"
);
},
{
closed = 1;
nodes = (
"462 46 OFFCURVE",
"512 161 OFFCURVE",
"512 309 CURVE SMOOTH",
"512 456.007 OFFCURVE",
"469.541 611 OFFCURVE",
"331 611 CURVE SMOOTH",
"295.667 611 OFFCURVE",
"266.333 598.167 OFFCURVE",
"243 572.5 CURVE SMOOTH",
"196.333 521.167 OFFCURVE",
"181 446 OFFCURVE",
"181 350 CURVE SMOOTH",
"181 212.995 OFFCURVE",
"230.257 46 OFFCURVE",
"362 46 CURVE SMOOTH"
);
}
);
width = 700;
}
);
note = Oslash;
unicode = 00D8;
},
{
glyphname = Ohorn;
lastChange = "2018-04-26 09:21:48 +0000";
layers = (
{
color = -1;
layerId = "D75C065C-4EF6-4055-9CF2-70010DBCD897";
paths = (
{
closed = 1;
nodes = (
"245.772 -42.582 OFFCURVE",
"448.147 -42.495 OFFCURVE",
"573 89 CURVE SMOOTH",
"635.667 155 OFFCURVE",
"667 234.667 OFFCURVE",
"667 328 CURVE SMOOTH",
"667 412.667 OFFCURVE",
"638 490.333 OFFCURVE",
"580 561 CURVE",
"585 561 LINE SMOOTH",
"642.333 561 OFFCURVE",
"700 599.667 OFFCURVE",
"700 653 CURVE SMOOTH",
"700 675.667 OFFCURVE",
"693.333 693.667 OFFCURVE",
"680 707 CURVE",
"634.667 707 OFFCURVE",
"612 696 OFFCURVE",
"612 674 CURVE SMOOTH",
"612 665.333 OFFCURVE",
"616 656.833 OFFCURVE",
"624 648.5 CURVE SMOOTH",
"632 640.167 OFFCURVE",
"636 634 OFFCURVE",
"636 630 CURVE SMOOTH",
"636 608.667 OFFCURVE",
"623.667 598 OFFCURVE",
"599 598 CURVE SMOOTH",
"573 598 OFFCURVE",
"532.667 611 OFFCURVE",
"478 637 CURVE SMOOTH",
"433.333 657 OFFCURVE",
"389.667 667 OFFCURVE",
"347 667 CURVE SMOOTH",
"171 667 OFFCURVE",
"28 514.667 OFFCURVE",
"28 328 CURVE SMOOTH",
"28 234.667 OFFCURVE",
"59.167 155 OFFCURVE",
"121.5 89 CURVE SMOOTH"
);
},
{
closed = 1;
nodes = (
"264.333 33 OFFCURVE",
"187.667 104.333 OFFCURVE",
"153 199 CURVE SMOOTH",
"135.667 246.333 OFFCURVE",
"127 296.667 OFFCURVE",
"127 350 CURVE SMOOTH",
"127 495.333 OFFCURVE",
"205.333 625 OFFCURVE",
"332 625 CURVE SMOOTH",
"430.667 625 OFFCURVE",
"507.333 553.5 OFFCURVE",
"542 459.5 CURVE SMOOTH",
"559.333 412.5 OFFCURVE",
"568 362.333 OFFCURVE",
"568 309 CURVE SMOOTH",
"568 215.667 OFFCURVE",
"539 129.833 OFFCURVE",
"475 74.5 CURVE SMOOTH",
"443 46.833 OFFCURVE",
"405.667 33 OFFCURVE",
"363 33 CURVE SMOOTH"
);
}
);
width = 768;
},
{
background = {
paths = (
{
closed = 1;
nodes = (
"512 198 OFFCURVE",
"437 46 OFFCURVE",
"362 46 QCURVE SMOOTH",
"313 46 OFFCURVE",
"239 105 OFFCURVE",
"200 200 OFFCURVE",
"181 299 OFFCURVE",
"181 350 QCURVE SMOOTH",
"181 422 OFFCURVE",
"208 534 OFFCURVE",
"278 611 OFFCURVE",
"331 611 QCURVE SMOOTH",
"383 611 OFFCURVE",
"457 556 OFFCURVE",
"495 463 OFFCURVE",
"512 364 OFFCURVE",
"512 309 QCURVE SMOOTH"
);
},
{
closed = 1;
nodes = (
"25 188 OFFCURVE",
"214 -10 OFFCURVE",
"478 -10 OFFCURVE",
"668 188 OFFCURVE",
"668 328 QCURVE SMOOTH",
"668 462 OFFCURVE",
"579 561 QCURVE",
"588 556 OFFCURVE",
"604 556 QCURVE SMOOTH",
"647 556 OFFCURVE",
"725 612 OFFCURVE",
"725 652 QCURVE SMOOTH",
"725 672 OFFCURVE",
"713 713 OFFCURVE",
"706 720 QCURVE",
"612 720 OFFCURVE",
"612 674 QCURVE SMOOTH",
"612 661 OFFCURVE",
"634 628 OFFCURVE",
"634 622 QCURVE SMOOTH",
"634 603 OFFCURVE",
"598 603 QCURVE SMOOTH",
"568 603 OFFCURVE",
"464 643 QCURVE SMOOTH",
"407 667 OFFCURVE",
"346 667 QCURVE SMOOTH",
"210 667 OFFCURVE",
"25 469 OFFCURVE",
"25 328 QCURVE SMOOTH"
);
}
);
};
color = -1;
layerId = "6D340022-02C4-426D-A0D8-A7BFACBEB22E";
paths = (
{
closed = 1;
nodes = (
"522 -10 OFFCURVE",
"668 141.333 OFFCURVE",
"668 328 CURVE SMOOTH",
"668 417.333 OFFCURVE",
"638.333 495 OFFCURVE",
"579 561 CURVE",
"585 557.667 OFFCURVE",
"593.333 556 OFFCURVE",
"604 556 CURVE SMOOTH",
"661.333 556 OFFCURVE",
"725 598.667 OFFCURVE",
"725 652 CURVE SMOOTH",
"725 678.667 OFFCURVE",
"715.333 710.667 OFFCURVE",
"706 720 CURVE",
"643.333 720 OFFCURVE",
"612 704.667 OFFCURVE",
"612 674 CURVE SMOOTH",
"612 665.333 OFFCURVE",
"615.667 655.5 OFFCURVE",
"623 644.5 CURVE SMOOTH",
"630.333 633.5 OFFCURVE",
"634 626 OFFCURVE",
"634 622 CURVE SMOOTH",
"634 609.333 OFFCURVE",
"622 603 OFFCURVE",
"598 603 CURVE SMOOTH",
"578 603 OFFCURVE",
"533.333 616.333 OFFCURVE",
"464 643 CURVE SMOOTH",
"426 659 OFFCURVE",
"386.667 667 OFFCURVE",
"346 667 CURVE SMOOTH",
"164.667 667 OFFCURVE",
"25 516 OFFCURVE",
"25 328 CURVE SMOOTH",
"25 141.333 OFFCURVE",
"170 -10 OFFCURVE",
"346 -10 CURVE SMOOTH"
);
},
{
closed = 1;
nodes = (
"230.257 46 OFFCURVE",
"181 212.995 OFFCURVE",
"181 350 CURVE SMOOTH",
"181 446 OFFCURVE",
"196.333 521.167 OFFCURVE",
"243 572.5 CURVE SMOOTH",
"266.333 598.167 OFFCURVE",
"295.667 611 OFFCURVE",
"331 611 CURVE SMOOTH",
"469.541 611 OFFCURVE",
"512 456.007 OFFCURVE",
"512 309 CURVE SMOOTH",
"512 161 OFFCURVE",
"462 46 OFFCURVE",
"362 46 CURVE SMOOTH"
);
}
);
width = 717;
}
);
note = Ohorn;
unicode = 01A0;
},
{
color = 4;
glyphname = OE;
lastChange = "2018-05-01 14:46:29 +0000";
layers = (
{
background = {
paths = (
{
closed = 1;
nodes = (
"569 -10 OFFCURVE",
"710 142 OFFCURVE",
"710 333 CURVE SMOOTH",
"710 532 OFFCURVE",
"581 670 OFFCURVE",
"395 670 CURVE SMOOTH",
"204 670 OFFCURVE",
"60 525 OFFCURVE",
"60 328 CURVE SMOOTH",
"60 128 OFFCURVE",
"196 -10 OFFCURVE",
"391 -10 CURVE SMOOTH"
);
},
{
closed = 1;
nodes = (
"265 44 OFFCURVE",
"166 170 OFFCURVE",
"166 346 CURVE SMOOTH",
"166 514 OFFCURVE",
"248 618 OFFCURVE",
"382 618 CURVE SMOOTH",
"516 618 OFFCURVE",
"608 491 OFFCURVE",
"608 308 CURVE SMOOTH",
"608 148 OFFCURVE",
"527 44 OFFCURVE",
"403 44 CURVE SMOOTH"
);
}
);
};
color = -1;
layerId = "D75C065C-4EF6-4055-9CF2-70010DBCD897";
paths = (
{
closed = 1;
nodes = (
"497 -10 OFFCURVE",
"553 0 OFFCURVE",
"595 0 CURVE SMOOTH",
"869 0 LINE SMOOTH",
"904 0 OFFCURVE",
"932 -1 OFFCURVE",
"966 -5 CURVE",
"1009 153 LINE",
"961 163 LINE",
"936 109 OFFCURVE",
"916 71 OFFCURVE",
"904 54 CURVE",
"893 52 OFFCURVE",
"874 50 OFFCURVE",
"823 50 CURVE SMOOTH",
"700 50 LINE SMOOTH",
"669 50 OFFCURVE",
"650 52 OFFCURVE",
"633 54 CURVE",
"632 63 OFFCURVE",
"630 115 OFFCURVE",
"630 158 CURVE SMOOTH",
"630 482 LINE SMOOTH",
"630 526 OFFCURVE",
"632 599 OFFCURVE",
"633 608 CURVE",
"650 610 OFFCURVE",
"669 612 OFFCURVE",
"700 612 CURVE SMOOTH",
"844 612 LINE SMOOTH",
"857 612 OFFCURVE",
"873 611 OFFCURVE",
"884 609 CURVE",
"898 584 OFFCURVE",
"911 550 OFFCURVE",
"922 514 CURVE",
"970 521 LINE",
"949 664 LINE",
"913 661 OFFCURVE",
"881 660 OFFCURVE",
"847 660 CURVE SMOOTH",
"578 660 LINE SMOOTH",
"527 660 OFFCURVE",
"484 667 OFFCURVE",
"428 667 CURVE SMOOTH",
"207 667 OFFCURVE",
"60 528 OFFCURVE",
"60 324 CURVE SMOOTH",
"60 108 OFFCURVE",
"204 -10 OFFCURVE",
"438 -10 CURVE SMOOTH"
);
},
{
closed = 1;
nodes = (
"271 43 OFFCURVE",
"166 156 OFFCURVE",
"166 337 CURVE SMOOTH",
"166 513 OFFCURVE",
"265 615 OFFCURVE",
"420 615 CURVE SMOOTH",
"470 615 OFFCURVE",
"505 608 OFFCURVE",
"539 599 CURVE",
"541 580 OFFCURVE",
"544 547 OFFCURVE",
"544 445 CURVE SMOOTH",
"544 221 LINE SMOOTH",
"544 111 OFFCURVE",
"543 81 OFFCURVE",
"541 58 CURVE",
"516 49 OFFCURVE",
"482 43 OFFCURVE",
"447 43 CURVE SMOOTH"
);
},
{
closed = 1;
nodes = (
"890 232 LINE",
"888 268 OFFCURVE",
"887 308 OFFCURVE",
"887 340 CURVE SMOOTH",
"887 372 OFFCURVE",
"888 411 OFFCURVE",
"890 447 CURVE",
"844 447 LINE",
"841 424 OFFCURVE",
"836 390 OFFCURVE",
"830 369 CURVE",
"821 366 OFFCURVE",
"803 365 OFFCURVE",
"781 365 CURVE SMOOTH",
"680 365 LINE SMOOTH",
"661 365 OFFCURVE",
"640 366 OFFCURVE",
"613 367 CURVE",
"613 312 LINE",
"640 313 OFFCURVE",
"661 314 OFFCURVE",
"680 314 CURVE SMOOTH",
"781 314 LINE SMOOTH",
"803 314 OFFCURVE",
"821 313 OFFCURVE",
"830 310 CURVE",
"836 289 OFFCURVE",
"841 255 OFFCURVE",
"844 232 CURVE"
);
}
);
width = 1043;
},
{
background = {
paths = (
{
closed = 1;
nodes = (
"1809 -1 OFFCURVE",
"1877 0 OFFCURVE",
"1925 0 CURVE SMOOTH",
"2153 0 LINE SMOOTH",
"2197 0 OFFCURVE",
"2258 -3 OFFCURVE",
"2296 -6 CURVE",
"2345 169 LINE",
"2285 181 LINE",
"2262 134 OFFCURVE",
"2243 95 OFFCURVE",
"2224 66 CURVE",
"2205 63 OFFCURVE",
"2192 62 OFFCURVE",
"2144 62 CURVE SMOOTH",
"2082 62 LINE SMOOTH",
"2040 62 OFFCURVE",
"2016 64 OFFCURVE",
"1991 67 CURVE",
"1989 83 OFFCURVE",
"1988 133 OFFCURVE",
"1988 199 CURVE SMOOTH",
"1988 461 LINE SMOOTH",
"1988 527 OFFCURVE",
"1989 583 OFFCURVE",
"1991 598 CURVE",
"2010 601 OFFCURVE",
"2038 602 OFFCURVE",
"2063 602 CURVE SMOOTH",
"2148 602 LINE SMOOTH",
"2165 602 OFFCURVE",
"2179 601 OFFCURVE",
"2197 598 CURVE",
"2212 569 OFFCURVE",
"2222 538 OFFCURVE",
"2238 497 CURVE",
"2300 505 LINE",
"2271 665 LINE",
"2233 663 OFFCURVE",
"2159 660 OFFCURVE",
"2115 660 CURVE SMOOTH",
"1881 660 LINE SMOOTH",
"1835 660 OFFCURVE",
"1790 661 OFFCURVE",
"1742 661 CURVE SMOOTH",
"1554 661 OFFCURVE",
"1379 538 OFFCURVE",
"1379 321 CURVE SMOOTH",
"1379 122 OFFCURVE",
"1522 -1 OFFCURVE",
"1754 -1 CURVE SMOOTH"
);
},
{
closed = 1;
nodes = (
"1640 62 OFFCURVE",
"1535 161 OFFCURVE",
"1535 363 CURVE SMOOTH",
"1535 521 OFFCURVE",
"1608 592 OFFCURVE",
"1736 592 CURVE SMOOTH",
"1769 592 OFFCURVE",
"1813 587 OFFCURVE",
"1842 582 CURVE",
"1845 568 OFFCURVE",
"1850 515 OFFCURVE",
"1850 421 CURVE SMOOTH",
"1850 239 LINE SMOOTH",
"1850 136 OFFCURVE",
"1847 87 OFFCURVE",
"1845 70 CURVE",
"1826 65 OFFCURVE",
"1802 62 OFFCURVE",
"1769 62 CURVE SMOOTH"
);
},
{
closed = 1;
nodes = (
"2217 226 LINE",
"2216 263 OFFCURVE",
"2214 304 OFFCURVE",
"2214 339 CURVE SMOOTH",
"2214 374 OFFCURVE",
"2216 412 OFFCURVE",
"2217 449 CURVE",
"2158 449 LINE",
"2155 426 OFFCURVE",
"2149 387 OFFCURVE",
"2145 374 CURVE",
"2136 373 OFFCURVE",
"2113 371 OFFCURVE",
"2085 371 CURVE SMOOTH",
"2029 371 LINE SMOOTH",
"2004 371 OFFCURVE",
"1981 373 OFFCURVE",
"1965 374 CURVE",
"1965 303 LINE",
"1981 304 OFFCURVE",
"2004 306 OFFCURVE",
"2029 306 CURVE SMOOTH",
"2085 306 LINE SMOOTH",
"2113 306 OFFCURVE",
"2136 304 OFFCURVE",
"2145 303 CURVE",
"2149 290 OFFCURVE",
"2155 249 OFFCURVE",
"2158 226 CURVE"
);
},
{
closed = 1;
nodes = (
"561 -10 OFFCURVE",
"741 117 OFFCURVE",
"741 337 CURVE SMOOTH",
"741 534 OFFCURVE",
"603 670 OFFCURVE",
"406 670 CURVE SMOOTH",
"204 670 OFFCURVE",
"54 524 OFFCURVE",
"54 323 CURVE SMOOTH",
"54 127 OFFCURVE",
"201 -10 OFFCURVE",
"405 -10 CURVE SMOOTH"
);
},
{
closed = 1;
nodes = (
"299 65 OFFCURVE",
"217 183 OFFCURVE",
"217 352 CURVE SMOOTH",
"217 505 OFFCURVE",
"282 602 OFFCURVE",
"393 602 CURVE SMOOTH",
"507 602 OFFCURVE",
"581 484 OFFCURVE",
"581 310 CURVE SMOOTH",
"581 154 OFFCURVE",
"521 65 OFFCURVE",
"414 65 CURVE SMOOTH"
);
}
);
};
color = -1;
layerId = "6D340022-02C4-426D-A0D8-A7BFACBEB22E";
paths = (
{
closed = 1;
nodes = (
"484 -10 OFFCURVE",
"532 0 OFFCURVE",
"580 0 CURVE SMOOTH",
"828 0 LINE SMOOTH",
"872 0 OFFCURVE",
"933 -3 OFFCURVE",
"971 -6 CURVE",
"1020 169 LINE",
"960 181 LINE",
"937 134 OFFCURVE",
"918 95 OFFCURVE",
"899 66 CURVE",
"880 63 OFFCURVE",
"867 62 OFFCURVE",
"819 62 CURVE SMOOTH",
"757 62 LINE SMOOTH",
"715 62 OFFCURVE",
"691 64 OFFCURVE",
"666 67 CURVE",
"664 83 OFFCURVE",
"663 133 OFFCURVE",
"663 199 CURVE SMOOTH",
"663 461 LINE SMOOTH",
"663 527 OFFCURVE",
"664 583 OFFCURVE",
"666 598 CURVE",
"685 601 OFFCURVE",
"713 602 OFFCURVE",
"738 602 CURVE SMOOTH",
"823 602 LINE SMOOTH",
"840 602 OFFCURVE",
"854 601 OFFCURVE",
"872 598 CURVE",
"887 569 OFFCURVE",
"897 538 OFFCURVE",
"913 497 CURVE",
"975 505 LINE",
"946 665 LINE",
"908 663 OFFCURVE",
"834 660 OFFCURVE",
"790 660 CURVE SMOOTH",
"578 660 LINE SMOOTH",
"532 660 OFFCURVE",
"487 667 OFFCURVE",
"442 667 CURVE SMOOTH",
"178 667 OFFCURVE",
"54 507 OFFCURVE",
"54 323 CURVE SMOOTH",
"54 114 OFFCURVE",
"204 -10 OFFCURVE",
"429 -10 CURVE SMOOTH"
);
},
{
closed = 1;
nodes = (
"308 62 OFFCURVE",
"217 165 OFFCURVE",
"217 342 CURVE SMOOTH",
"217 481 OFFCURVE",
"284 599 OFFCURVE",
"435 599 CURVE SMOOTH",
"464 599 OFFCURVE",
"496 594 OFFCURVE",
"519 585 CURVE",
"521 572 OFFCURVE",
"525 521 OFFCURVE",
"525 427 CURVE SMOOTH",
"525 243 LINE SMOOTH",
"525 143 OFFCURVE",
"522 91 OFFCURVE",
"521 75 CURVE",
"501 69 OFFCURVE",
"470 62 OFFCURVE",
"444 62 CURVE SMOOTH"
);
},
{
closed = 1;
nodes = (
"892 226 LINE",
"891 263 OFFCURVE",
"889 304 OFFCURVE",
"889 339 CURVE SMOOTH",
"889 374 OFFCURVE",
"891 412 OFFCURVE",
"892 449 CURVE",
"833 449 LINE",
"830 426 OFFCURVE",
"824 387 OFFCURVE",
"820 374 CURVE",
"811 373 OFFCURVE",
"788 371 OFFCURVE",
"760 371 CURVE SMOOTH",
"704 371 LINE SMOOTH",
"679 371 OFFCURVE",
"656 373 OFFCURVE",
"640 374 CURVE",
"640 303 LINE",
"656 304 OFFCURVE",
"679 306 OFFCURVE",
"704 306 CURVE SMOOTH",
"760 306 LINE SMOOTH",
"788 306 OFFCURVE",
"811 304 OFFCURVE",
"820 303 CURVE",
"824 290 OFFCURVE",
"830 249 OFFCURVE",
"833 226 CURVE"
);
}
);
width = 1037;
}
);
note = OE;
unicode = 0152;
},
{
color = 4;
glyphname = P;
lastChange = "2018-05-01 14:46:29 +0000";
layers = (
{
background = {
paths = (
{
closed = 1;
nodes = (
"84 0 OFFCURVE",
"140 2 OFFCURVE",
"175 2 CURVE SMOOTH",
"210 2 OFFCURVE",
"267 0 OFFCURVE",
"302 -3 CURVE",
"304 41 LINE",
"276 44 OFFCURVE",
"225 53 OFFCURVE",
"216 55 CURVE",
"212 61 OFFCURVE",
"208 87 OFFCURVE",
"208 217 CURVE SMOOTH",
"208 482 LINE SMOOTH",
"208 526 OFFCURVE",
"210 600 OFFCURVE",
"211 610 CURVE",
"228 614 OFFCURVE",
"241 616 OFFCURVE",
"263 616 CURVE SMOOTH",
"358 616 OFFCURVE",
"419 557 OFFCURVE",
"419 463 CURVE SMOOTH",
"419 370 OFFCURVE",
"374 322 OFFCURVE",
"290 322 CURVE SMOOTH",
"274 322 OFFCURVE",
"260 323 OFFCURVE",
"245 326 CURVE",
"245 282 LINE",
"262 278 OFFCURVE",
"281 276 OFFCURVE",
"300 276 CURVE SMOOTH",
"421 276 OFFCURVE",
"513 361 OFFCURVE",
"513 473 CURVE SMOOTH",
"513 589 OFFCURVE",
"420 661 OFFCURVE",
"270 661 CURVE SMOOTH",
"236 661 OFFCURVE",
"203 659 OFFCURVE",
"175 659 CURVE SMOOTH",
"125 659 OFFCURVE",
"82 660 OFFCURVE",
"47 661 CURVE",
"45 619 LINE",
"71 618 OFFCURVE",
"106 609 OFFCURVE",
"113 605 CURVE",
"117 598 OFFCURVE",
"121 572 OFFCURVE",
"121 442 CURVE SMOOTH",
"121 217 LINE SMOOTH",
"121 87 OFFCURVE",
"117 61 OFFCURVE",
"113 54 CURVE",
"106 50 OFFCURVE",
"73 40 OFFCURVE",
"50 39 CURVE",
"52 -3 LINE"
);
}
);
};
color = -1;
layerId = "D75C065C-4EF6-4055-9CF2-70010DBCD897";
paths = (
{
closed = 1;
nodes = (
"84 0 OFFCURVE",
"140 2 OFFCURVE",
"175 2 CURVE SMOOTH",
"210 2 OFFCURVE",
"265 0 OFFCURVE",
"300 -3 CURVE",
"302 41 LINE",
"274 44 OFFCURVE",
"223 53 OFFCURVE",
"214 55 CURVE",
"210 61 OFFCURVE",
"206 87 OFFCURVE",
"206 217 CURVE SMOOTH",
"206 482 LINE SMOOTH",
"206 526 OFFCURVE",
"208 600 OFFCURVE",
"209 610 CURVE",
"226 614 OFFCURVE",
"241 616 OFFCURVE",
"270 616 CURVE SMOOTH",
"359 616 OFFCURVE",
"419 560 OFFCURVE",
"419 460 CURVE SMOOTH",
"419 365 OFFCURVE",
"364 322 OFFCURVE",
"287 322 CURVE SMOOTH",
"248 322 OFFCURVE",
"223 328 OFFCURVE",
"188 339 CURVE",
"188 282 LINE",
"214 276 OFFCURVE",
"254 272 OFFCURVE",
"284 272 CURVE SMOOTH",
"403 272 OFFCURVE",
"510 348 OFFCURVE",
"510 473 CURVE SMOOTH",
"510 594 OFFCURVE",
"424 661 OFFCURVE",
"278 661 CURVE SMOOTH",
"236 661 OFFCURVE",
"203 659 OFFCURVE",
"175 659 CURVE SMOOTH",
"125 659 OFFCURVE",
"82 660 OFFCURVE",
"47 661 CURVE",
"45 619 LINE",
"71 618 OFFCURVE",
"106 609 OFFCURVE",
"113 605 CURVE",
"117 598 OFFCURVE",
"121 572 OFFCURVE",
"121 442 CURVE SMOOTH",
"121 217 LINE SMOOTH",
"121 87 OFFCURVE",
"117 61 OFFCURVE",
"113 54 CURVE",
"106 50 OFFCURVE",
"73 40 OFFCURVE",
"50 39 CURVE",
"52 -3 LINE"
);
}
);
width = 542;
},
{
background = {
paths = (
{
closed = 1;
nodes = (
"69 -1 OFFCURVE",
"142 0 OFFCURVE",
"187 0 CURVE SMOOTH",
"232 0 OFFCURVE",
"307 -1 OFFCURVE",
"341 -5 CURVE",
"344 53 LINE",
"316 56 OFFCURVE",
"280 62 OFFCURVE",
"253 69 CURVE",
"249 77 OFFCURVE",
"245 133 OFFCURVE",
"245 199 CURVE SMOOTH",
"245 416 LINE SMOOTH",
"245 525 OFFCURVE",
"245 581 OFFCURVE",
"246 595 CURVE",
"260 600 OFFCURVE",
"274 602 OFFCURVE",
"290 602 CURVE SMOOTH",
"374 602 OFFCURVE",
"425 544 OFFCURVE",
"425 451 CURVE SMOOTH",
"425 372 OFFCURVE",
"383 320 OFFCURVE",
"319 320 CURVE SMOOTH",
"307 320 OFFCURVE",
"296 321 OFFCURVE",
"283 322 CURVE",
"283 266 LINE",
"296 263 OFFCURVE",
"310 261 OFFCURVE",
"325 261 CURVE SMOOTH",
"467 261 OFFCURVE",
"571 348 OFFCURVE",
"571 467 CURVE SMOOTH",
"571 588 OFFCURVE",
"474 661 OFFCURVE",
"304 661 CURVE SMOOTH",
"265 661 OFFCURVE",
"228 659 OFFCURVE",
"192 659 CURVE SMOOTH",
"127 659 OFFCURVE",
"67 659 OFFCURVE",
"33 661 CURVE",
"30 605 LINE",
"58 604 OFFCURVE",
"90 599 OFFCURVE",
"101 591 CURVE",
"105 583 OFFCURVE",
"109 527 OFFCURVE",
"109 421 CURVE SMOOTH",
"109 239 LINE SMOOTH",
"109 133 OFFCURVE",
"105 77 OFFCURVE",
"101 69 CURVE",
"90 61 OFFCURVE",
"60 54 OFFCURVE",
"35 51 CURVE",
"38 -5 LINE"
);
}
);
};
color = -1;
layerId = "6D340022-02C4-426D-A0D8-A7BFACBEB22E";
paths = (
{
closed = 1;
nodes = (
"69 -1 OFFCURVE",
"142 0 OFFCURVE",
"187 0 CURVE SMOOTH",
"232 0 OFFCURVE",
"307 -1 OFFCURVE",
"343 -5 CURVE",
"346 53 LINE",
"316 56 OFFCURVE",
"280 62 OFFCURVE",
"253 69 CURVE",
"249 77 OFFCURVE",
"245 133 OFFCURVE",
"245 199 CURVE SMOOTH",
"245 416 LINE SMOOTH",
"245 525 OFFCURVE",
"245 582 OFFCURVE",
"246 597 CURVE",
"260 601 OFFCURVE",
"274 602 OFFCURVE",
"296 602 CURVE SMOOTH",
"375 602 OFFCURVE",
"425 546 OFFCURVE",
"425 449 CURVE SMOOTH",
"425 366 OFFCURVE",
"382 321 OFFCURVE",
"312 321 CURVE SMOOTH",
"276 321 OFFCURVE",
"249 327 OFFCURVE",
"228 337 CURVE",
"228 264 LINE",
"250 259 OFFCURVE",
"284 255 OFFCURVE",
"308 255 CURVE SMOOTH",
"464 255 OFFCURVE",
"571 344 OFFCURVE",
"571 465 CURVE SMOOTH",
"571 589 OFFCURVE",
"475 661 OFFCURVE",
"314 661 CURVE SMOOTH",
"265 661 OFFCURVE",
"228 659 OFFCURVE",
"192 659 CURVE SMOOTH",
"127 659 OFFCURVE",
"67 659 OFFCURVE",
"33 661 CURVE",
"30 605 LINE",
"58 604 OFFCURVE",
"90 599 OFFCURVE",
"101 591 CURVE",
"105 583 OFFCURVE",
"109 527 OFFCURVE",
"109 421 CURVE SMOOTH",
"109 239 LINE SMOOTH",
"109 133 OFFCURVE",
"105 77 OFFCURVE",
"101 69 CURVE",
"90 61 OFFCURVE",
"60 54 OFFCURVE",
"35 51 CURVE",
"38 -5 LINE"
);
}
);
width = 600;
}
);
leftKerningGroup = B;
note = P;
rightKerningGroup = P;
unicode = 0050;
},
{
color = 4;
glyphname = Thorn;
lastChange = "2018-05-01 14:46:29 +0000";
layers = (
{
background = {
paths = (
{
closed = 1;
nodes = (
"682 0 OFFCURVE",
"732 2 OFFCURVE",
"765 2 CURVE SMOOTH",
"798 2 OFFCURVE",
"850 0 OFFCURVE",
"896 -3 CURVE",
"898 41 LINE",
"861 42 OFFCURVE",
"824 50 OFFCURVE",
"817 54 CURVE",
"813 61 OFFCURVE",
"809 87 OFFCURVE",
"809 127 CURVE SMOOTH",
"809 487 LINE",
"826 492 OFFCURVE",
"840 493 OFFCURVE",
"862 493 CURVE SMOOTH",
"957 493 OFFCURVE",
"1018 434 OFFCURVE",
"1018 340 CURVE SMOOTH",
"1018 247 OFFCURVE",
"973 199 OFFCURVE",
"889 199 CURVE SMOOTH",
"873 199 OFFCURVE",
"859 200 OFFCURVE",
"844 203 CURVE",
"844 159 LINE",
"861 155 OFFCURVE",
"880 153 OFFCURVE",
"899 153 CURVE SMOOTH",
"1020 153 OFFCURVE",
"1112 238 OFFCURVE",
"1112 350 CURVE SMOOTH",
"1112 466 OFFCURVE",
"1019 538 OFFCURVE",
"869 538 CURVE SMOOTH",
"838 538 OFFCURVE",
"818 536 OFFCURVE",
"792 532 CURVE",
"809 492 LINE",
"809 552 LINE SMOOTH",
"809 582 OFFCURVE",
"813 598 OFFCURVE",
"817 605 CURVE",
"824 609 OFFCURVE",
"859 619 OFFCURVE",
"882 619 CURVE",
"880 661 LINE",
"848 659 OFFCURVE",
"798 657 OFFCURVE",
"765 657 CURVE SMOOTH",
"732 657 OFFCURVE",
"682 659 OFFCURVE",
"650 661 CURVE",
"648 619 LINE",
"671 619 OFFCURVE",
"706 609 OFFCURVE",
"713 605 CURVE",
"717 598 OFFCURVE",
"721 572 OFFCURVE",
"721 442 CURVE SMOOTH",
"721 217 LINE SMOOTH",
"721 87 OFFCURVE",
"717 61 OFFCURVE",
"713 54 CURVE",
"706 50 OFFCURVE",
"671 40 OFFCURVE",
"645 39 CURVE",
"647 -3 LINE"
);
},
{
closed = 1;
nodes = (
"84 -123 OFFCURVE",
"140 -121 OFFCURVE",
"175 -121 CURVE SMOOTH",
"210 -121 OFFCURVE",
"265 -123 OFFCURVE",
"300 -126 CURVE",
"302 -82 LINE",
"274 -79 OFFCURVE",
"223 -70 OFFCURVE",
"214 -68 CURVE",
"210 -62 OFFCURVE",
"206 -36 OFFCURVE",
"206 94 CURVE SMOOTH",
"206 359 LINE SMOOTH",
"206 403 OFFCURVE",
"208 477 OFFCURVE",
"209 487 CURVE",
"226 491 OFFCURVE",
"241 493 OFFCURVE",
"270 493 CURVE SMOOTH",
"359 493 OFFCURVE",
"419 437 OFFCURVE",
"419 337 CURVE SMOOTH",
"419 242 OFFCURVE",
"364 199 OFFCURVE",
"287 199 CURVE SMOOTH",
"248 199 OFFCURVE",
"223 205 OFFCURVE",
"188 216 CURVE",
"188 159 LINE",
"214 153 OFFCURVE",
"254 149 OFFCURVE",
"284 149 CURVE SMOOTH",
"403 149 OFFCURVE",
"510 225 OFFCURVE",
"510 350 CURVE SMOOTH",
"510 471 OFFCURVE",
"424 538 OFFCURVE",
"278 538 CURVE SMOOTH",
"236 538 OFFCURVE",
"203 536 OFFCURVE",
"175 536 CURVE SMOOTH",
"125 536 OFFCURVE",
"82 537 OFFCURVE",
"47 538 CURVE",
"45 496 LINE",
"71 495 OFFCURVE",
"106 486 OFFCURVE",
"113 482 CURVE",
"117 475 OFFCURVE",
"121 449 OFFCURVE",
"121 319 CURVE SMOOTH",
"121 94 LINE SMOOTH",
"121 -36 OFFCURVE",
"117 -62 OFFCURVE",
"113 -69 CURVE",
"106 -73 OFFCURVE",
"73 -83 OFFCURVE",
"50 -84 CURVE",
"52 -126 LINE"
);
}
);
};
color = -1;
layerId = "D75C065C-4EF6-4055-9CF2-70010DBCD897";
paths = (
{
closed = 1;
nodes = (
"82 0 OFFCURVE",
"132 2 OFFCURVE",
"165 2 CURVE SMOOTH",
"198 2 OFFCURVE",
"248 0 OFFCURVE",
"294 -3 CURVE",
"296 41 LINE",
"259 42 OFFCURVE",
"220 50 OFFCURVE",
"212 54 CURVE",
"209 61 OFFCURVE",
"207 87 OFFCURVE",
"207 127 CURVE SMOOTH",
"207 487 LINE",
"222 489 OFFCURVE",
"241 490 OFFCURVE",
"256 490 CURVE SMOOTH",
"361 490 OFFCURVE",
"423 436 OFFCURVE",
"423 335 CURVE SMOOTH",
"423 239 OFFCURVE",
"366 195 OFFCURVE",
"275 195 CURVE SMOOTH",
"248 195 OFFCURVE",
"223 199 OFFCURVE",
"193 208 CURVE",
"193 158 LINE",
"214 152 OFFCURVE",
"252 148 OFFCURVE",
"272 148 CURVE SMOOTH",
"406 148 OFFCURVE",
"514 222 OFFCURVE",
"514 348 CURVE SMOOTH",
"514 470 OFFCURVE",
"426 537 OFFCURVE",
"263 537 CURVE SMOOTH",
"242 537 OFFCURVE",
"218 536 OFFCURVE",
"192 535 CURVE",
"207 513 LINE",
"207 552 LINE SMOOTH",
"207 582 OFFCURVE",
"209 598 OFFCURVE",
"212 605 CURVE",
"220 609 OFFCURVE",
"256 619 OFFCURVE",
"279 619 CURVE",
"277 661 LINE",
"245 659 OFFCURVE",
"198 657 OFFCURVE",
"165 657 CURVE SMOOTH",
"132 657 OFFCURVE",
"82 659 OFFCURVE",
"50 661 CURVE",
"48 619 LINE",
"71 619 OFFCURVE",
"106 609 OFFCURVE",
"113 605 CURVE",
"117 598 OFFCURVE",
"121 572 OFFCURVE",
"121 442 CURVE SMOOTH",
"121 217 LINE SMOOTH",
"121 87 OFFCURVE",
"117 61 OFFCURVE",
"113 54 CURVE",
"106 50 OFFCURVE",
"71 40 OFFCURVE",
"45 39 CURVE",
"47 -3 LINE"
);
}
);
width = 546;
},
{
background = {
paths = (
{
closed = 1;
nodes = (
"867 -1 OFFCURVE",
"924 2 OFFCURVE",
"978 2 CURVE SMOOTH",
"1032 2 OFFCURVE",
"1089 -1 OFFCURVE",
"1135 -5 CURVE",
"1138 52 LINE",
"1098 55 OFFCURVE",
"1066 61 OFFCURVE",
"1055 69 CURVE",
"1051 77 OFFCURVE",
"1047 133 OFFCURVE",
"1047 239 CURVE SMOOTH",
"1047 487 LINE",
"1060 490 OFFCURVE",
"1075 492 OFFCURVE",
"1090 492 CURVE SMOOTH",
"1174 492 OFFCURVE",
"1225 434 OFFCURVE",
"1225 341 CURVE SMOOTH",
"1225 262 OFFCURVE",
"1183 210 OFFCURVE",
"1119 210 CURVE SMOOTH",
"1107 210 OFFCURVE",
"1096 211 OFFCURVE",
"1083 212 CURVE",
"1083 156 LINE",
"1096 153 OFFCURVE",
"1110 151 OFFCURVE",
"1125 151 CURVE SMOOTH",
"1267 151 OFFCURVE",
"1371 238 OFFCURVE",
"1371 357 CURVE SMOOTH",
"1371 478 OFFCURVE",
"1274 551 OFFCURVE",
"1104 551 CURVE SMOOTH",
"1069 551 OFFCURVE",
"1036 549 OFFCURVE",
"1004 549 CURVE",
"1047 501 LINE",
"1047 553 LINE SMOOTH",
"1047 573 OFFCURVE",
"1051 584 OFFCURVE",
"1055 591 CURVE",
"1066 599 OFFCURVE",
"1098 606 OFFCURVE",
"1126 607 CURVE",
"1123 663 LINE",
"1089 661 OFFCURVE",
"1032 658 OFFCURVE",
"978 658 CURVE SMOOTH",
"924 658 OFFCURVE",
"867 661 OFFCURVE",
"833 663 CURVE",
"830 607 LINE",
"858 606 OFFCURVE",
"890 599 OFFCURVE",
"901 591 CURVE",
"905 583 OFFCURVE",
"909 527 OFFCURVE",
"909 421 CURVE SMOOTH",
"909 239 LINE SMOOTH",
"909 133 OFFCURVE",
"905 77 OFFCURVE",
"901 69 CURVE",
"890 61 OFFCURVE",
"858 54 OFFCURVE",
"830 51 CURVE",
"833 -5 LINE"
);
},
{
closed = 1;
nodes = (
"71 -111 OFFCURVE",
"144 -110 OFFCURVE",
"189 -110 CURVE SMOOTH",
"234 -110 OFFCURVE",
"309 -111 OFFCURVE",
"345 -115 CURVE",
"348 -57 LINE",
"318 -54 OFFCURVE",
"282 -48 OFFCURVE",
"255 -41 CURVE",
"251 -33 OFFCURVE",
"247 23 OFFCURVE",
"247 89 CURVE SMOOTH",
"247 306 LINE SMOOTH",
"247 415 OFFCURVE",
"247 472 OFFCURVE",
"248 487 CURVE",
"262 491 OFFCURVE",
"276 492 OFFCURVE",
"298 492 CURVE SMOOTH",
"377 492 OFFCURVE",
"427 436 OFFCURVE",
"427 339 CURVE SMOOTH",
"427 256 OFFCURVE",
"384 211 OFFCURVE",
"314 211 CURVE SMOOTH",
"278 211 OFFCURVE",
"251 217 OFFCURVE",
"230 227 CURVE",
"230 154 LINE",
"252 149 OFFCURVE",
"286 145 OFFCURVE",
"310 145 CURVE SMOOTH",
"466 145 OFFCURVE",
"573 234 OFFCURVE",
"573 355 CURVE SMOOTH",
"573 479 OFFCURVE",
"477 551 OFFCURVE",
"316 551 CURVE SMOOTH",
"267 551 OFFCURVE",
"230 549 OFFCURVE",
"194 549 CURVE SMOOTH",
"129 549 OFFCURVE",
"69 549 OFFCURVE",
"35 551 CURVE",
"32 495 LINE",
"60 494 OFFCURVE",
"92 489 OFFCURVE",
"103 481 CURVE",
"107 473 OFFCURVE",
"111 417 OFFCURVE",
"111 311 CURVE SMOOTH",
"111 129 LINE SMOOTH",
"111 23 OFFCURVE",
"107 -33 OFFCURVE",
"103 -41 CURVE",
"92 -49 OFFCURVE",
"62 -56 OFFCURVE",
"37 -59 CURVE",
"40 -115 LINE"
);
}
);
};
color = -1;
layerId = "6D340022-02C4-426D-A0D8-A7BFACBEB22E";
paths = (
{
closed = 1;
nodes = (
"67 -1 OFFCURVE",
"124 2 OFFCURVE",
"178 2 CURVE SMOOTH",
"232 2 OFFCURVE",
"289 -1 OFFCURVE",
"335 -5 CURVE",
"338 52 LINE",
"298 55 OFFCURVE",
"264 61 OFFCURVE",
"250 69 CURVE",
"249 77 OFFCURVE",
"247 103 OFFCURVE",
"247 139 CURVE SMOOTH",
"247 483 LINE",
"262 486 OFFCURVE",
"276 487 OFFCURVE",
"288 487 CURVE SMOOTH",
"377 487 OFFCURVE",
"427 431 OFFCURVE",
"427 334 CURVE SMOOTH",
"427 251 OFFCURVE",
"384 206 OFFCURVE",
"308 206 CURVE SMOOTH",
"278 206 OFFCURVE",
"251 210 OFFCURVE",
"230 218 CURVE",
"230 155 LINE",
"252 148 OFFCURVE",
"279 143 OFFCURVE",
"304 143 CURVE SMOOTH",
"466 143 OFFCURVE",
"573 229 OFFCURVE",
"573 350 CURVE SMOOTH",
"573 477 OFFCURVE",
"477 546 OFFCURVE",
"306 546 CURVE SMOOTH",
"267 546 OFFCURVE",
"236 543 OFFCURVE",
"214 539 CURVE",
"247 496 LINE",
"247 553 LINE SMOOTH",
"247 573 OFFCURVE",
"249 584 OFFCURVE",
"251 591 CURVE",
"264 599 OFFCURVE",
"295 606 OFFCURVE",
"322 607 CURVE",
"319 663 LINE",
"286 661 OFFCURVE",
"232 658 OFFCURVE",
"178 658 CURVE SMOOTH",
"124 658 OFFCURVE",
"67 661 OFFCURVE",
"33 663 CURVE",
"30 607 LINE",
"58 606 OFFCURVE",
"90 599 OFFCURVE",
"101 591 CURVE",
"105 583 OFFCURVE",
"109 527 OFFCURVE",
"109 421 CURVE SMOOTH",
"109 239 LINE SMOOTH",
"109 133 OFFCURVE",
"105 77 OFFCURVE",
"101 69 CURVE",
"90 61 OFFCURVE",
"58 54 OFFCURVE",
"30 51 CURVE",
"33 -5 LINE"
);
}
);
width = 604;
}
);
leftKerningGroup = B;
note = Thorn;
rightKerningGroup = Thorn;
unicode = 00DE;
},
{
color = 4;
glyphname = Q;
lastChange = "2018-05-01 14:46:29 +0000";
layers = (
{
background = {
paths = (
{
closed = 1;
nodes = (
"396 -7 LINE",
"573 -7 OFFCURVE",
"708 143 OFFCURVE",
"708 333 CURVE SMOOTH",
"708 532 OFFCURVE",
"579 670 OFFCURVE",
"393 670 CURVE SMOOTH",
"202 670 OFFCURVE",
"58 525 OFFCURVE",
"58 328 CURVE SMOOTH",
"58 128 OFFCURVE",
"194 -9 OFFCURVE",
"389 -9 CURVE"
);
},
{
closed = 1;
nodes = (
"724 -148 OFFCURVE",
"776 -136 OFFCURVE",
"817 -113 CURVE",
"807 -73 LINE",
"782 -80 OFFCURVE",
"757 -84 OFFCURVE",
"734 -84 CURVE SMOOTH",
"693 -84 OFFCURVE",
"648 -71 OFFCURVE",
"594 -41 CURVE SMOOTH",
"549 -16 OFFCURVE",
"514 -1 OFFCURVE",
"456 5 CURVE",
"315 5 LINE",
"349 -5 OFFCURVE",
"381 -27 OFFCURVE",
"416 -51 CURVE SMOOTH",
"449 -74 OFFCURVE",
"478 -90 OFFCURVE",
"507 -106 CURVE SMOOTH",
"558 -134 OFFCURVE",
"612 -148 OFFCURVE",
"672 -148 CURVE SMOOTH"
);
},
{
closed = 1;
nodes = (
"264 44 OFFCURVE",
"166 170 OFFCURVE",
"166 346 CURVE SMOOTH",
"166 514 OFFCURVE",
"247 618 OFFCURVE",
"380 618 CURVE SMOOTH",
"513 618 OFFCURVE",
"604 491 OFFCURVE",
"604 308 CURVE SMOOTH",
"604 148 OFFCURVE",
"524 44 OFFCURVE",
"401 44 CURVE SMOOTH"
);
}
);
};
color = -1;
layerId = "D75C065C-4EF6-4055-9CF2-70010DBCD897";
paths = (
{
closed = 1;
nodes = (
"396 -7 LINE",
"573 -7 OFFCURVE",
"708 143 OFFCURVE",
"708 333 CURVE SMOOTH",
"708 532 OFFCURVE",
"579 670 OFFCURVE",
"393 670 CURVE SMOOTH",
"202 670 OFFCURVE",
"58 525 OFFCURVE",
"58 328 CURVE SMOOTH",
"58 128 OFFCURVE",
"194 -9 OFFCURVE",
"389 -9 CURVE"
);
},
{
closed = 1;
nodes = (
"724 -148 OFFCURVE",
"774 -136 OFFCURVE",
"813 -114 CURVE",
"803 -74 LINE",
"780 -80 OFFCURVE",
"757 -84 OFFCURVE",
"734 -84 CURVE SMOOTH",
"686 -84 OFFCURVE",
"641 -71 OFFCURVE",
"587 -41 CURVE SMOOTH",
"542 -16 OFFCURVE",
"507 -1 OFFCURVE",
"456 5 CURVE",
"315 5 LINE",
"349 -5 OFFCURVE",
"381 -27 OFFCURVE",
"416 -51 CURVE SMOOTH",
"450 -73 OFFCURVE",
"478 -90 OFFCURVE",
"507 -106 CURVE SMOOTH",
"558 -134 OFFCURVE",
"612 -148 OFFCURVE",
"672 -148 CURVE SMOOTH"
);
},
{
closed = 1;
nodes = (
"263 44 OFFCURVE",
"164 170 OFFCURVE",
"164 346 CURVE SMOOTH",
"164 514 OFFCURVE",
"246 618 OFFCURVE",
"380 618 CURVE SMOOTH",
"514 618 OFFCURVE",
"606 491 OFFCURVE",
"606 308 CURVE SMOOTH",
"606 148 OFFCURVE",
"525 44 OFFCURVE",
"401 44 CURVE SMOOTH"
);
}
);
width = 766;
},
{
background = {
paths = (
{
closed = 1;
nodes = (
"408 -5 LINE",
"566 -5 OFFCURVE",
"739 118 OFFCURVE",
"739 337 CURVE SMOOTH",
"739 534 OFFCURVE",
"601 670 OFFCURVE",
"404 670 CURVE SMOOTH",
"202 670 OFFCURVE",
"52 524 OFFCURVE",
"52 323 CURVE SMOOTH",
"52 127 OFFCURVE",
"199 -10 OFFCURVE",
"403 -10 CURVE"
);
},
{
closed = 1;
nodes = (
"736 -161 OFFCURVE",
"790 -144 OFFCURVE",
"829 -119 CURVE",
"814 -65 LINE",
"788 -72 OFFCURVE",
"764 -75 OFFCURVE",
"744 -75 CURVE SMOOTH",
"707 -75 OFFCURVE",
"677 -70 OFFCURVE",
"614 -31 CURVE SMOOTH",
"571 -5 OFFCURVE",
"524 10 OFFCURVE",
"471 14 CURVE",
"296 14 LINE",
"330 -2 OFFCURVE",
"358 -21 OFFCURVE",
"381 -38 CURVE SMOOTH",
"401 -53 OFFCURVE",
"421 -69 OFFCURVE",
"442 -84 CURVE SMOOTH",
"501 -126 OFFCURVE",
"568 -161 OFFCURVE",
"676 -161 CURVE SMOOTH"
);
},
{
closed = 1;
nodes = (
"297 65 OFFCURVE",
"215 183 OFFCURVE",
"215 352 CURVE SMOOTH",
"215 505 OFFCURVE",
"280 602 OFFCURVE",
"391 602 CURVE SMOOTH",
"505 602 OFFCURVE",
"579 484 OFFCURVE",
"579 310 CURVE SMOOTH",
"579 154 OFFCURVE",
"519 65 OFFCURVE",
"412 65 CURVE SMOOTH"
);
}
);
};
color = -1;
layerId = "6D340022-02C4-426D-A0D8-A7BFACBEB22E";
paths = (
{
closed = 1;
nodes = (
"408 -5 LINE",
"570 -5 OFFCURVE",
"739 118 OFFCURVE",
"739 337 CURVE SMOOTH",
"739 534 OFFCURVE",
"601 670 OFFCURVE",
"404 670 CURVE SMOOTH",
"202 670 OFFCURVE",
"52 524 OFFCURVE",
"52 323 CURVE SMOOTH",
"52 127 OFFCURVE",
"199 -8 OFFCURVE",
"403 -8 CURVE"
);
},
{
closed = 1;
nodes = (
"746 -161 OFFCURVE",
"801 -144 OFFCURVE",
"841 -119 CURVE",
"826 -65 LINE",
"799 -72 OFFCURVE",
"774 -75 OFFCURVE",
"754 -75 CURVE SMOOTH",
"708 -75 OFFCURVE",
"676 -64 OFFCURVE",
"621 -31 CURVE SMOOTH",
"577 -5 OFFCURVE",
"529 9 OFFCURVE",
"475 12 CURVE",
"296 12 LINE",
"331 -3 OFFCURVE",
"359 -21 OFFCURVE",
"383 -38 CURVE SMOOTH",
"403 -53 OFFCURVE",
"424 -69 OFFCURVE",
"445 -84 CURVE SMOOTH",
"506 -126 OFFCURVE",
"574 -161 OFFCURVE",
"684 -161 CURVE SMOOTH"
);
},
{
closed = 1;
nodes = (
"297 65 OFFCURVE",
"215 183 OFFCURVE",
"215 352 CURVE SMOOTH",
"215 505 OFFCURVE",
"280 602 OFFCURVE",
"391 602 CURVE SMOOTH",
"505 602 OFFCURVE",
"579 484 OFFCURVE",
"579 310 CURVE SMOOTH",
"579 154 OFFCURVE",
"519 65 OFFCURVE",
"412 65 CURVE SMOOTH"
);
}
);
width = 791;
}
);
leftKerningGroup = C;
note = Q;
rightKerningGroup = D;
unicode = 0051;
},
{
color = 4;
glyphname = R;
lastChange = "2018-05-01 14:46:29 +0000";
layers = (
{
background = {
paths = (
{
closed = 1;
nodes = (
"83 0 OFFCURVE",
"132 2 OFFCURVE",
"165 2 CURVE SMOOTH",
"198 2 OFFCURVE",
"248 0 OFFCURVE",
"283 -3 CURVE",
"285 39 LINE",
"259 41 OFFCURVE",
"226 51 OFFCURVE",
"215 54 CURVE",
"212 61 OFFCURVE",
"209 87 OFFCURVE",
"209 217 CURVE SMOOTH",
"209 461 LINE SMOOTH",
"209 557 OFFCURVE",
"209 602 OFFCURVE",
"211 610 CURVE",
"224 614 OFFCURVE",
"249 617 OFFCURVE",
"277 617 CURVE SMOOTH",
"360 617 OFFCURVE",
"410 576 OFFCURVE",
"410 489 CURVE SMOOTH",
"410 406 OFFCURVE",
"354 354 OFFCURVE",
"257 354 CURVE SMOOTH",
"235 354 OFFCURVE",
"218 354 OFFCURVE",
"192 356 CURVE",
"192 308 LINE",
"263 308 LINE SMOOTH",
"401 308 OFFCURVE",
"502 389 OFFCURVE",
"502 502 CURVE SMOOTH",
"502 604 OFFCURVE",
"432 662 OFFCURVE",
"294 662 CURVE SMOOTH",
"235 662 OFFCURVE",
"185 659 OFFCURVE",
"149 659 CURVE SMOOTH",
"114 659 OFFCURVE",
"82 659 OFFCURVE",
"47 660 CURVE",
"45 618 LINE",
"71 619 OFFCURVE",
"106 612 OFFCURVE",
"113 608 CURVE",
"117 601 OFFCURVE",
"121 572 OFFCURVE",
"121 442 CURVE SMOOTH",
"121 217 LINE SMOOTH",
"121 87 OFFCURVE",
"117 61 OFFCURVE",
"113 54 CURVE",
"106 50 OFFCURVE",
"73 40 OFFCURVE",
"47 39 CURVE",
"49 -3 LINE"
);
},
{
closed = 1;
nodes = (
"593 -11 OFFCURVE",
"610 -9 OFFCURVE",
"623 -7 CURVE",
"625 30 LINE",
"572 37 OFFCURVE",
"542 54 OFFCURVE",
"462 169 CURVE SMOOTH",
"339 345 LINE",
"266 329 LINE",
"346 189 LINE SMOOTH",
"434 33 OFFCURVE",
"486 -11 OFFCURVE",
"580 -11 CURVE SMOOTH"
);
}
);
};
color = -1;
layerId = "D75C065C-4EF6-4055-9CF2-70010DBCD897";
paths = (
{
closed = 1;
nodes = (
"83 0 OFFCURVE",
"132 2 OFFCURVE",
"165 2 CURVE SMOOTH",
"198 2 OFFCURVE",
"246 0 OFFCURVE",
"281 -3 CURVE",
"283 39 LINE",
"257 41 OFFCURVE",
"224 51 OFFCURVE",
"213 54 CURVE",
"210 61 OFFCURVE",
"207 87 OFFCURVE",
"207 217 CURVE SMOOTH",
"207 461 LINE SMOOTH",
"207 557 OFFCURVE",
"207 602 OFFCURVE",
"209 610 CURVE",
"222 614 OFFCURVE",
"249 617 OFFCURVE",
"277 617 CURVE SMOOTH",
"360 617 OFFCURVE",
"410 576 OFFCURVE",
"410 489 CURVE SMOOTH",
"410 406 OFFCURVE",
"354 354 OFFCURVE",
"257 354 CURVE SMOOTH",
"235 354 OFFCURVE",
"218 354 OFFCURVE",
"192 356 CURVE",
"192 308 LINE",
"263 308 LINE SMOOTH",
"401 308 OFFCURVE",
"500 388 OFFCURVE",
"500 501 CURVE SMOOTH",
"500 603 OFFCURVE",
"431 662 OFFCURVE",
"294 662 CURVE SMOOTH",
"235 662 OFFCURVE",
"185 659 OFFCURVE",
"149 659 CURVE SMOOTH",
"114 659 OFFCURVE",
"82 659 OFFCURVE",
"47 660 CURVE",
"45 618 LINE",
"71 619 OFFCURVE",
"106 612 OFFCURVE",
"113 608 CURVE",
"117 601 OFFCURVE",
"121 572 OFFCURVE",
"121 442 CURVE SMOOTH",
"121 217 LINE SMOOTH",
"121 87 OFFCURVE",
"117 61 OFFCURVE",
"113 54 CURVE",
"106 50 OFFCURVE",
"73 40 OFFCURVE",
"47 39 CURVE",
"49 -3 LINE"
);
},
{
closed = 1;
nodes = (
"589 -11 OFFCURVE",
"607 -9 OFFCURVE",
"621 -7 CURVE",
"622 30 LINE",
"569 37 OFFCURVE",
"538 53 OFFCURVE",
"460 169 CURVE SMOOTH",
"341 345 LINE",
"264 329 LINE",
"342 189 LINE SMOOTH",
"429 34 OFFCURVE",
"482 -11 OFFCURVE",
"576 -11 CURVE SMOOTH"
);
}
);
width = 615;
},
{
background = {
paths = (
{
closed = 1;
nodes = (
"69 -1 OFFCURVE",
"124 2 OFFCURVE",
"178 2 CURVE SMOOTH",
"232 2 OFFCURVE",
"285 -1 OFFCURVE",
"313 -5 CURVE",
"316 51 LINE",
"293 54 OFFCURVE",
"263 61 OFFCURVE",
"251 69 CURVE",
"250 79 OFFCURVE",
"247 133 OFFCURVE",
"247 239 CURVE SMOOTH",
"247 432 LINE SMOOTH",
"247 532 OFFCURVE",
"249 594 OFFCURVE",
"251 601 CURVE",
"262 604 OFFCURVE",
"278 607 OFFCURVE",
"297 607 CURVE SMOOTH",
"362 607 OFFCURVE",
"411 571 OFFCURVE",
"411 490 CURVE SMOOTH",
"411 405 OFFCURVE",
"352 363 OFFCURVE",
"282 363 CURVE SMOOTH",
"269 363 OFFCURVE",
"254 363 OFFCURVE",
"236 364 CURVE",
"236 304 LINE",
"302 304 LINE SMOOTH",
"448 303 OFFCURVE",
"556 384 OFFCURVE",
"556 494 CURVE SMOOTH",
"556 611 OFFCURVE",
"467 663 OFFCURVE",
"315 663 CURVE SMOOTH",
"266 663 OFFCURVE",
"214 659 OFFCURVE",
"178 659 CURVE SMOOTH",
"133 659 OFFCURVE",
"86 659 OFFCURVE",
"33 661 CURVE",
"30 605 LINE",
"58 605 OFFCURVE",
"90 599 OFFCURVE",
"101 591 CURVE",
"105 583 OFFCURVE",
"109 527 OFFCURVE",
"109 421 CURVE SMOOTH",
"109 239 LINE SMOOTH",
"109 133 OFFCURVE",
"106 77 OFFCURVE",
"103 69 CURVE",
"91 61 OFFCURVE",
"60 54 OFFCURVE",
"33 51 CURVE",
"36 -5 LINE"
);
},
{
closed = 1;
nodes = (
"633 -13 OFFCURVE",
"655 -11 OFFCURVE",
"677 -7 CURVE",
"678 41 LINE",
"625 52 OFFCURVE",
"578 91 OFFCURVE",
"528 162 CURVE SMOOTH",
"398 345 LINE",
"284 320 LINE",
"351 181 LINE SMOOTH",
"417 43 OFFCURVE",
"491 -13 OFFCURVE",
"612 -13 CURVE SMOOTH"
);
}
);
};
color = -1;
layerId = "6D340022-02C4-426D-A0D8-A7BFACBEB22E";
paths = (
{
closed = 1;
nodes = (
"69 -1 OFFCURVE",
"124 2 OFFCURVE",
"178 2 CURVE SMOOTH",
"232 2 OFFCURVE",
"285 -1 OFFCURVE",
"313 -5 CURVE",
"316 51 LINE",
"293 54 OFFCURVE",
"263 61 OFFCURVE",
"251 69 CURVE",
"250 79 OFFCURVE",
"247 133 OFFCURVE",
"247 239 CURVE SMOOTH",
"247 432 LINE SMOOTH",
"247 532 OFFCURVE",
"249 594 OFFCURVE",
"251 601 CURVE",
"262 604 OFFCURVE",
"279 607 OFFCURVE",
"298 607 CURVE SMOOTH",
"364 607 OFFCURVE",
"414 571 OFFCURVE",
"414 490 CURVE SMOOTH",
"414 405 OFFCURVE",
"354 363 OFFCURVE",
"283 363 CURVE SMOOTH",
"270 363 OFFCURVE",
"254 363 OFFCURVE",
"236 364 CURVE",
"236 304 LINE",
"302 304 LINE SMOOTH",
"450 303 OFFCURVE",
"559 384 OFFCURVE",
"559 494 CURVE SMOOTH",
"559 611 OFFCURVE",
"469 663 OFFCURVE",
"315 663 CURVE SMOOTH",
"266 663 OFFCURVE",
"214 659 OFFCURVE",
"178 659 CURVE SMOOTH",
"133 659 OFFCURVE",
"86 659 OFFCURVE",
"33 661 CURVE",
"30 605 LINE",
"58 605 OFFCURVE",
"90 599 OFFCURVE",
"101 591 CURVE",
"105 583 OFFCURVE",
"109 527 OFFCURVE",
"109 421 CURVE SMOOTH",
"109 239 LINE SMOOTH",
"109 133 OFFCURVE",
"106 77 OFFCURVE",
"103 69 CURVE",
"91 61 OFFCURVE",
"60 54 OFFCURVE",
"33 51 CURVE",
"36 -5 LINE"
);
},
{
closed = 1;
nodes = (
"633 -13 OFFCURVE",
"655 -11 OFFCURVE",
"677 -7 CURVE",
"678 41 LINE",
"625 52 OFFCURVE",
"578 91 OFFCURVE",
"528 162 CURVE SMOOTH",
"398 345 LINE",
"284 320 LINE",
"351 181 LINE SMOOTH",
"417 43 OFFCURVE",
"491 -13 OFFCURVE",
"612 -13 CURVE SMOOTH"
);
}
);
width = 678;
}
);
leftKerningGroup = B;
note = R;
rightKerningGroup = R;
unicode = 0052;
},
{
color = 4;
glyphname = S;
lastChange = "2018-05-01 14:46:29 +0000";
layers = (
{
background = {
paths = (
{
closed = 1;
nodes = (
"986 -10 OFFCURVE",
"1082 67 OFFCURVE",
"1082 173 CURVE SMOOTH",
"1082 255 OFFCURVE",
"1037 304 OFFCURVE",
"903 369 CURVE SMOOTH",
"797 420 OFFCURVE",
"762 456 OFFCURVE",
"762 516 CURVE SMOOTH",
"762 579 OFFCURVE",
"809 621 OFFCURVE",
"887 621 CURVE SMOOTH",
"920 621 OFFCURVE",
"949 613 OFFCURVE",
"973 599 CURVE",
"987 567 OFFCURVE",
"996 543 OFFCURVE",
"1004 509 CURVE",
"1048 513 LINE",
"1040 645 LINE",
"998 661 OFFCURVE",
"947 670 OFFCURVE",
"896 670 CURVE SMOOTH",
"763 670 OFFCURVE",
"670 597 OFFCURVE",
"670 492 CURVE SMOOTH",
"670 409 OFFCURVE",
"715 359 OFFCURVE",
"848 295 CURVE SMOOTH",
"958 242 OFFCURVE",
"989 210 OFFCURVE",
"989 148 CURVE SMOOTH",
"989 82 OFFCURVE",
"940 40 OFFCURVE",
"863 40 CURVE SMOOTH",
"818 40 OFFCURVE",
"775 53 OFFCURVE",
"740 77 CURVE",
"730 106 OFFCURVE",
"720 138 OFFCURVE",
"709 177 CURVE",
"664 171 LINE",
"664 125 OFFCURVE",
"666 79 OFFCURVE",
"670 33 CURVE",
"712 8 OFFCURVE",
"788 -10 OFFCURVE",
"853 -10 CURVE SMOOTH"
);
},
{
closed = 1;
nodes = (
"386 -10 OFFCURVE",
"482 67 OFFCURVE",
"482 173 CURVE SMOOTH",
"482 255 OFFCURVE",
"437 304 OFFCURVE",
"303 369 CURVE SMOOTH",
"197 420 OFFCURVE",
"162 456 OFFCURVE",
"162 516 CURVE SMOOTH",
"162 579 OFFCURVE",
"209 622 OFFCURVE",
"285 622 CURVE SMOOTH",
"320 622 OFFCURVE",
"349 614 OFFCURVE",
"373 598 CURVE",
"387 567 OFFCURVE",
"394 543 OFFCURVE",
"404 509 CURVE",
"448 513 LINE",
"440 646 LINE",
"402 662 OFFCURVE",
"351 670 OFFCURVE",
"296 670 CURVE SMOOTH",
"163 670 OFFCURVE",
"70 597 OFFCURVE",
"70 492 CURVE SMOOTH",
"70 409 OFFCURVE",
"115 359 OFFCURVE",
"248 295 CURVE SMOOTH",
"358 242 OFFCURVE",
"389 210 OFFCURVE",
"389 148 CURVE SMOOTH",
"389 82 OFFCURVE",
"340 41 OFFCURVE",
"268 41 CURVE SMOOTH",
"220 41 OFFCURVE",
"175 56 OFFCURVE",
"139 80 CURVE",
"129 109 OFFCURVE",
"120 138 OFFCURVE",
"109 177 CURVE",
"64 171 LINE",
"64 125 OFFCURVE",
"66 79 OFFCURVE",
"70 32 CURVE",
"112 8 OFFCURVE",
"188 -10 OFFCURVE",
"253 -10 CURVE SMOOTH"
);
}
);
};
color = -1;
layerId = "D75C065C-4EF6-4055-9CF2-70010DBCD897";
paths = (
{
closed = 1;
nodes = (
"386 -10 OFFCURVE",
"482 67 OFFCURVE",
"482 173 CURVE SMOOTH",
"482 255 OFFCURVE",
"437 304 OFFCURVE",
"303 369 CURVE SMOOTH",
"197 420 OFFCURVE",
"162 456 OFFCURVE",
"162 516 CURVE SMOOTH",
"162 579 OFFCURVE",
"209 622 OFFCURVE",
"285 622 CURVE SMOOTH",
"320 622 OFFCURVE",
"349 614 OFFCURVE",
"373 598 CURVE",
"387 567 OFFCURVE",
"394 543 OFFCURVE",
"404 509 CURVE",
"448 513 LINE",
"440 646 LINE",
"402 662 OFFCURVE",
"351 670 OFFCURVE",
"296 670 CURVE SMOOTH",
"163 670 OFFCURVE",
"70 597 OFFCURVE",
"70 492 CURVE SMOOTH",
"70 409 OFFCURVE",
"115 359 OFFCURVE",
"248 295 CURVE SMOOTH",
"358 242 OFFCURVE",
"389 210 OFFCURVE",
"389 148 CURVE SMOOTH",
"389 82 OFFCURVE",
"340 41 OFFCURVE",
"268 41 CURVE SMOOTH",
"220 41 OFFCURVE",
"175 56 OFFCURVE",
"139 80 CURVE",
"129 109 OFFCURVE",
"120 138 OFFCURVE",
"109 177 CURVE",
"64 171 LINE",
"64 125 OFFCURVE",
"66 79 OFFCURVE",
"70 32 CURVE",
"112 8 OFFCURVE",
"188 -10 OFFCURVE",
"253 -10 CURVE SMOOTH"
);
}
);
width = 517;
},
{
background = {
paths = (
{
closed = 1;
nodes = (
"416 -10 OFFCURVE",
"529 72 OFFCURVE",
"529 189 CURVE SMOOTH",
"529 273 OFFCURVE",
"478 327 OFFCURVE",
"354 376 CURVE SMOOTH",
"239 421 OFFCURVE",
"201 455 OFFCURVE",
"201 512 CURVE SMOOTH",
"201 572 OFFCURVE",
"246 607 OFFCURVE",
"310 607 CURVE SMOOTH",
"341 607 OFFCURVE",
"364 602 OFFCURVE",
"393 588 CURVE",
"406 560 OFFCURVE",
"418 523 OFFCURVE",
"428 482 CURVE",
"487 488 LINE",
"475 643 LINE",
"436 659 OFFCURVE",
"372 671 OFFCURVE",
"320 671 CURVE SMOOTH",
"162 671 OFFCURVE",
"56 592 OFFCURVE",
"56 474 CURVE SMOOTH",
"56 387 OFFCURVE",
"107 331 OFFCURVE",
"237 276 CURVE SMOOTH",
"350 228 OFFCURVE",
"381 199 OFFCURVE",
"381 143 CURVE SMOOTH",
"381 89 OFFCURVE",
"338 57 OFFCURVE",
"270 57 CURVE SMOOTH",
"230 57 OFFCURVE",
"184 70 OFFCURVE",
"152 89 CURVE",
"137 125 OFFCURVE",
"125 162 OFFCURVE",
"115 202 CURVE",
"51 196 LINE",
"50 148 OFFCURVE",
"52 97 OFFCURVE",
"56 38 CURVE",
"107 10 OFFCURVE",
"189 -10 OFFCURVE",
"256 -10 CURVE SMOOTH"
);
}
);
};
color = -1;
layerId = "6D340022-02C4-426D-A0D8-A7BFACBEB22E";
paths = (
{
closed = 1;
nodes = (
"416 -10 OFFCURVE",
"526 72 OFFCURVE",
"526 189 CURVE SMOOTH",
"526 273 OFFCURVE",
"478 327 OFFCURVE",
"354 376 CURVE SMOOTH",
"239 421 OFFCURVE",
"200 455 OFFCURVE",
"200 514 CURVE SMOOTH",
"200 572 OFFCURVE",
"246 607 OFFCURVE",
"309 607 CURVE SMOOTH",
"337 607 OFFCURVE",
"363 602 OFFCURVE",
"390 588 CURVE",
"403 560 OFFCURVE",
"415 523 OFFCURVE",
"425 482 CURVE",
"490 488 LINE",
"478 643 LINE",
"437 660 OFFCURVE",
"372 671 OFFCURVE",
"320 671 CURVE SMOOTH",
"161 671 OFFCURVE",
"55 592 OFFCURVE",
"55 476 CURVE SMOOTH",
"55 387 OFFCURVE",
"107 331 OFFCURVE",
"237 276 CURVE SMOOTH",
"350 228 OFFCURVE",
"378 199 OFFCURVE",
"378 143 CURVE SMOOTH",
"378 89 OFFCURVE",
"338 57 OFFCURVE",
"270 57 CURVE SMOOTH",
"234 57 OFFCURVE",
"188 68 OFFCURVE",
"155 90 CURVE",
"141 125 OFFCURVE",
"129 162 OFFCURVE",
"119 202 CURVE",
"52 196 LINE",
"51 148 OFFCURVE",
"53 97 OFFCURVE",
"57 38 CURVE",
"109 9 OFFCURVE",
"191 -10 OFFCURVE",
"256 -10 CURVE SMOOTH"
);
}
);
width = 546;
}
);
leftKerningGroup = S;
note = S;
rightKerningGroup = S;
unicode = 0053;
},
{
color = 3;
glyphname = Germandbls;
lastChange = "2018-05-02 12:46:39 +0000";
layers = (
{
background = {
paths = (
{
closed = 1;
nodes = (
"880 0 OFFCURVE",
"929 2 OFFCURVE",
"962 2 CURVE SMOOTH",
"995 2 OFFCURVE",
"1044 0 OFFCURVE",
"1079 -3 CURVE",
"1081 39 LINE",
"1055 39 OFFCURVE",
"1020 50 OFFCURVE",
"1013 54 CURVE",
"1009 61 OFFCURVE",
"1004 87 OFFCURVE",
"1005 217 CURVE SMOOTH",
"1006 408 LINE SMOOTH",
"1007 542 OFFCURVE",
"1069 603 OFFCURVE",
"1176 603 CURVE SMOOTH",
"1281 603 OFFCURVE",
"1347 547 OFFCURVE",
"1347 399 CURVE SMOOTH",
"1347 238 LINE SMOOTH",
"1347 88 OFFCURVE",
"1343 62 OFFCURVE",
"1339 55 CURVE",
"1332 51 OFFCURVE",
"1297 41 OFFCURVE",
"1271 41 CURVE",
"1273 -1 LINE",
"1308 1 OFFCURVE",
"1339 2 OFFCURVE",
"1375 2 CURVE SMOOTH",
"1408 2 OFFCURVE",
"1450 1 OFFCURVE",
"1485 -1 CURVE",
"1487 41 LINE",
"1474 41 OFFCURVE",
"1426 51 OFFCURVE",
"1419 55 CURVE",
"1415 62 OFFCURVE",
"1411 88 OFFCURVE",
"1411 238 CURVE SMOOTH",
"1411 400 LINE SMOOTH",
"1411 588 OFFCURVE",
"1309 670 OFFCURVE",
"1181 670 CURVE SMOOTH",
"1025 670 OFFCURVE",
"919 578 OFFCURVE",
"919 420 CURVE SMOOTH",
"919 217 LINE SMOOTH",
"919 87 OFFCURVE",
"915 61 OFFCURVE",
"911 54 CURVE",
"904 50 OFFCURVE",
"869 40 OFFCURVE",
"843 39 CURVE",
"845 -3 LINE"
);
},
{
closed = 1;
nodes = (
"1456 -10 OFFCURVE",
"1552 67 OFFCURVE",
"1552 173 CURVE SMOOTH",
"1552 255 OFFCURVE",
"1507 304 OFFCURVE",
"1373 369 CURVE SMOOTH",
"1267 420 OFFCURVE",
"1232 456 OFFCURVE",
"1232 516 CURVE SMOOTH",
"1232 579 OFFCURVE",
"1279 622 OFFCURVE",
"1355 622 CURVE SMOOTH",
"1390 622 OFFCURVE",
"1419 614 OFFCURVE",
"1443 598 CURVE",
"1457 567 OFFCURVE",
"1464 543 OFFCURVE",
"1474 509 CURVE",
"1518 513 LINE",
"1510 646 LINE",
"1472 662 OFFCURVE",
"1421 670 OFFCURVE",
"1366 670 CURVE SMOOTH",
"1233 670 OFFCURVE",
"1140 597 OFFCURVE",
"1140 492 CURVE SMOOTH",
"1140 409 OFFCURVE",
"1185 359 OFFCURVE",
"1318 295 CURVE SMOOTH",
"1428 242 OFFCURVE",
"1459 210 OFFCURVE",
"1459 148 CURVE SMOOTH",
"1459 82 OFFCURVE",
"1410 41 OFFCURVE",
"1338 41 CURVE SMOOTH",
"1290 41 OFFCURVE",
"1245 56 OFFCURVE",
"1209 80 CURVE",
"1199 109 OFFCURVE",
"1190 138 OFFCURVE",
"1179 177 CURVE",
"1134 171 LINE",
"1134 125 OFFCURVE",
"1136 79 OFFCURVE",
"1140 32 CURVE",
"1182 8 OFFCURVE",
"1258 -10 OFFCURVE",
"1323 -10 CURVE SMOOTH"
);
}
);
};
layerId = "D75C065C-4EF6-4055-9CF2-70010DBCD897";
paths = (
{
closed = 1;
nodes = (
"81 0 OFFCURVE",
"130 2 OFFCURVE",
"163 2 CURVE SMOOTH",
"196 2 OFFCURVE",
"244 0 OFFCURVE",
"279 -3 CURVE",
"281 39 LINE",
"255 39 OFFCURVE",
"220 50 OFFCURVE",
"213 54 CURVE",
"209 61 OFFCURVE",
"206 87 OFFCURVE",
"206 217 CURVE",
"205 429 LINE",
"205 550 OFFCURVE",
"267 619 OFFCURVE",
"369 619 CURVE SMOOTH",
"440 619 OFFCURVE",
"489 584 OFFCURVE",
"509 526 CURVE",
"575 526 LINE",
"536 628 OFFCURVE",
"459 671 OFFCURVE",
"366 671 CURVE SMOOTH",
"219 671 OFFCURVE",
"119 568 OFFCURVE",
"119 412 CURVE",
"120 217 LINE",
"120 87 OFFCURVE",
"116 61 OFFCURVE",
"112 54 CURVE",
"105 50 OFFCURVE",
"70 40 OFFCURVE",
"44 39 CURVE",
"46 -3 LINE"
);
},
{
closed = 1;
nodes = (
"643 -10 OFFCURVE",
"724 50 OFFCURVE",
"724 147 CURVE SMOOTH",
"724 324 OFFCURVE",
"440 292 OFFCURVE",
"440 421 CURVE SMOOTH",
"440 467 OFFCURVE",
"479 505 OFFCURVE",
"554 505 CURVE SMOOTH",
"581 505 OFFCURVE",
"605 501 OFFCURVE",
"624 493 CURVE",
"636 463 OFFCURVE",
"641 440 OFFCURVE",
"649 414 CURVE",
"693 417 LINE",
"686 532 LINE",
"653 543 OFFCURVE",
"603 550 OFFCURVE",
"557 550 CURVE SMOOTH",
"428 550 OFFCURVE",
"352 483 OFFCURVE",
"352 398 CURVE SMOOTH",
"352 218 OFFCURVE",
"636 254 OFFCURVE",
"636 124 CURVE SMOOTH",
"636 74 OFFCURVE",
"596 39 OFFCURVE",
"532 39 CURVE SMOOTH",
"494 39 OFFCURVE",
"451 52 OFFCURVE",
"417 75 CURVE",
"407 103 OFFCURVE",
"399 135 OFFCURVE",
"388 174 CURVE",
"343 168 LINE",
"343 121 OFFCURVE",
"345 75 OFFCURVE",
"349 30 CURVE",
"391 8 OFFCURVE",
"457 -10 OFFCURVE",
"521 -10 CURVE SMOOTH"
);
}
);
width = 759;
},
{
background = {
paths = (
{
closed = 1;
nodes = (
"665 -10 OFFCURVE",
"746 50 OFFCURVE",
"746 147 CURVE SMOOTH",
"746 324 OFFCURVE",
"462 292 OFFCURVE",
"462 421 CURVE SMOOTH",
"462 467 OFFCURVE",
"501 506 OFFCURVE",
"576 506 CURVE SMOOTH",
"603 506 OFFCURVE",
"627 501 OFFCURVE",
"646 493 CURVE",
"658 463 OFFCURVE",
"663 440 OFFCURVE",
"671 414 CURVE",
"715 417 LINE",
"708 532 LINE",
"675 543 OFFCURVE",
"628 550 OFFCURVE",
"580 550 CURVE SMOOTH",
"450 550 OFFCURVE",
"374 483 OFFCURVE",
"374 398 CURVE SMOOTH",
"374 218 OFFCURVE",
"658 254 OFFCURVE",
"658 124 CURVE SMOOTH",
"658 74 OFFCURVE",
"618 39 OFFCURVE",
"554 39 CURVE SMOOTH",
"516 39 OFFCURVE",
"473 52 OFFCURVE",
"439 75 CURVE",
"429 103 OFFCURVE",
"421 135 OFFCURVE",
"410 174 CURVE",
"365 168 LINE",
"365 121 OFFCURVE",
"367 75 OFFCURVE",
"371 30 CURVE",
"413 8 OFFCURVE",
"489 -10 OFFCURVE",
"543 -10 CURVE SMOOTH"
);
},
{
closed = 1;
nodes = (
"600 526 LINE",
"561 627 OFFCURVE",
"484 670 OFFCURVE",
"391 670 CURVE SMOOTH",
"251 670 OFFCURVE",
"144 574 OFFCURVE",
"144 412 CURVE SMOOTH",
"144 217 LINE SMOOTH",
"144 87 OFFCURVE",
"140 61 OFFCURVE",
"136 54 CURVE",
"129 50 OFFCURVE",
"94 40 OFFCURVE",
"68 39 CURVE",
"70 -3 LINE",
"105 0 OFFCURVE",
"154 2 OFFCURVE",
"187 2 CURVE SMOOTH",
"220 2 OFFCURVE",
"268 0 OFFCURVE",
"303 -3 CURVE",
"305 39 LINE",
"279 39 OFFCURVE",
"244 50 OFFCURVE",
"237 54 CURVE",
"233 61 OFFCURVE",
"230 87 OFFCURVE",
"230 217 CURVE SMOOTH",
"230 429 LINE SMOOTH",
"230 553 OFFCURVE",
"296 617 OFFCURVE",
"390 617 CURVE SMOOTH",
"464 617 OFFCURVE",
"514 583 OFFCURVE",
"534 526 CURVE"
);
}
);
};
layerId = "6D340022-02C4-426D-A0D8-A7BFACBEB22E";
paths = (
{
closed = 1;
nodes = (
"72 -1 OFFCURVE",
"118 2 OFFCURVE",
"173 2 CURVE SMOOTH",
"226 2 OFFCURVE",
"279 -1 OFFCURVE",
"306 -4 CURVE",
"308 52 LINE",
"286 54 OFFCURVE",
"262 61 OFFCURVE",
"253 69 CURVE",
"249 77 OFFCURVE",
"246 133 OFFCURVE",
"245 239 CURVE",
"243 416 LINE",
"242 541 OFFCURVE",
"303 605 OFFCURVE",
"398 605 CURVE SMOOTH",
"459 605 OFFCURVE",
"510 582 OFFCURVE",
"533 524 CURVE",
"623 524 LINE",
"581 627 OFFCURVE",
"496 672 OFFCURVE",
"396 672 CURVE SMOOTH",
"216 672 OFFCURVE",
"106 557 OFFCURVE",
"106 385 CURVE",
"107 239 LINE",
"107 133 OFFCURVE",
"103 77 OFFCURVE",
"99 69 CURVE",
"88 61 OFFCURVE",
"63 54 OFFCURVE",
"35 51 CURVE",
"38 -5 LINE"
);
},
{
closed = 1;
nodes = (
"672 -10 OFFCURVE",
"771 58 OFFCURVE",
"771 158 CURVE SMOOTH",
"771 339 OFFCURVE",
"496 312 OFFCURVE",
"496 422 CURVE SMOOTH",
"496 467 OFFCURVE",
"535 494 OFFCURVE",
"590 494 CURVE SMOOTH",
"607 494 OFFCURVE",
"622 493 OFFCURVE",
"642 486 CURVE",
"655 461 OFFCURVE",
"665 428 OFFCURVE",
"673 392 CURVE",
"735 397 LINE",
"725 533 LINE",
"690 546 OFFCURVE",
"626 554 OFFCURVE",
"586 554 CURVE SMOOTH",
"460 554 OFFCURVE",
"364 479 OFFCURVE",
"364 383 CURVE SMOOTH",
"364 196 OFFCURVE",
"638 242 OFFCURVE",
"638 119 CURVE SMOOTH",
"638 75 OFFCURVE",
"596 53 OFFCURVE",
"545 53 CURVE SMOOTH",
"516 53 OFFCURVE",
"484 60 OFFCURVE",
"456 79 CURVE",
"445 107 OFFCURVE",
"434 141 OFFCURVE",
"425 177 CURVE",
"362 170 LINE",
"361 130 OFFCURVE",
"363 77 OFFCURVE",
"366 27 CURVE",
"411 4 OFFCURVE",
"483 -10 OFFCURVE",
"540 -10 CURVE SMOOTH"
);
}
);
width = 794;
}
);
unicode = 1E9E;
},
{
color = 4;
glyphname = T;
lastChange = "2018-05-01 14:46:29 +0000";
layers = (
{
background = {
paths = (
{
closed = 1;
nodes = (
"531 661 OFFCURVE",
"499 660 OFFCURVE",
"465 660 CURVE SMOOTH",
"144 660 LINE SMOOTH",
"110 660 OFFCURVE",
"78 661 OFFCURVE",
"42 664 CURVE",
"35 605 OFFCURVE",
"26 546 OFFCURVE",
"17 487 CURVE",
"64 481 LINE",
"81 541 OFFCURVE",
"99 590 OFFCURVE",
"111 607 CURVE",
"122 609 OFFCURVE",
"138 610 OFFCURVE",
"151 610 CURVE SMOOTH",
"190 610 LINE SMOOTH",
"219 610 OFFCURVE",
"238 609 OFFCURVE",
"258 608 CURVE",
"259 591 OFFCURVE",
"260 488 OFFCURVE",
"260 412 CURVE SMOOTH",
"260 247 LINE SMOOTH",
"260 147 OFFCURVE",
"256 71 OFFCURVE",
"255 54 CURVE",
"233 50 OFFCURVE",
"182 43 OFFCURVE",
"165 41 CURVE",
"167 -3 LINE",
"202 0 OFFCURVE",
"271 2 OFFCURVE",
"304 2 CURVE SMOOTH",
"337 2 OFFCURVE",
"407 0 OFFCURVE",
"442 -3 CURVE",
"444 41 LINE",
"427 43 OFFCURVE",
"376 50 OFFCURVE",
"354 54 CURVE",
"353 71 OFFCURVE",
"349 147 OFFCURVE",
"349 247 CURVE SMOOTH",
"349 412 LINE SMOOTH",
"349 488 OFFCURVE",
"350 591 OFFCURVE",
"351 608 CURVE",
"371 609 OFFCURVE",
"391 610 OFFCURVE",
"419 610 CURVE SMOOTH",
"458 610 LINE SMOOTH",
"471 610 OFFCURVE",
"487 609 OFFCURVE",
"498 607 CURVE",
"510 590 OFFCURVE",
"528 541 OFFCURVE",
"545 481 CURVE",
"592 487 LINE",
"583 546 OFFCURVE",
"574 605 OFFCURVE",
"567 664 CURVE"
);
}
);
};
color = -1;
layerId = "D75C065C-4EF6-4055-9CF2-70010DBCD897";
paths = (
{
closed = 1;
nodes = (
"535 661 OFFCURVE",
"502 660 OFFCURVE",
"468 660 CURVE SMOOTH",
"139 660 LINE SMOOTH",
"105 660 OFFCURVE",
"72 661 OFFCURVE",
"36 664 CURVE",
"29 605 OFFCURVE",
"21 546 OFFCURVE",
"12 487 CURVE",
"61 481 LINE",
"79 541 OFFCURVE",
"97 590 OFFCURVE",
"108 607 CURVE",
"119 609 OFFCURVE",
"135 610 OFFCURVE",
"148 610 CURVE SMOOTH",
"191 610 LINE SMOOTH",
"220 610 OFFCURVE",
"238 609 OFFCURVE",
"258 608 CURVE",
"259 591 OFFCURVE",
"260 488 OFFCURVE",
"260 412 CURVE SMOOTH",
"260 247 LINE SMOOTH",
"260 147 OFFCURVE",
"256 71 OFFCURVE",
"255 54 CURVE",
"233 50 OFFCURVE",
"182 43 OFFCURVE",
"165 41 CURVE",
"167 -3 LINE",
"202 0 OFFCURVE",
"271 2 OFFCURVE",
"304 2 CURVE SMOOTH",
"338 2 OFFCURVE",
"407 0 OFFCURVE",
"442 -3 CURVE",
"444 41 LINE",
"427 43 OFFCURVE",
"376 50 OFFCURVE",
"354 54 CURVE",
"353 71 OFFCURVE",
"349 147 OFFCURVE",
"349 247 CURVE SMOOTH",
"349 412 LINE SMOOTH",
"349 488 OFFCURVE",
"350 591 OFFCURVE",
"351 608 CURVE",
"371 609 OFFCURVE",
"391 610 OFFCURVE",
"419 610 CURVE SMOOTH",
"459 610 LINE SMOOTH",
"472 610 OFFCURVE",
"488 609 OFFCURVE",
"499 607 CURVE",
"510 590 OFFCURVE",
"528 541 OFFCURVE",
"546 481 CURVE",
"595 487 LINE",
"586 546 OFFCURVE",
"578 605 OFFCURVE",
"571 664 CURVE"
);
}
);
width = 609;
},
{
background = {
paths = (
{
closed = 1;
nodes = (
"580 663 OFFCURVE",
"511 660 OFFCURVE",
"472 660 CURVE SMOOTH",
"182 660 LINE SMOOTH",
"143 660 OFFCURVE",
"74 663 OFFCURVE",
"41 665 CURVE",
"34 601 OFFCURVE",
"26 536 OFFCURVE",
"16 472 CURVE",
"76 466 LINE",
"92 518 OFFCURVE",
"107 565 OFFCURVE",
"121 594 CURVE",
"139 597 OFFCURVE",
"152 598 OFFCURVE",
"170 598 CURVE SMOOTH",
"208 598 LINE SMOOTH",
"225 598 OFFCURVE",
"244 597 OFFCURVE",
"256 595 CURVE",
"257 581 OFFCURVE",
"259 473 OFFCURVE",
"259 381 CURVE SMOOTH",
"259 259 LINE SMOOTH",
"259 170 OFFCURVE",
"255 97 OFFCURVE",
"251 69 CURVE",
"224 62 OFFCURVE",
"178 56 OFFCURVE",
"150 53 CURVE",
"153 -5 LINE",
"197 -1 OFFCURVE",
"282 0 OFFCURVE",
"327 0 CURVE SMOOTH",
"372 0 OFFCURVE",
"457 -1 OFFCURVE",
"501 -5 CURVE",
"504 53 LINE",
"476 56 OFFCURVE",
"430 62 OFFCURVE",
"403 69 CURVE",
"399 97 OFFCURVE",
"395 170 OFFCURVE",
"395 259 CURVE SMOOTH",
"395 381 LINE SMOOTH",
"395 473 OFFCURVE",
"397 581 OFFCURVE",
"398 595 CURVE",
"410 597 OFFCURVE",
"429 598 OFFCURVE",
"446 598 CURVE SMOOTH",
"484 598 LINE SMOOTH",
"502 598 OFFCURVE",
"515 597 OFFCURVE",
"533 594 CURVE",
"547 565 OFFCURVE",
"562 518 OFFCURVE",
"578 466 CURVE",
"638 472 LINE",
"628 536 OFFCURVE",
"620 601 OFFCURVE",
"613 665 CURVE"
);
}
);
};
color = -1;
layerId = "6D340022-02C4-426D-A0D8-A7BFACBEB22E";
paths = (
{
closed = 1;
nodes = (
"587 663 OFFCURVE",
"513 660 OFFCURVE",
"474 660 CURVE SMOOTH",
"179 660 LINE SMOOTH",
"140 660 OFFCURVE",
"66 663 OFFCURVE",
"33 665 CURVE",
"26 601 OFFCURVE",
"18 536 OFFCURVE",
"10 471 CURVE",
"75 465 LINE",
"89 518 OFFCURVE",
"104 565 OFFCURVE",
"118 594 CURVE",
"136 597 OFFCURVE",
"149 598 OFFCURVE",
"167 598 CURVE SMOOTH",
"208 598 LINE SMOOTH",
"225 598 OFFCURVE",
"244 597 OFFCURVE",
"256 595 CURVE",
"257 581 OFFCURVE",
"259 473 OFFCURVE",
"259 381 CURVE SMOOTH",
"259 259 LINE SMOOTH",
"259 170 OFFCURVE",
"255 97 OFFCURVE",
"251 69 CURVE",
"224 62 OFFCURVE",
"178 56 OFFCURVE",
"150 53 CURVE",
"153 -5 LINE",
"197 -1 OFFCURVE",
"283 0 OFFCURVE",
"328 0 CURVE SMOOTH",
"373 0 OFFCURVE",
"459 -1 OFFCURVE",
"503 -5 CURVE",
"506 53 LINE",
"478 56 OFFCURVE",
"432 62 OFFCURVE",
"405 69 CURVE",
"401 97 OFFCURVE",
"397 170 OFFCURVE",
"397 259 CURVE SMOOTH",
"397 381 LINE SMOOTH",
"397 473 OFFCURVE",
"399 581 OFFCURVE",
"400 595 CURVE",
"412 597 OFFCURVE",
"431 598 OFFCURVE",
"448 598 CURVE SMOOTH",
"486 598 LINE SMOOTH",
"504 598 OFFCURVE",
"517 597 OFFCURVE",
"535 594 CURVE",
"549 565 OFFCURVE",
"564 518 OFFCURVE",
"580 466 CURVE",
"645 472 LINE",
"635 536 OFFCURVE",
"627 601 OFFCURVE",
"620 665 CURVE"
);
}
);
width = 656;
}
);
leftKerningGroup = T;
note = T;
rightKerningGroup = T;
unicode = 0054;
},
{
color = 4;
glyphname = U;
lastChange = "2018-05-01 14:46:29 +0000";
layers = (
{
background = {
paths = (
{
closed = 1;
nodes = (
"41 619 LINE",
"67 619 OFFCURVE",
"102 609 OFFCURVE",
"109 605 CURVE",
"113 598 OFFCURVE",
"117 572 OFFCURVE",
"117 442 CURVE SMOOTH",
"117 240 LINE SMOOTH",
"117 80 OFFCURVE",
"215 -10 OFFCURVE",
"374 -10 CURVE SMOOTH",
"509 -10 OFFCURVE",
"609 72 OFFCURVE",
"609 247 CURVE SMOOTH",
"609 422 LINE SMOOTH",
"609 572 OFFCURVE",
"613 598 OFFCURVE",
"617 605 CURVE",
"624 609 OFFCURVE",
"672 619 OFFCURVE",
"685 619 CURVE",
"683 661 LINE",
"648 659 OFFCURVE",
"608 658 OFFCURVE",
"575 658 CURVE SMOOTH",
"539 658 OFFCURVE",
"508 659 OFFCURVE",
"473 661 CURVE",
"471 619 LINE",
"497 619 OFFCURVE",
"532 609 OFFCURVE",
"539 605 CURVE",
"543 598 OFFCURVE",
"547 572 OFFCURVE",
"547 422 CURVE SMOOTH",
"547 259 LINE SMOOTH",
"547 114 OFFCURVE",
"481 58 OFFCURVE",
"385 58 CURVE SMOOTH",
"271 58 OFFCURVE",
"207 121 OFFCURVE",
"206 252 CURVE SMOOTH",
"205 442 LINE SMOOTH",
"204 572 OFFCURVE",
"209 598 OFFCURVE",
"213 605 CURVE",
"220 609 OFFCURVE",
"255 619 OFFCURVE",
"281 619 CURVE",
"279 661 LINE",
"244 659 OFFCURVE",
"194 658 OFFCURVE",
"161 658 CURVE SMOOTH",
"128 658 OFFCURVE",
"78 659 OFFCURVE",
"43 661 CURVE"
);
}
);
};
color = -1;
layerId = "D75C065C-4EF6-4055-9CF2-70010DBCD897";
paths = (
{
closed = 1;
nodes = (
"43 619 LINE",
"69 619 OFFCURVE",
"104 609 OFFCURVE",
"111 605 CURVE",
"115 598 OFFCURVE",
"119 572 OFFCURVE",
"119 442 CURVE SMOOTH",
"119 240 LINE SMOOTH",
"119 82 OFFCURVE",
"215 -10 OFFCURVE",
"373 -10 CURVE SMOOTH",
"509 -10 OFFCURVE",
"611 72 OFFCURVE",
"611 260 CURVE SMOOTH",
"611 422 LINE SMOOTH",
"611 572 OFFCURVE",
"615 598 OFFCURVE",
"619 605 CURVE",
"626 609 OFFCURVE",
"674 619 OFFCURVE",
"687 619 CURVE",
"685 661 LINE",
"650 659 OFFCURVE",
"608 658 OFFCURVE",
"575 658 CURVE SMOOTH",
"539 658 OFFCURVE",
"508 659 OFFCURVE",
"473 661 CURVE",
"471 619 LINE",
"497 619 OFFCURVE",
"532 609 OFFCURVE",
"539 605 CURVE",
"543 598 OFFCURVE",
"547 572 OFFCURVE",
"547 422 CURVE SMOOTH",
"547 261 LINE SMOOTH",
"547 113 OFFCURVE",
"481 57 OFFCURVE",
"385 57 CURVE SMOOTH",
"269 57 OFFCURVE",
"208 118 OFFCURVE",
"207 252 CURVE SMOOTH",
"206 442 LINE SMOOTH",
"205 572 OFFCURVE",
"210 598 OFFCURVE",
"214 605 CURVE",
"221 609 OFFCURVE",
"256 619 OFFCURVE",
"282 619 CURVE",
"280 661 LINE",
"245 659 OFFCURVE",
"196 658 OFFCURVE",
"162 658 CURVE SMOOTH",
"129 658 OFFCURVE",
"80 659 OFFCURVE",
"45 661 CURVE"
);
}
);
width = 728;
},
{
background = {
paths = (
{
closed = 1;
nodes = (
"27 606 LINE",
"55 606 OFFCURVE",
"87 599 OFFCURVE",
"98 591 CURVE",
"102 583 OFFCURVE",
"106 527 OFFCURVE",
"106 421 CURVE SMOOTH",
"106 266 LINE SMOOTH",
"106 88 OFFCURVE",
"221 -10 OFFCURVE",
"390 -10 CURVE SMOOTH",
"538 -10 OFFCURVE",
"651 80 OFFCURVE",
"651 273 CURVE SMOOTH",
"651 401 LINE SMOOTH",
"651 507 OFFCURVE",
"655 583 OFFCURVE",
"659 591 CURVE",
"670 599 OFFCURVE",
"702 606 OFFCURVE",
"733 606 CURVE",
"730 662 LINE",
"693 661 OFFCURVE",
"639 660 OFFCURVE",
"608 660 CURVE SMOOTH",
"577 660 OFFCURVE",
"523 661 OFFCURVE",
"486 662 CURVE",
"483 606 LINE",
"514 606 OFFCURVE",
"546 599 OFFCURVE",
"557 591 CURVE",
"561 583 OFFCURVE",
"565 507 OFFCURVE",
"565 401 CURVE SMOOTH",
"565 286 LINE SMOOTH",
"565 139 OFFCURVE",
"504 84 OFFCURVE",
"414 84 CURVE SMOOTH",
"305 84 OFFCURVE",
"244 149 OFFCURVE",
"245 283 CURVE SMOOTH",
"246 421 LINE SMOOTH",
"247 527 OFFCURVE",
"249 573 OFFCURVE",
"254 591 CURVE",
"265 599 OFFCURVE",
"297 606 OFFCURVE",
"328 606 CURVE",
"325 662 LINE",
"288 661 OFFCURVE",
"231 659 OFFCURVE",
"176 659 CURVE SMOOTH",
"121 659 OFFCURVE",
"64 661 OFFCURVE",
"30 662 CURVE"
);
}
);
};
color = -1;
layerId = "6D340022-02C4-426D-A0D8-A7BFACBEB22E";
paths = (
{
closed = 1;
nodes = (
"27 606 LINE",
"55 606 OFFCURVE",
"87 599 OFFCURVE",
"98 591 CURVE",
"102 583 OFFCURVE",
"106 527 OFFCURVE",
"106 421 CURVE SMOOTH",
"106 266 LINE SMOOTH",
"106 88 OFFCURVE",
"211 -10 OFFCURVE",
"390 -10 CURVE SMOOTH",
"538 -10 OFFCURVE",
"651 80 OFFCURVE",
"651 273 CURVE SMOOTH",
"651 401 LINE SMOOTH",
"651 507 OFFCURVE",
"655 583 OFFCURVE",
"659 591 CURVE",
"670 599 OFFCURVE",
"702 606 OFFCURVE",
"733 606 CURVE",
"730 662 LINE",
"693 661 OFFCURVE",
"639 660 OFFCURVE",
"608 660 CURVE SMOOTH",
"577 660 OFFCURVE",
"523 661 OFFCURVE",
"486 662 CURVE",
"483 606 LINE",
"514 606 OFFCURVE",
"546 599 OFFCURVE",
"557 591 CURVE",
"561 583 OFFCURVE",
"565 507 OFFCURVE",
"565 401 CURVE SMOOTH",
"565 286 LINE SMOOTH",
"565 139 OFFCURVE",
"504 84 OFFCURVE",
"414 84 CURVE SMOOTH",
"305 84 OFFCURVE",
"244 144 OFFCURVE",
"245 283 CURVE SMOOTH",
"246 421 LINE SMOOTH",
"247 527 OFFCURVE",
"249 573 OFFCURVE",
"254 591 CURVE",
"265 599 OFFCURVE",
"297 606 OFFCURVE",
"328 606 CURVE",
"325 662 LINE",
"288 661 OFFCURVE",
"231 659 OFFCURVE",
"176 659 CURVE SMOOTH",
"121 659 OFFCURVE",
"64 661 OFFCURVE",
"30 662 CURVE"
);
}
);
width = 756;
}
);
leftKerningGroup = U;
note = U;
rightKerningGroup = U;
unicode = 0055;
},
{
glyphname = Uhorn;
lastChange = "2018-04-26 09:21:48 +0000";
layers = (
{
color = -1;
layerId = "D75C065C-4EF6-4055-9CF2-70010DBCD897";
paths = (
{
closed = 1;
nodes = (
"511 0 OFFCURVE",
"601 69.333 OFFCURVE",
"601 276 CURVE SMOOTH",
"601 519 LINE SMOOTH",
"601 553.667 OFFCURVE",
"603.667 581 OFFCURVE",
"609 601 CURVE SMOOTH",
"611.667 611 OFFCURVE",
"618 617.333 OFFCURVE",
"628 620 CURVE SMOOTH",
"706.667 638.667 OFFCURVE",
"746 667 OFFCURVE",
"746 705 CURVE SMOOTH",
"746 723 OFFCURVE",
"742 737.667 OFFCURVE",
"734 749 CURVE",
"699.333 749 OFFCURVE",
"657 740 OFFCURVE",
"657 716 CURVE SMOOTH",
"657 708 OFFCURVE",
"659.667 701 OFFCURVE",
"665 695 CURVE SMOOTH",
"670.333 689 OFFCURVE",
"673 683.667 OFFCURVE",
"673 679 CURVE SMOOTH",
"673 663.667 OFFCURVE",
"641.333 656 OFFCURVE",
"578 656 CURVE SMOOTH",
"548.667 656 OFFCURVE",
"480 660.667 OFFCURVE",
"460 662 CURVE",
"457.333 659.333 OFFCURVE",
"456 654.167 OFFCURVE",
"456 646.5 CURVE SMOOTH",
"456 638.833 OFFCURVE",
"457.333 635 OFFCURVE",
"460 635 CURVE SMOOTH",
"477.333 635 OFFCURVE",
"535 622.667 OFFCURVE",
"539 612 CURVE",
"543.667 597.333 OFFCURVE",
"546 568 OFFCURVE",
"546 524 CURVE SMOOTH",
"546 274 LINE SMOOTH",
"546 124 OFFCURVE",
"489 49 OFFCURVE",
"375 49 CURVE SMOOTH",
"257.667 49 OFFCURVE",
"191 145.333 OFFCURVE",
"191 296 CURVE SMOOTH",
"191 519 LINE SMOOTH",
"191 557.667 OFFCURVE",
"194 588.667 OFFCURVE",
"200 612 CURVE SMOOTH",
"202.667 621.333 OFFCURVE",
"250.667 633 OFFCURVE",
"264 633 CURVE SMOOTH",
"266.667 633 OFFCURVE",
"268 638 OFFCURVE",
"268 648 CURVE SMOOTH",
"268 653.333 OFFCURVE",
"267.333 658 OFFCURVE",
"266 662 CURVE",
"199.333 658.667 OFFCURVE",
"160.667 657 OFFCURVE",
"150 657 CURVE SMOOTH",
"146.667 657 OFFCURVE",
"106.667 658.667 OFFCURVE",
"30 662 CURVE",
"27.333 659.333 OFFCURVE",
"26 654 OFFCURVE",
"26 646 CURVE SMOOTH",
"26 637.333 OFFCURVE",
"27.333 633 OFFCURVE",
"30 633 CURVE SMOOTH",
"47.333 633 OFFCURVE",
"93 622.667 OFFCURVE",
"97 612 CURVE",
"101.667 594 OFFCURVE",
"104 564.333 OFFCURVE",
"104 523 CURVE SMOOTH",
"104 296 LINE SMOOTH",
"104 88 OFFCURVE",
"192.333 0 OFFCURVE",
"351 0 CURVE SMOOTH"
);
}
);
width = 751;
},
{
background = {
paths = (
{
closed = 1;
nodes = (
"559 654 OFFCURVE",
"467 662 QCURVE",
"464 658 OFFCURVE",
"466 625 OFFCURVE",
"470 625 QCURVE SMOOTH",
"482 625 OFFCURVE",
"539 607 OFFCURVE",
"548 596 QCURVE SMOOTH",
"561 581 OFFCURVE",
"561 524 QCURVE SMOOTH",
"561 286 LINE SMOOTH",
"561 172 OFFCURVE",
"466 75 OFFCURVE",
"392 75 QCURVE SMOOTH",
"321 75 OFFCURVE",
"238 187 OFFCURVE",
"238 279 QCURVE SMOOTH",
"238 516 LINE SMOOTH",
"238 574 OFFCURVE",
"245 601 QCURVE SMOOTH",
"247 608 OFFCURVE",
"301 625 OFFCURVE",
"310 625 QCURVE SMOOTH",
"314 625 OFFCURVE",
"314 644 QCURVE SMOOTH",
"314 653 OFFCURVE",
"311 662 QCURVE",
"191 656 OFFCURVE",
"171 656 QCURVE SMOOTH",
"164 656 OFFCURVE",
"26 662 QCURVE",
"24 660 OFFCURVE",
"24 642 QCURVE SMOOTH",
"24 625 OFFCURVE",
"28 625 QCURVE SMOOTH",
"39 625 OFFCURVE",
"85 608 OFFCURVE",
"90 600 QCURVE",
"98 586 OFFCURVE",
"98 522 QCURVE SMOOTH",
"98 311 LINE SMOOTH",
"98 147 OFFCURVE",
"246 -5 OFFCURVE",
"368 -5 QCURVE SMOOTH",
"482 -5 OFFCURVE",
"625 145 OFFCURVE",
"625 291 QCURVE SMOOTH",
"625 519 LINE SMOOTH",
"625 575 OFFCURVE",
"639 592 QCURVE SMOOTH",
"655 612 OFFCURVE",
"692 621 QCURVE SMOOTH",
"721 628 OFFCURVE",
"776 651 OFFCURVE",
"827 696 OFFCURVE",
"827 722 QCURVE SMOOTH",
"827 742 OFFCURVE",
"815 783 OFFCURVE",
"808 790 QCURVE",
"714 790 OFFCURVE",
"714 744 QCURVE SMOOTH",
"714 731 OFFCURVE",
"736 698 OFFCURVE",
"736 692 QCURVE SMOOTH",
"736 684 OFFCURVE",
"716 669 OFFCURVE",
"650 654 OFFCURVE",
"599 654 QCURVE SMOOTH"
);
}
);
};
color = -1;
layerId = "6D340022-02C4-426D-A0D8-A7BFACBEB22E";
paths = (
{
closed = 1;
nodes = (
"520 -5 OFFCURVE",
"625 96.333 OFFCURVE",
"625 291 CURVE SMOOTH",
"625 519 LINE SMOOTH",
"625 556.333 OFFCURVE",
"629.667 580.667 OFFCURVE",
"639 592 CURVE SMOOTH",
"649.667 605.333 OFFCURVE",
"667.333 615 OFFCURVE",
"692 621 CURVE SMOOTH",
"740.624 632.737 OFFCURVE",
"827 667.275 OFFCURVE",
"827 722 CURVE SMOOTH",
"827 748.667 OFFCURVE",
"817.333 780.667 OFFCURVE",
"808 790 CURVE",
"745.333 790 OFFCURVE",
"714 774.667 OFFCURVE",
"714 744 CURVE SMOOTH",
"714 735.333 OFFCURVE",
"717.667 725.5 OFFCURVE",
"725 714.5 CURVE SMOOTH",
"732.333 703.5 OFFCURVE",
"736 696 OFFCURVE",
"736 692 CURVE SMOOTH",
"736 667.963 OFFCURVE",
"660.99 654 OFFCURVE",
"599 654 CURVE SMOOTH",
"572.333 654 OFFCURVE",
"528.333 656.667 OFFCURVE",
"467 662 CURVE",
"463 656.667 OFFCURVE",
"464.667 625 OFFCURVE",
"470 625 CURVE SMOOTH",
"486 625 OFFCURVE",
"536 610.667 OFFCURVE",
"548 596 CURVE SMOOTH",
"556.667 586 OFFCURVE",
"561 562 OFFCURVE",
"561 524 CURVE SMOOTH",
"561 286 LINE SMOOTH",
"561 134 OFFCURVE",
"490.667 75 OFFCURVE",
"392 75 CURVE SMOOTH",
"297.333 75 OFFCURVE",
"238 156.333 OFFCURVE",
"238 279 CURVE SMOOTH",
"238 516 LINE SMOOTH",
"238 554.667 OFFCURVE",
"240.333 583 OFFCURVE",
"245 601 CURVE SMOOTH",
"247.667 610.333 OFFCURVE",
"298 625 OFFCURVE",
"310 625 CURVE SMOOTH",
"312.667 625 OFFCURVE",
"314 631.333 OFFCURVE",
"314 644 CURVE SMOOTH",
"314 650 OFFCURVE",
"313 656 OFFCURVE",
"311 662 CURVE",
"231 658 OFFCURVE",
"184.333 656 OFFCURVE",
"171 656 CURVE SMOOTH",
"166.333 656 OFFCURVE",
"118 658 OFFCURVE",
"26 662 CURVE",
"24.667 660.667 OFFCURVE",
"24 654 OFFCURVE",
"24 642 CURVE SMOOTH",
"24 630.667 OFFCURVE",
"25.333 625 OFFCURVE",
"28 625 CURVE SMOOTH",
"42.667 625 OFFCURVE",
"83.333 610.667 OFFCURVE",
"90 600 CURVE",
"95.333 590.667 OFFCURVE",
"98 564.667 OFFCURVE",
"98 522 CURVE SMOOTH",
"98 311 LINE SMOOTH",
"98 92.333 OFFCURVE",
"205.333 -5 OFFCURVE",
"368 -5 CURVE SMOOTH"
);
}
);
width = 710;
}
);
note = Uhorn;
unicode = 01AF;
},
{
color = 4;
glyphname = V;
lastChange = "2018-05-01 14:46:29 +0000";
layers = (
{
background = {
paths = (
{
closed = 1;
nodes = (
"353 -4 LINE",
"594 607 LINE",
"600 609 OFFCURVE",
"628 617 OFFCURVE",
"649 619 CURVE",
"647 661 LINE",
"624 660 OFFCURVE",
"599 659 OFFCURVE",
"569 659 CURVE SMOOTH",
"539 659 OFFCURVE",
"489 660 OFFCURVE",
"459 661 CURVE",
"457 619 LINE",
"483 619 OFFCURVE",
"518 609 OFFCURVE",
"526 607 CURVE",
"335 100 LINE",
"366 100 LINE",
"171 607 LINE",
"178 609 OFFCURVE",
"213 619 OFFCURVE",
"239 619 CURVE",
"237 661 LINE",
"202 659 OFFCURVE",
"158 658 OFFCURVE",
"124 658 CURVE SMOOTH",
"88 658 OFFCURVE",
"42 659 OFFCURVE",
"14 661 CURVE",
"12 619 LINE",
"33 617 OFFCURVE",
"61 609 OFFCURVE",
"67 607 CURVE",
"309 -4 LINE"
);
}
);
};
color = -1;
layerId = "D75C065C-4EF6-4055-9CF2-70010DBCD897";
paths = (
{
closed = 1;
nodes = (
"353 -4 LINE",
"600 607 LINE",
"606 609 OFFCURVE",
"634 617 OFFCURVE",
"655 619 CURVE",
"653 661 LINE",
"630 660 OFFCURVE",
"605 659 OFFCURVE",
"570 659 CURVE SMOOTH",
"540 659 OFFCURVE",
"490 660 OFFCURVE",
"460 661 CURVE",
"458 619 LINE",
"484 619 OFFCURVE",
"519 609 OFFCURVE",
"527 607 CURVE",
"341 100 LINE",
"364 100 LINE",
"168 607 LINE",
"175 609 OFFCURVE",
"210 619 OFFCURVE",
"236 619 CURVE",
"234 661 LINE",
"199 659 OFFCURVE",
"158 658 OFFCURVE",
"123 658 CURVE SMOOTH",
"87 658 OFFCURVE",
"40 659 OFFCURVE",
"12 661 CURVE",
"10 619 LINE",
"31 617 OFFCURVE",
"59 609 OFFCURVE",
"65 607 CURVE",
"307 -4 LINE"
);
}
);
width = 653;
},
{
background = {
paths = (
{
closed = 1;
nodes = (
"367 -4 LINE",
"626 593 LINE",
"638 599 OFFCURVE",
"661 605 OFFCURVE",
"681 606 CURVE",
"678 662 LINE",
"642 661 OFFCURVE",
"613 660 OFFCURVE",
"582 660 CURVE SMOOTH",
"551 660 OFFCURVE",
"501 661 OFFCURVE",
"458 662 CURVE",
"455 605 LINE",
"489 603 OFFCURVE",
"520 599 OFFCURVE",
"537 595 CURVE",
"351 135 LINE",
"401 135 LINE",
"211 595 LINE",
"227 599 OFFCURVE",
"259 603 OFFCURVE",
"293 605 CURVE",
"290 662 LINE",
"247 661 OFFCURVE",
"172 659 OFFCURVE",
"132 659 CURVE SMOOTH",
"92 659 OFFCURVE",
"36 661 OFFCURVE",
"0 662 CURVE",
"-3 606 LINE",
"17 605 OFFCURVE",
"40 599 OFFCURVE",
"52 593 CURVE",
"310 -4 LINE"
);
}
);
};
color = -1;
layerId = "6D340022-02C4-426D-A0D8-A7BFACBEB22E";
paths = (
{
closed = 1;
nodes = (
"367 -4 LINE",
"631 593 LINE",
"643 599 OFFCURVE",
"666 605 OFFCURVE",
"686 606 CURVE",
"683 662 LINE",
"647 661 OFFCURVE",
"613 660 OFFCURVE",
"582 660 CURVE SMOOTH",
"551 660 OFFCURVE",
"500 661 OFFCURVE",
"457 662 CURVE",
"454 605 LINE",
"488 603 OFFCURVE",
"519 599 OFFCURVE",
"536 595 CURVE",
"358 135 LINE",
"401 135 LINE",
"211 595 LINE",
"227 599 OFFCURVE",
"259 603 OFFCURVE",
"293 605 CURVE",
"290 662 LINE",
"247 661 OFFCURVE",
"172 659 OFFCURVE",
"132 659 CURVE SMOOTH",
"92 659 OFFCURVE",
"36 661 OFFCURVE",
"0 662 CURVE",
"-3 606 LINE",
"17 605 OFFCURVE",
"40 599 OFFCURVE",
"52 593 CURVE",
"310 -4 LINE"
);
}
);
width = 671;
}
);
leftKerningGroup = V;
note = V;
rightKerningGroup = V;
unicode = 0056;
},
{
color = 4;
glyphname = W;
lastChange = "2018-05-01 14:46:29 +0000";
layers = (
{
background = {
paths = (
{
closed = 1;
nodes = (
"516 577 LINE",
"330 100 LINE",
"362 100 LINE",
"177 607 LINE",
"183 609 OFFCURVE",
"210 619 OFFCURVE",
"231 619 CURVE",
"229 661 LINE",
"201 659 OFFCURVE",
"164 658 OFFCURVE",
"130 658 CURVE SMOOTH",
"94 658 OFFCURVE",
"48 659 OFFCURVE",
"20 661 CURVE",
"18 619 LINE",
"39 617 OFFCURVE",
"67 609 OFFCURVE",
"73 607 CURVE",
"305 -4 LINE",
"349 -4 LINE",
"541 486 LINE"
);
},
{
closed = 1;
nodes = (
"753 -4 LINE",
"984 607 LINE",
"990 609 OFFCURVE",
"1018 617 OFFCURVE",
"1039 619 CURVE",
"1037 661 LINE",
"1014 660 OFFCURVE",
"989 659 OFFCURVE",
"959 659 CURVE SMOOTH",
"929 659 OFFCURVE",
"877 660 OFFCURVE",
"845 661 CURVE",
"843 619 LINE",
"871 619 OFFCURVE",
"908 609 OFFCURVE",
"916 607 CURVE",
"735 100 LINE",
"766 100 LINE",
"579 607 LINE",
"587 609 OFFCURVE",
"624 619 OFFCURVE",
"652 619 CURVE",
"650 661 LINE",
"612 659 OFFCURVE",
"566 658 OFFCURVE",
"532 658 CURVE SMOOTH",
"496 658 OFFCURVE",
"451 659 OFFCURVE",
"423 661 CURVE",
"421 619 LINE",
"442 617 OFFCURVE",
"469 609 OFFCURVE",
"475 607 CURVE",
"709 -4 LINE"
);
}
);
};
color = -1;
layerId = "D75C065C-4EF6-4055-9CF2-70010DBCD897";
paths = (
{
closed = 1;
nodes = (
"520 579 LINE",
"335 100 LINE",
"358 100 LINE",
"174 607 LINE",
"180 609 OFFCURVE",
"207 619 OFFCURVE",
"228 619 CURVE",
"226 661 LINE",
"198 659 OFFCURVE",
"162 658 OFFCURVE",
"128 658 CURVE SMOOTH",
"92 658 OFFCURVE",
"46 659 OFFCURVE",
"18 661 CURVE",
"16 619 LINE",
"37 617 OFFCURVE",
"65 609 OFFCURVE",
"71 607 CURVE",
"302 -4 LINE",
"348 -4 LINE",
"550 490 LINE"
);
},
{
closed = 1;
nodes = (
"752 -4 LINE",
"992 607 LINE",
"998 609 OFFCURVE",
"1026 617 OFFCURVE",
"1047 619 CURVE",
"1045 661 LINE",
"1022 660 OFFCURVE",
"997 659 OFFCURVE",
"963 659 CURVE SMOOTH",
"932 659 OFFCURVE",
"880 660 OFFCURVE",
"848 661 CURVE",
"846 619 LINE",
"874 619 OFFCURVE",
"911 609 OFFCURVE",
"919 607 CURVE",
"738 100 LINE",
"761 100 LINE",
"580 607 LINE",
"588 609 OFFCURVE",
"625 619 OFFCURVE",
"653 619 CURVE",
"651 661 LINE",
"613 659 OFFCURVE",
"570 658 OFFCURVE",
"536 658 CURVE SMOOTH",
"500 658 OFFCURVE",
"455 659 OFFCURVE",
"427 661 CURVE",
"425 619 LINE",
"446 617 OFFCURVE",
"473 609 OFFCURVE",
"479 607 CURVE",
"706 -4 LINE"
);
}
);
width = 1049;
},
{
background = {
paths = (
{
closed = 1;
nodes = (
"364 -4 LINE",
"623 593 LINE",
"635 599 OFFCURVE",
"658 605 OFFCURVE",
"678 606 CURVE",
"675 662 LINE",
"639 661 OFFCURVE",
"610 660 OFFCURVE",
"579 660 CURVE SMOOTH",
"548 660 OFFCURVE",
"498 661 OFFCURVE",
"455 662 CURVE",
"452 605 LINE",
"486 603 OFFCURVE",
"517 599 OFFCURVE",
"534 595 CURVE",
"348 135 LINE",
"398 135 LINE",
"218 595 LINE",
"234 599 OFFCURVE",
"266 603 OFFCURVE",
"300 605 CURVE",
"297 662 LINE",
"254 661 OFFCURVE",
"179 659 OFFCURVE",
"139 659 CURVE SMOOTH",
"99 659 OFFCURVE",
"43 661 OFFCURVE",
"7 662 CURVE",
"4 606 LINE",
"24 605 OFFCURVE",
"47 599 OFFCURVE",
"59 593 CURVE",
"307 -4 LINE"
);
},
{
closed = 1;
nodes = (
"776 -4 LINE",
"1025 593 LINE",
"1037 599 OFFCURVE",
"1060 605 OFFCURVE",
"1080 606 CURVE",
"1077 662 LINE",
"1041 661 OFFCURVE",
"1012 660 OFFCURVE",
"981 660 CURVE SMOOTH",
"950 660 OFFCURVE",
"900 661 OFFCURVE",
"857 662 CURVE",
"854 605 LINE",
"888 603 OFFCURVE",
"919 599 OFFCURVE",
"936 595 CURVE",
"760 135 LINE",
"810 135 LINE",
"620 595 LINE",
"636 599 OFFCURVE",
"668 603 OFFCURVE",
"702 605 CURVE",
"699 662 LINE",
"656 661 OFFCURVE",
"581 659 OFFCURVE",
"541 659 CURVE SMOOTH",
"501 659 OFFCURVE",
"445 661 OFFCURVE",
"409 662 CURVE",
"406 606 LINE",
"426 605 OFFCURVE",
"449 599 OFFCURVE",
"461 593 CURVE",
"719 -4 LINE"
);
}
);
};
color = -1;
layerId = "6D340022-02C4-426D-A0D8-A7BFACBEB22E";
paths = (
{
closed = 1;
nodes = (
"508 551 LINE",
"348 135 LINE",
"397 135 LINE",
"216 595 LINE",
"226 599 OFFCURVE",
"247 603 OFFCURVE",
"268 605 CURVE",
"266 662 LINE",
"240 661 OFFCURVE",
"177 659 OFFCURVE",
"137 659 CURVE SMOOTH",
"97 659 OFFCURVE",
"41 661 OFFCURVE",
"5 662 CURVE",
"2 606 LINE",
"22 605 OFFCURVE",
"45 599 OFFCURVE",
"57 593 CURVE",
"306 -4 LINE",
"363 -4 LINE",
"554 454 LINE"
);
},
{
closed = 1;
nodes = (
"777 -4 LINE",
"1029 593 LINE",
"1041 599 OFFCURVE",
"1064 605 OFFCURVE",
"1084 606 CURVE",
"1081 662 LINE",
"1045 661 OFFCURVE",
"1015 660 OFFCURVE",
"984 660 CURVE SMOOTH",
"953 660 OFFCURVE",
"898 661 OFFCURVE",
"855 662 CURVE",
"852 605 LINE",
"886 603 OFFCURVE",
"917 599 OFFCURVE",
"934 595 CURVE",
"765 135 LINE",
"808 135 LINE",
"626 595 LINE",
"642 599 OFFCURVE",
"674 603 OFFCURVE",
"708 605 CURVE",
"705 662 LINE",
"662 661 OFFCURVE",
"587 659 OFFCURVE",
"547 659 CURVE SMOOTH",
"507 659 OFFCURVE",
"453 661 OFFCURVE",
"421 662 CURVE",
"418 606 LINE",
"436 605 OFFCURVE",
"459 599 OFFCURVE",
"470 593 CURVE",
"720 -4 LINE"
);
}
);
width = 1076;
}
);
leftKerningGroup = W;
note = W;
rightKerningGroup = W;
unicode = 0057;
},
{
color = 4;
glyphname = X;
lastChange = "2018-05-01 14:46:29 +0000";
layers = (
{
background = {
paths = (
{
closed = 1;
nodes = (
"647 39 LINE",
"626 42 OFFCURVE",
"598 50 OFFCURVE",
"592 54 CURVE",
"199 605 LINE",
"206 609 OFFCURVE",
"241 618 OFFCURVE",
"267 619 CURVE",
"265 661 LINE",
"230 659 OFFCURVE",
"181 658 OFFCURVE",
"140 658 CURVE SMOOTH",
"98 658 OFFCURVE",
"60 659 OFFCURVE",
"32 661 CURVE",
"30 619 LINE",
"51 617 OFFCURVE",
"79 609 OFFCURVE",
"85 605 CURVE",
"476 54 LINE",
"469 50 OFFCURVE",
"434 40 OFFCURVE",
"408 39 CURVE",
"410 -3 LINE",
"445 0 OFFCURVE",
"507 2 OFFCURVE",
"537 2 CURVE SMOOTH",
"567 2 OFFCURVE",
"617 0 OFFCURVE",
"645 -3 CURVE"
);
},
{
closed = 1;
nodes = (
"76 54 LINE",
"70 50 OFFCURVE",
"42 42 OFFCURVE",
"21 39 CURVE",
"23 -3 LINE",
"51 0 OFFCURVE",
"94 2 OFFCURVE",
"114 2 CURVE SMOOTH",
"134 2 OFFCURVE",
"178 0 OFFCURVE",
"213 -3 CURVE",
"215 39 LINE",
"189 40 OFFCURVE",
"154 50 OFFCURVE",
"147 54 CURVE",
"548 605 LINE",
"554 609 OFFCURVE",
"582 617 OFFCURVE",
"603 619 CURVE",
"601 661 LINE",
"573 659 OFFCURVE",
"541 659 OFFCURVE",
"521 659 CURVE SMOOTH",
"492 659 OFFCURVE",
"435 660 OFFCURVE",
"415 661 CURVE",
"413 619 LINE",
"439 619 OFFCURVE",
"474 609 OFFCURVE",
"477 605 CURVE"
);
},
{
closed = 1;
nodes = (
"1447 39 LINE",
"1426 42 OFFCURVE",
"1398 50 OFFCURVE",
"1392 54 CURVE",
"1173 361 LINE",
"1139 405 LINE",
"999 605 LINE",
"1006 609 OFFCURVE",
"1041 618 OFFCURVE",
"1067 619 CURVE",
"1065 661 LINE",
"1030 659 OFFCURVE",
"981 658 OFFCURVE",
"940 658 CURVE SMOOTH",
"898 658 OFFCURVE",
"860 659 OFFCURVE",
"832 661 CURVE",
"830 619 LINE",
"851 617 OFFCURVE",
"879 609 OFFCURVE",
"885 605 CURVE",
"1076 337 LINE",
"1110 292 LINE",
"1276 54 LINE",
"1269 50 OFFCURVE",
"1234 40 OFFCURVE",
"1208 39 CURVE",
"1210 -3 LINE",
"1245 0 OFFCURVE",
"1307 2 OFFCURVE",
"1337 2 CURVE SMOOTH",
"1367 2 OFFCURVE",
"1417 0 OFFCURVE",
"1445 -3 CURVE"
);
},
{
closed = 1;
nodes = (
"1139 405 LINE",
"1076 337 LINE",
"876 54 LINE",
"870 50 OFFCURVE",
"842 42 OFFCURVE",
"821 39 CURVE",
"823 -3 LINE",
"851 0 OFFCURVE",
"894 2 OFFCURVE",
"914 2 CURVE SMOOTH",
"934 2 OFFCURVE",
"978 0 OFFCURVE",
"1013 -3 CURVE",
"1015 39 LINE",
"989 40 OFFCURVE",
"954 50 OFFCURVE",
"947 54 CURVE",
"1110 292 LINE",
"1173 361 LINE",
"1348 605 LINE",
"1354 609 OFFCURVE",
"1382 617 OFFCURVE",
"1403 619 CURVE",
"1401 661 LINE",
"1373 659 OFFCURVE",
"1341 659 OFFCURVE",
"1321 659 CURVE SMOOTH",
"1292 659 OFFCURVE",
"1235 660 OFFCURVE",
"1215 661 CURVE",
"1213 619 LINE",
"1239 619 OFFCURVE",
"1274 609 OFFCURVE",
"1277 605 CURVE"
);
}
);
};
color = -1;
layerId = "D75C065C-4EF6-4055-9CF2-70010DBCD897";
paths = (
{
closed = 1;
nodes = (
"646 39 LINE",
"625 42 OFFCURVE",
"597 50 OFFCURVE",
"591 54 CURVE",
"371 363 LINE",
"341 404 LINE",
"200 605 LINE",
"207 609 OFFCURVE",
"242 618 OFFCURVE",
"268 619 CURVE",
"266 661 LINE",
"231 659 OFFCURVE",
"182 658 OFFCURVE",
"141 658 CURVE SMOOTH",
"99 658 OFFCURVE",
"61 659 OFFCURVE",
"33 661 CURVE",
"31 619 LINE",
"52 617 OFFCURVE",
"80 609 OFFCURVE",
"86 605 CURVE",
"279 332 LINE",
"312 291 LINE",
"475 54 LINE",
"468 50 OFFCURVE",
"433 40 OFFCURVE",
"407 39 CURVE",
"409 -3 LINE",
"444 0 OFFCURVE",
"506 2 OFFCURVE",
"536 2 CURVE SMOOTH",
"566 2 OFFCURVE",
"616 0 OFFCURVE",
"644 -3 CURVE"
);
},
{
closed = 1;
nodes = (
"341 404 LINE",
"279 332 LINE",
"77 54 LINE",
"71 50 OFFCURVE",
"43 42 OFFCURVE",
"22 39 CURVE",
"24 -3 LINE",
"52 0 OFFCURVE",
"95 2 OFFCURVE",
"115 2 CURVE SMOOTH",
"135 2 OFFCURVE",
"181 0 OFFCURVE",
"216 -3 CURVE",
"218 39 LINE",
"192 40 OFFCURVE",
"157 50 OFFCURVE",
"150 54 CURVE",
"312 291 LINE",
"371 363 LINE",
"548 605 LINE",
"554 609 OFFCURVE",
"582 617 OFFCURVE",
"603 619 CURVE",
"601 661 LINE",
"573 659 OFFCURVE",
"539 659 OFFCURVE",
"519 659 CURVE SMOOTH",
"490 659 OFFCURVE",
"434 660 OFFCURVE",
"414 661 CURVE",
"412 619 LINE",
"438 619 OFFCURVE",
"473 609 OFFCURVE",
"476 605 CURVE"
);
}
);
width = 645;
},
{
background = {
paths = (
{
closed = 1;
nodes = (
"672 51 LINE",
"650 54 OFFCURVE",
"626 61 OFFCURVE",
"617 68 CURVE",
"247 593 LINE",
"257 599 OFFCURVE",
"281 606 OFFCURVE",
"303 606 CURVE",
"301 662 LINE",
"274 661 OFFCURVE",
"207 659 OFFCURVE",
"157 659 CURVE SMOOTH",
"107 659 OFFCURVE",
"56 661 OFFCURVE",
"30 662 CURVE",
"28 606 LINE",
"49 606 OFFCURVE",
"73 599 OFFCURVE",
"82 592 CURVE",
"448 69 LINE",
"437 61 OFFCURVE",
"405 54 OFFCURVE",
"377 51 CURVE",
"380 -5 LINE",
"414 -1 OFFCURVE",
"492 2 OFFCURVE",
"542 2 CURVE SMOOTH",
"602 2 OFFCURVE",
"643 -1 OFFCURVE",
"670 -5 CURVE"
);
},
{
closed = 1;
nodes = (
"76 69 LINE",
"67 61 OFFCURVE",
"43 54 OFFCURVE",
"21 51 CURVE",
"23 -3 LINE",
"53 -1 OFFCURVE",
"93 2 OFFCURVE",
"123 2 CURVE SMOOTH",
"153 2 OFFCURVE",
"210 -1 OFFCURVE",
"240 -3 CURVE",
"243 51 LINE",
"217 52 OFFCURVE",
"179 65 OFFCURVE",
"172 69 CURVE",
"571 593 LINE",
"580 599 OFFCURVE",
"603 606 OFFCURVE",
"625 606 CURVE",
"623 662 LINE",
"596 661 OFFCURVE",
"573 659 OFFCURVE",
"533 659 CURVE SMOOTH",
"493 659 OFFCURVE",
"447 661 OFFCURVE",
"420 662 CURVE",
"418 606 LINE",
"440 606 OFFCURVE",
"464 599 OFFCURVE",
"474 593 CURVE"
);
}
);
};
color = -1;
layerId = "6D340022-02C4-426D-A0D8-A7BFACBEB22E";
paths = (
{
closed = 1;
nodes = (
"672 51 LINE",
"650 54 OFFCURVE",
"626 61 OFFCURVE",
"617 68 CURVE",
"401 374 LINE",
"361 430 LINE",
"248 593 LINE",
"258 599 OFFCURVE",
"282 606 OFFCURVE",
"304 606 CURVE",
"302 662 LINE",
"275 661 OFFCURVE",
"207 659 OFFCURVE",
"157 659 CURVE SMOOTH",
"106 659 OFFCURVE",
"55 661 OFFCURVE",
"29 662 CURVE",
"27 606 LINE",
"48 606 OFFCURVE",
"72 599 OFFCURVE",
"81 592 CURVE",
"268 324 LINE",
"312 268 LINE",
"448 69 LINE",
"437 61 OFFCURVE",
"405 54 OFFCURVE",
"377 51 CURVE",
"380 -5 LINE",
"414 -1 OFFCURVE",
"492 2 OFFCURVE",
"542 2 CURVE SMOOTH",
"602 2 OFFCURVE",
"643 -1 OFFCURVE",
"670 -5 CURVE"
);
},
{
closed = 1;
nodes = (
"361 430 LINE",
"268 324 LINE",
"76 69 LINE",
"67 61 OFFCURVE",
"43 54 OFFCURVE",
"21 51 CURVE",
"23 -3 LINE",
"53 -1 OFFCURVE",
"94 2 OFFCURVE",
"124 2 CURVE SMOOTH",
"154 2 OFFCURVE",
"213 -1 OFFCURVE",
"243 -3 CURVE",
"246 51 LINE",
"220 52 OFFCURVE",
"182 65 OFFCURVE",
"175 69 CURVE",
"312 268 LINE",
"401 374 LINE",
"571 593 LINE",
"580 599 OFFCURVE",
"603 606 OFFCURVE",
"625 606 CURVE",
"623 662 LINE",
"596 661 OFFCURVE",
"573 659 OFFCURVE",
"533 659 CURVE SMOOTH",
"491 659 OFFCURVE",
"445 661 OFFCURVE",
"418 662 CURVE",
"416 606 LINE",
"438 606 OFFCURVE",
"462 599 OFFCURVE",
"472 593 CURVE"
);
}
);
width = 662;
}
);
leftKerningGroup = X;
note = X;
rightKerningGroup = X;
unicode = 0058;
},
{
color = 4;
glyphname = Y;
lastChange = "2018-05-01 14:46:29 +0000";
layers = (
{
background = {
paths = (
{
closed = 1;
nodes = (
"554 612 OFFCURVE",
"582 618 OFFCURVE",
"595 619 CURVE",
"593 661 LINE",
"570 660 OFFCURVE",
"545 659 OFFCURVE",
"515 659 CURVE SMOOTH",
"487 659 OFFCURVE",
"437 660 OFFCURVE",
"405 661 CURVE",
"403 619 LINE",
"421 618 OFFCURVE",
"457 611 OFFCURVE",
"474 607 CURVE",
"305 335 LINE",
"327 335 LINE",
"155 607 LINE",
"170 611 OFFCURVE",
"207 618 OFFCURVE",
"227 619 CURVE",
"225 661 LINE",
"188 659 OFFCURVE",
"143 658 OFFCURVE",
"110 658 CURVE SMOOTH",
"74 658 OFFCURVE",
"28 659 OFFCURVE",
"0 661 CURVE",
"-2 619 LINE",
"11 618 OFFCURVE",
"39 612 OFFCURVE",
"53 607 CURVE",
"275 257 LINE",
"254 322 LINE",
"254 217 LINE SMOOTH",
"254 87 OFFCURVE",
"250 61 OFFCURVE",
"246 54 CURVE",
"239 50 OFFCURVE",
"204 41 OFFCURVE",
"168 40 CURVE",
"170 -3 LINE",
"215 0 OFFCURVE",
"265 2 OFFCURVE",
"297 2 CURVE SMOOTH",
"330 2 OFFCURVE",
"379 0 OFFCURVE",
"424 -3 CURVE",
"426 40 LINE",
"390 41 OFFCURVE",
"355 50 OFFCURVE",
"348 54 CURVE",
"344 61 OFFCURVE",
"340 87 OFFCURVE",
"340 217 CURVE SMOOTH",
"340 322 LINE",
"319 257 LINE",
"540 607 LINE"
);
}
);
};
color = -1;
layerId = "D75C065C-4EF6-4055-9CF2-70010DBCD897";
paths = (
{
closed = 1;
nodes = (
"558 612 OFFCURVE",
"586 618 OFFCURVE",
"599 619 CURVE",
"597 661 LINE",
"574 660 OFFCURVE",
"546 659 OFFCURVE",
"516 659 CURVE SMOOTH",
"488 659 OFFCURVE",
"435 660 OFFCURVE",
"403 661 CURVE",
"401 619 LINE",
"419 618 OFFCURVE",
"455 611 OFFCURVE",
"472 607 CURVE",
"309 335 LINE",
"325 335 LINE",
"155 607 LINE",
"170 611 OFFCURVE",
"207 618 OFFCURVE",
"227 619 CURVE",
"225 661 LINE",
"188 659 OFFCURVE",
"143 658 OFFCURVE",
"110 658 CURVE SMOOTH",
"74 658 OFFCURVE",
"28 659 OFFCURVE",
"0 661 CURVE",
"-2 619 LINE",
"11 618 OFFCURVE",
"39 612 OFFCURVE",
"53 607 CURVE",
"275 257 LINE",
"254 322 LINE",
"254 217 LINE SMOOTH",
"254 87 OFFCURVE",
"250 61 OFFCURVE",
"246 54 CURVE",
"239 50 OFFCURVE",
"204 41 OFFCURVE",
"168 40 CURVE",
"170 -3 LINE",
"215 0 OFFCURVE",
"265 2 OFFCURVE",
"297 2 CURVE SMOOTH",
"330 2 OFFCURVE",
"379 0 OFFCURVE",
"424 -3 CURVE",
"426 40 LINE",
"390 41 OFFCURVE",
"355 50 OFFCURVE",
"348 54 CURVE",
"344 61 OFFCURVE",
"340 87 OFFCURVE",
"340 217 CURVE SMOOTH",
"340 322 LINE",
"315 257 LINE",
"544 607 LINE"
);
}
);
width = 594;
},
{
background = {
paths = (
{
closed = 1;
nodes = (
"592 600 OFFCURVE",
"616 605 OFFCURVE",
"634 606 CURVE",
"631 662 LINE",
"595 661 OFFCURVE",
"566 660 OFFCURVE",
"535 660 CURVE SMOOTH",
"503 660 OFFCURVE",
"459 661 OFFCURVE",
"416 662 CURVE",
"413 605 LINE",
"444 603 OFFCURVE",
"477 599 OFFCURVE",
"495 595 CURVE",
"340 339 LINE",
"366 339 LINE",
"213 595 LINE",
"229 599 OFFCURVE",
"262 603 OFFCURVE",
"295 605 CURVE",
"292 662 LINE",
"252 661 OFFCURVE",
"177 659 OFFCURVE",
"137 659 CURVE SMOOTH",
"97 659 OFFCURVE",
"46 661 OFFCURVE",
"6 662 CURVE",
"3 606 LINE",
"23 604 OFFCURVE",
"46 599 OFFCURVE",
"58 594 CURVE",
"287 220 LINE",
"250 319 LINE",
"250 219 LINE SMOOTH",
"250 133 OFFCURVE",
"246 77 OFFCURVE",
"242 69 CURVE",
"231 61 OFFCURVE",
"199 55 OFFCURVE",
"161 52 CURVE",
"164 -5 LINE",
"208 -1 OFFCURVE",
"265 2 OFFCURVE",
"318 2 CURVE SMOOTH",
"372 2 OFFCURVE",
"428 -1 OFFCURVE",
"472 -5 CURVE",
"475 52 LINE",
"437 55 OFFCURVE",
"405 61 OFFCURVE",
"394 69 CURVE",
"390 77 OFFCURVE",
"386 133 OFFCURVE",
"386 219 CURVE SMOOTH",
"386 319 LINE",
"346 220 LINE",
"579 594 LINE"
);
}
);
};
color = -1;
layerId = "6D340022-02C4-426D-A0D8-A7BFACBEB22E";
paths = (
{
closed = 1;
nodes = (
"595 600 OFFCURVE",
"619 605 OFFCURVE",
"637 606 CURVE",
"634 662 LINE",
"598 661 OFFCURVE",
"566 660 OFFCURVE",
"535 660 CURVE SMOOTH",
"503 660 OFFCURVE",
"456 661 OFFCURVE",
"413 662 CURVE",
"410 605 LINE",
"441 603 OFFCURVE",
"474 599 OFFCURVE",
"492 595 CURVE",
"343 339 LINE",
"368 339 LINE",
"215 595 LINE",
"231 599 OFFCURVE",
"264 603 OFFCURVE",
"297 605 CURVE",
"294 662 LINE",
"254 661 OFFCURVE",
"177 659 OFFCURVE",
"137 659 CURVE SMOOTH",
"94 659 OFFCURVE",
"43 661 OFFCURVE",
"3 662 CURVE",
"0 606 LINE",
"20 604 OFFCURVE",
"43 599 OFFCURVE",
"55 594 CURVE",
"283 220 LINE",
"249 319 LINE",
"249 209 LINE SMOOTH",
"249 133 OFFCURVE",
"246 77 OFFCURVE",
"242 69 CURVE",
"231 61 OFFCURVE",
"199 55 OFFCURVE",
"161 52 CURVE",
"164 -5 LINE",
"208 -1 OFFCURVE",
"265 2 OFFCURVE",
"318 2 CURVE SMOOTH",
"372 2 OFFCURVE",
"428 -1 OFFCURVE",
"472 -5 CURVE",
"475 52 LINE",
"437 55 OFFCURVE",
"405 61 OFFCURVE",
"394 69 CURVE",
"390 77 OFFCURVE",
"387 133 OFFCURVE",
"387 209 CURVE SMOOTH",
"387 319 LINE",
"342 220 LINE",
"582 594 LINE"
);
}
);
width = 636;
}
);
leftKerningGroup = Y;
note = Y;
rightKerningGroup = Y;
unicode = 0059;
},
{
color = 4;
glyphname = Z;
lastChange = "2018-05-01 14:46:29 +0000";
layers = (
{
background = {
paths = (
{
closed = 1;
nodes = (
"563 175 LINE",
"520 180 LINE",
"501 124 OFFCURVE",
"487 83 OFFCURVE",
"473 56 CURVE",
"462 54 OFFCURVE",
"446 53 OFFCURVE",
"433 53 CURVE SMOOTH",
"171 53 LINE",
"171 17 LINE",
"534 627 LINE",
"534 662 LINE",
"506 661 OFFCURVE",
"477 660 OFFCURVE",
"449 660 CURVE SMOOTH",
"145 660 LINE SMOOTH",
"118 660 OFFCURVE",
"88 660 OFFCURVE",
"55 661 CURVE",
"56 492 LINE",
"100 492 LINE",
"104 539 OFFCURVE",
"109 577 OFFCURVE",
"114 604 CURVE",
"133 607 OFFCURVE",
"155 608 OFFCURVE",
"185 608 CURVE SMOOTH",
"438 608 LINE",
"438 643 LINE",
"74 33 LINE",
"74 -2 LINE",
"102 -1 OFFCURVE",
"130 0 OFFCURVE",
"158 0 CURVE SMOOTH",
"436 0 LINE SMOOTH",
"470 0 OFFCURVE",
"501 -1 OFFCURVE",
"537 -4 CURVE"
);
}
);
};
color = -1;
layerId = "D75C065C-4EF6-4055-9CF2-70010DBCD897";
paths = (
{
closed = 1;
nodes = (
"565 175 LINE",
"522 180 LINE",
"503 124 OFFCURVE",
"489 83 OFFCURVE",
"475 56 CURVE",
"464 54 OFFCURVE",
"448 53 OFFCURVE",
"435 53 CURVE SMOOTH",
"171 53 LINE",
"171 17 LINE",
"536 627 LINE",
"536 662 LINE",
"508 661 OFFCURVE",
"479 660 OFFCURVE",
"451 660 CURVE SMOOTH",
"145 660 LINE SMOOTH",
"118 660 OFFCURVE",
"88 660 OFFCURVE",
"55 661 CURVE",
"56 492 LINE",
"100 492 LINE",
"104 539 OFFCURVE",
"109 578 OFFCURVE",
"114 605 CURVE",
"133 608 OFFCURVE",
"155 609 OFFCURVE",
"185 609 CURVE SMOOTH",
"440 609 LINE",
"440 643 LINE",
"74 33 LINE",
"74 -2 LINE",
"102 -1 OFFCURVE",
"130 0 OFFCURVE",
"158 0 CURVE SMOOTH",
"438 0 LINE SMOOTH",
"472 0 OFFCURVE",
"503 -1 OFFCURVE",
"539 -4 CURVE"
);
}
);
width = 596;
},
{
background = {
paths = (
{
closed = 1;
nodes = (
"596 189 LINE",
"537 197 LINE",
"517 138 OFFCURVE",
"502 96 OFFCURVE",
"488 66 CURVE",
"470 63 OFFCURVE",
"456 62 OFFCURVE",
"439 62 CURVE SMOOTH",
"204 62 LINE",
"204 23 LINE",
"553 610 LINE",
"553 662 LINE",
"524 661 OFFCURVE",
"494 660 OFFCURVE",
"465 660 CURVE SMOOTH",
"149 660 LINE SMOOTH",
"121 660 OFFCURVE",
"80 660 OFFCURVE",
"45 662 CURVE",
"47 478 LINE",
"106 478 LINE",
"113 531 OFFCURVE",
"119 566 OFFCURVE",
"126 596 CURVE",
"148 599 OFFCURVE",
"171 601 OFFCURVE",
"213 601 CURVE SMOOTH",
"416 601 LINE",
"416 642 LINE",
"62 49 LINE",
"62 -3 LINE",
"91 -1 OFFCURVE",
"121 0 OFFCURVE",
"150 0 CURVE SMOOTH",
"421 0 LINE SMOOTH",
"460 0 OFFCURVE",
"529 -3 OFFCURVE",
"562 -5 CURVE"
);
}
);
};
color = -1;
layerId = "6D340022-02C4-426D-A0D8-A7BFACBEB22E";
paths = (
{
closed = 1;
nodes = (
"598 189 LINE",
"534 197 LINE",
"514 138 OFFCURVE",
"499 98 OFFCURVE",
"485 68 CURVE",
"467 65 OFFCURVE",
"453 64 OFFCURVE",
"436 64 CURVE SMOOTH",
"204 64 LINE",
"204 23 LINE",
"553 610 LINE",
"553 662 LINE",
"524 661 OFFCURVE",
"494 660 OFFCURVE",
"465 660 CURVE SMOOTH",
"149 660 LINE SMOOTH",
"121 660 OFFCURVE",
"78 660 OFFCURVE",
"43 662 CURVE",
"45 478 LINE",
"109 478 LINE",
"116 531 OFFCURVE",
"122 563 OFFCURVE",
"129 593 CURVE",
"151 596 OFFCURVE",
"174 598 OFFCURVE",
"216 598 CURVE SMOOTH",
"416 598 LINE",
"416 642 LINE",
"62 49 LINE",
"62 -3 LINE",
"91 -1 OFFCURVE",
"121 0 OFFCURVE",
"150 0 CURVE SMOOTH",
"421 0 LINE SMOOTH",
"460 0 OFFCURVE",
"531 -3 OFFCURVE",
"564 -5 CURVE"
);
}
);
width = 599;
}
);
leftKerningGroup = Z;
note = Z;
rightKerningGroup = Z;
unicode = 005A;
},
{
color = 4;
glyphname = a;
lastChange = "2018-05-03 09:13:19 +0000";
layers = (
{
anchors = (
{
name = bottom;
position = "{236, 0}";
},
{
name = ogonek;
position = "{425, 10}";
},
{
name = top;
position = "{221, 430}";
}
);
background = {
paths = (
{
closed = 1;
nodes = (
"218 -8 OFFCURVE",
"259 4 OFFCURVE",
"312 66 CURVE",
"297 66 LINE",
"308 27 LINE SMOOTH",
"314 6 OFFCURVE",
"326 -8 OFFCURVE",
"348 -8 CURVE SMOOTH",
"366 -8 OFFCURVE",
"397 7 OFFCURVE",
"442 22 CURVE",
"442 52 LINE",
"424 54 OFFCURVE",
"387 60 OFFCURVE",
"378 64 CURVE",
"376 70 OFFCURVE",
"371 93 OFFCURVE",
"371 128 CURVE",
"374 297 LINE",
"374 385 OFFCURVE",
"305 438 OFFCURVE",
"211 438 CURVE",
"137 428 OFFCURVE",
"52 373 OFFCURVE",
"52 331 CURVE SMOOTH",
"52 296 OFFCURVE",
"93 283 OFFCURVE",
"137 294 CURVE",
"139 335 LINE SMOOTH",
"141 374 OFFCURVE",
"148 389 OFFCURVE",
"184 389 CURVE SMOOTH",
"242 389 OFFCURVE",
"295 349 OFFCURVE",
"295 299 CURVE SMOOTH",
"295 246 LINE",
"143 195 LINE SMOOTH",
"74 172 OFFCURVE",
"49 144 OFFCURVE",
"49 101 CURVE SMOOTH",
"49 51 OFFCURVE",
"103 -8 OFFCURVE",
"186 -8 CURVE SMOOTH"
);
},
{
closed = 1;
nodes = (
"176 51 OFFCURVE",
"138 81 OFFCURVE",
"138 117 CURVE SMOOTH",
"138 144 OFFCURVE",
"151 160 OFFCURVE",
"183 169 CURVE SMOOTH",
"295 199 LINE",
"295 94 LINE",
"268 62 OFFCURVE",
"241 51 OFFCURVE",
"213 51 CURVE SMOOTH"
);
}
);
};
color = -1;
layerId = "D75C065C-4EF6-4055-9CF2-70010DBCD897";
paths = (
{
closed = 1;
nodes = (
"218 -8 OFFCURVE",
"259 4 OFFCURVE",
"312 66 CURVE",
"297 66 LINE",
"308 27 LINE SMOOTH",
"314 6 OFFCURVE",
"326 -8 OFFCURVE",
"348 -8 CURVE SMOOTH",
"367 -8 OFFCURVE",
"398 7 OFFCURVE",
"443 22 CURVE",
"443 52 LINE",
"425 54 OFFCURVE",
"388 60 OFFCURVE",
"379 64 CURVE",
"377 70 OFFCURVE",
"372 93 OFFCURVE",
"372 128 CURVE",
"375 297 LINE",
"374 385 OFFCURVE",
"305 438 OFFCURVE",
"211 438 CURVE",
"137 428 OFFCURVE",
"52 373 OFFCURVE",
"52 331 CURVE SMOOTH",
"52 296 OFFCURVE",
"93 283 OFFCURVE",
"137 294 CURVE",
"139 335 LINE SMOOTH",
"141 374 OFFCURVE",
"148 387 OFFCURVE",
"184 387 CURVE SMOOTH",
"242 387 OFFCURVE",
"295 349 OFFCURVE",
"295 299 CURVE SMOOTH",
"295 246 LINE",
"143 195 LINE SMOOTH",
"74 172 OFFCURVE",
"49 144 OFFCURVE",
"49 101 CURVE SMOOTH",
"49 51 OFFCURVE",
"103 -8 OFFCURVE",
"186 -8 CURVE SMOOTH"
);
},
{
closed = 1;
nodes = (
"176 51 OFFCURVE",
"138 81 OFFCURVE",
"138 117 CURVE SMOOTH",
"138 144 OFFCURVE",
"151 160 OFFCURVE",
"183 169 CURVE SMOOTH",
"295 199 LINE",
"295 94 LINE",
"268 62 OFFCURVE",
"241 51 OFFCURVE",
"213 51 CURVE SMOOTH"
);
}
);
width = 472;
},
{
anchors = (
{
name = bottom;
position = "{252, 0}";
},
{
name = ogonek;
position = "{453, 10}";
},
{
name = top;
position = "{247, 440}";
}
);
background = {
paths = (
{
closed = 1;
nodes = (
"222 -8 OFFCURVE",
"273 14 OFFCURVE",
"313 73 CURVE",
"293 79 LINE",
"311 33 LINE SMOOTH",
"321 8 OFFCURVE",
"336 -8 OFFCURVE",
"366 -8 CURVE SMOOTH",
"400 -8 OFFCURVE",
"432 11 OFFCURVE",
"495 34 CURVE",
"495 75 LINE",
"472 78 OFFCURVE",
"447 82 OFFCURVE",
"430 89 CURVE",
"423 103 OFFCURVE",
"420 121 OFFCURVE",
"420 158 CURVE",
"424 298 LINE",
"424 391 OFFCURVE",
"348 448 OFFCURVE",
"230 448 CURVE",
"171 441 OFFCURVE",
"46 379 OFFCURVE",
"46 326 CURVE SMOOTH",
"46 285 OFFCURVE",
"92 264 OFFCURVE",
"160 278 CURVE",
"165 340 LINE SMOOTH",
"167 369 OFFCURVE",
"175 377 OFFCURVE",
"196 377 CURVE SMOOTH",
"239 377 OFFCURVE",
"289 339 OFFCURVE",
"289 294 CURVE SMOOTH",
"289 259 LINE",
"132 213 LINE SMOOTH",
"64 193 OFFCURVE",
"40 160 OFFCURVE",
"40 114 CURVE SMOOTH",
"40 63 OFFCURVE",
"95 -8 OFFCURVE",
"189 -8 CURVE SMOOTH"
);
},
{
closed = 1;
nodes = (
"210 83 OFFCURVE",
"178 111 OFFCURVE",
"178 144 CURVE SMOOTH",
"178 169 OFFCURVE",
"191 184 OFFCURVE",
"224 190 CURVE SMOOTH",
"290 202 LINE",
"290 108 LINE",
"275 89 OFFCURVE",
"256 83 OFFCURVE",
"240 83 CURVE SMOOTH"
);
}
);
};
color = -1;
layerId = "6D340022-02C4-426D-A0D8-A7BFACBEB22E";
paths = (
{
closed = 1;
nodes = (
"222 -8 OFFCURVE",
"268 14 OFFCURVE",
"314 72 CURVE",
"293 79 LINE",
"311 33 LINE SMOOTH",
"321 8 OFFCURVE",
"336 -8 OFFCURVE",
"366 -8 CURVE SMOOTH",
"400 -8 OFFCURVE",
"432 11 OFFCURVE",
"494 34 CURVE",
"494 75 LINE",
"472 78 OFFCURVE",
"447 82 OFFCURVE",
"429 89 CURVE",
"423 105 OFFCURVE",
"421 125 OFFCURVE",
"421 158 CURVE",
"424 298 LINE",
"424 391 OFFCURVE",
"348 448 OFFCURVE",
"230 448 CURVE",
"171 441 OFFCURVE",
"46 379 OFFCURVE",
"46 326 CURVE SMOOTH",
"46 285 OFFCURVE",
"92 264 OFFCURVE",
"160 278 CURVE",
"165 340 LINE SMOOTH",
"167 369 OFFCURVE",
"175 377 OFFCURVE",
"196 377 CURVE SMOOTH",
"239 377 OFFCURVE",
"289 339 OFFCURVE",
"289 294 CURVE SMOOTH",
"289 259 LINE",
"132 213 LINE SMOOTH",
"64 193 OFFCURVE",
"40 160 OFFCURVE",
"40 114 CURVE SMOOTH",
"40 63 OFFCURVE",
"95 -8 OFFCURVE",
"188 -8 CURVE SMOOTH"
);
},
{
closed = 1;
nodes = (
"210 83 OFFCURVE",
"178 111 OFFCURVE",
"178 144 CURVE SMOOTH",
"178 169 OFFCURVE",
"191 184 OFFCURVE",
"224 190 CURVE SMOOTH",
"290 202 LINE",
"290 105 LINE",
"274 89 OFFCURVE",
"256 83 OFFCURVE",
"240 83 CURVE SMOOTH"
);
}
);
width = 503;
}
);
leftKerningGroup = a;
note = a;
rightKerningGroup = a;
unicode = 0061;
},
